G04 Layer_Color=16711935*
%FSLAX44Y44*%
%MOMM*%
G71*
G01*
G75*
%ADD18C,0.1500*%
D18*
X131953Y-188142D02*
X134830Y-179829D01*
X128059Y-196029D02*
X131953Y-188142D01*
X123209Y-203368D02*
X128059Y-196029D01*
X117479Y-210043D02*
X123209Y-203368D01*
X110959Y-215948D02*
X117479Y-210043D01*
X103752Y-220991D02*
X110959Y-215948D01*
X95970Y-225093D02*
X103752Y-220991D01*
X87736Y-228189D02*
X95970Y-225093D01*
X75685Y-231736D02*
X87736Y-228189D01*
X63545Y-235027D02*
X75685Y-231736D01*
X41997Y-240196D02*
X63545Y-235027D01*
X20189Y-244577D02*
X41997Y-240196D01*
X-1802Y-248154D02*
X20189Y-244577D01*
X-26360Y-251171D02*
X-1802Y-248154D01*
X-50858Y-253167D02*
X-26360Y-251171D01*
X-75367Y-254152D02*
X-50858Y-253167D01*
X-81176Y-253673D02*
X-75367Y-254152D01*
X-86768Y-252029D02*
X-81176Y-253673D01*
X-91911Y-249289D02*
X-86768Y-252029D01*
X-96395Y-245564D02*
X-91911Y-249289D01*
X-100033Y-241010D02*
X-96395Y-245564D01*
X-102674Y-235815D02*
X-100033Y-241010D01*
X-108493Y-220331D02*
X-102674Y-235815D01*
X-114034Y-204737D02*
X-108493Y-220331D01*
X-123383Y-176112D02*
X-114034Y-204737D01*
X-130911Y-150281D02*
X-123383Y-176112D01*
X-137620Y-124317D02*
X-130911Y-150281D01*
X-144103Y-95380D02*
X-137620Y-124317D01*
X-149572Y-66336D02*
X-144103Y-95380D01*
X-154031Y-37174D02*
X-149572Y-66336D01*
X-157183Y-10820D02*
X-154031Y-37174D01*
X-159518Y15655D02*
X-157183Y-10820D01*
X-161037Y42253D02*
X-159518Y15655D01*
X-161736Y68979D02*
X-161037Y42253D01*
X-161736Y68979D02*
X-161613Y95829D01*
X-160509Y125730D01*
X-158637Y152807D01*
X-155899Y180295D01*
X-151886Y210806D01*
X-150478Y216378D01*
X-147987Y221556D01*
X-144514Y226135D01*
X-140198Y229929D01*
X-135212Y232786D01*
X-129756Y234592D01*
X-124050Y235275D01*
X-118323Y234806D01*
X-96514Y230630D01*
X-74755Y226137D01*
X-39808Y218239D01*
X-4974Y209520D01*
X29703Y199990D01*
X64176Y189662D01*
X102185Y177267D01*
X139780Y163942D01*
X176989Y149678D01*
X182536Y146730D01*
X187308Y142644D01*
X191076Y137616D01*
X193658Y131889D01*
X194931Y125737D01*
X194833Y119455D02*
X194931Y125737D01*
X189532Y80347D02*
X194833Y119455D01*
X183495Y41325D02*
X189532Y80347D01*
X176332Y278D02*
X183495Y41325D01*
X167423Y-45162D02*
X176332Y278D01*
X157524Y-90373D02*
X167423Y-45162D01*
X146665Y-135238D02*
X157524Y-90373D01*
X134830Y-179829D02*
X146665Y-135238D01*
M02*
