G04 Layer_Physical_Order=4*
G04 Layer_Color=16711680*
%FSLAX44Y44*%
%MOMM*%
G71*
G01*
G75*
%ADD14C,1.0000*%
%ADD16C,0.1250*%
%ADD17C,0.2000*%
%ADD18C,0.1500*%
%ADD19C,0.4000*%
G04:AMPARAMS|DCode=20|XSize=0.9mm|YSize=1.65mm|CornerRadius=0mm|HoleSize=0mm|Usage=FLASHONLY|Rotation=285.000|XOffset=0mm|YOffset=0mm|HoleType=Round|Shape=Round|*
%AMOVALD20*
21,1,0.7500,0.9000,0.0000,0.0000,15.0*
1,1,0.9000,-0.3622,-0.0971*
1,1,0.9000,0.3622,0.0971*
%
%ADD20OVALD20*%

%ADD21C,0.6000*%
%ADD22C,0.3000*%
G04:AMPARAMS|DCode=23|XSize=1.25mm|YSize=3.5mm|CornerRadius=0mm|HoleSize=0mm|Usage=FLASHONLY|Rotation=261.000|XOffset=0mm|YOffset=0mm|HoleType=Round|Shape=Round|*
%AMOVALD23*
21,1,2.2500,1.2500,0.0000,0.0000,351.0*
1,1,1.2500,-1.1112,0.1760*
1,1,1.2500,1.1112,-0.1760*
%
%ADD23OVALD23*%

G04:AMPARAMS|DCode=24|XSize=1.3mm|YSize=1.3mm|CornerRadius=0.325mm|HoleSize=0mm|Usage=FLASHONLY|Rotation=258.400|XOffset=0mm|YOffset=0mm|HoleType=Round|Shape=RoundedRectangle|*
%AMROUNDEDRECTD24*
21,1,1.3000,0.6500,0,0,258.4*
21,1,0.6500,1.3000,0,0,258.4*
1,1,0.6500,-0.3837,-0.2530*
1,1,0.6500,-0.2530,0.3837*
1,1,0.6500,0.3837,0.2530*
1,1,0.6500,0.2530,-0.3837*
%
%ADD24ROUNDEDRECTD24*%
G04:AMPARAMS|DCode=25|XSize=1.3mm|YSize=1.3mm|CornerRadius=0.325mm|HoleSize=0mm|Usage=FLASHONLY|Rotation=168.400|XOffset=0mm|YOffset=0mm|HoleType=Round|Shape=RoundedRectangle|*
%AMROUNDEDRECTD25*
21,1,1.3000,0.6500,0,0,168.4*
21,1,0.6500,1.3000,0,0,168.4*
1,1,0.6500,-0.2530,0.3837*
1,1,0.6500,0.3837,0.2530*
1,1,0.6500,0.2530,-0.3837*
1,1,0.6500,-0.3837,-0.2530*
%
%ADD25ROUNDEDRECTD25*%
G04:AMPARAMS|DCode=26|XSize=3.5mm|YSize=4mm|CornerRadius=0mm|HoleSize=0mm|Usage=FLASHONLY|Rotation=261.000|XOffset=0mm|YOffset=0mm|HoleType=Round|Shape=Rectangle|*
%AMROTATEDRECTD26*
4,1,4,-1.7016,2.0413,2.2491,1.4156,1.7016,-2.0413,-2.2491,-1.4156,-1.7016,2.0413,0.0*
%
%ADD26ROTATEDRECTD26*%

G04:AMPARAMS|DCode=27|XSize=1.3mm|YSize=1.3mm|CornerRadius=0.325mm|HoleSize=0mm|Usage=FLASHONLY|Rotation=0.000|XOffset=0mm|YOffset=0mm|HoleType=Round|Shape=RoundedRectangle|*
%AMROUNDEDRECTD27*
21,1,1.3000,0.6500,0,0,0.0*
21,1,0.6500,1.3000,0,0,0.0*
1,1,0.6500,0.3250,-0.3250*
1,1,0.6500,-0.3250,-0.3250*
1,1,0.6500,-0.3250,0.3250*
1,1,0.6500,0.3250,0.3250*
%
%ADD27ROUNDEDRECTD27*%
%ADD28P,0.8485X4X396.0*%
%ADD29P,0.8485X4X306.0*%
%ADD30P,0.8485X4X175.0*%
%ADD31P,0.8485X4X329.0*%
%ADD32P,0.8485X4X59.0*%
G04:AMPARAMS|DCode=33|XSize=0.9mm|YSize=0.85mm|CornerRadius=0mm|HoleSize=0mm|Usage=FLASHONLY|Rotation=171.000|XOffset=0mm|YOffset=0mm|HoleType=Round|Shape=Rectangle|*
%AMROTATEDRECTD33*
4,1,4,0.5110,0.3494,0.3780,-0.4902,-0.5110,-0.3494,-0.3780,0.4902,0.5110,0.3494,0.0*
%
%ADD33ROTATEDRECTD33*%

G04:AMPARAMS|DCode=34|XSize=0.9mm|YSize=0.85mm|CornerRadius=0mm|HoleSize=0mm|Usage=FLASHONLY|Rotation=81.000|XOffset=0mm|YOffset=0mm|HoleType=Round|Shape=Rectangle|*
%AMROTATEDRECTD34*
4,1,4,0.3494,-0.5110,-0.4902,-0.3780,-0.3494,0.5110,0.4902,0.3780,0.3494,-0.5110,0.0*
%
%ADD34ROTATEDRECTD34*%

G04:AMPARAMS|DCode=35|XSize=0.65mm|YSize=1.1mm|CornerRadius=0mm|HoleSize=0mm|Usage=FLASHONLY|Rotation=81.000|XOffset=0mm|YOffset=0mm|HoleType=Round|Shape=Rectangle|*
%AMROTATEDRECTD35*
4,1,4,0.4924,-0.4070,-0.5941,-0.2350,-0.4924,0.4070,0.5941,0.2350,0.4924,-0.4070,0.0*
%
%ADD35ROTATEDRECTD35*%

G04:AMPARAMS|DCode=36|XSize=0.3mm|YSize=0.58mm|CornerRadius=0mm|HoleSize=0mm|Usage=FLASHONLY|Rotation=351.000|XOffset=0mm|YOffset=0mm|HoleType=Round|Shape=Rectangle|*
%AMROTATEDRECTD36*
4,1,4,-0.1935,-0.2630,-0.1028,0.3099,0.1935,0.2630,0.1028,-0.3099,-0.1935,-0.2630,0.0*
%
%ADD36ROTATEDRECTD36*%

G04:AMPARAMS|DCode=37|XSize=0.25mm|YSize=0.58mm|CornerRadius=0mm|HoleSize=0mm|Usage=FLASHONLY|Rotation=351.000|XOffset=0mm|YOffset=0mm|HoleType=Round|Shape=Rectangle|*
%AMROTATEDRECTD37*
4,1,4,-0.1688,-0.2669,-0.0781,0.3060,0.1688,0.2669,0.0781,-0.3060,-0.1688,-0.2669,0.0*
%
%ADD37ROTATEDRECTD37*%

G04:AMPARAMS|DCode=38|XSize=0.63mm|YSize=0.35mm|CornerRadius=0mm|HoleSize=0mm|Usage=FLASHONLY|Rotation=351.000|XOffset=0mm|YOffset=0mm|HoleType=Round|Shape=Rectangle|*
%AMROTATEDRECTD38*
4,1,4,-0.3385,-0.1236,-0.2838,0.2221,0.3385,0.1236,0.2838,-0.2221,-0.3385,-0.1236,0.0*
%
%ADD38ROTATEDRECTD38*%

%ADD39P,2.0506X4X216.0*%
G04:AMPARAMS|DCode=40|XSize=0.28mm|YSize=0.9mm|CornerRadius=0mm|HoleSize=0mm|Usage=FLASHONLY|Rotation=81.000|XOffset=0mm|YOffset=0mm|HoleType=Round|Shape=Round|*
%AMOVALD40*
21,1,0.6200,0.2800,0.0000,0.0000,171.0*
1,1,0.2800,0.3062,-0.0485*
1,1,0.2800,-0.3062,0.0485*
%
%ADD40OVALD40*%

G04:AMPARAMS|DCode=41|XSize=0.28mm|YSize=0.9mm|CornerRadius=0mm|HoleSize=0mm|Usage=FLASHONLY|Rotation=171.000|XOffset=0mm|YOffset=0mm|HoleType=Round|Shape=Round|*
%AMOVALD41*
21,1,0.6200,0.2800,0.0000,0.0000,261.0*
1,1,0.2800,0.0485,0.3062*
1,1,0.2800,-0.0485,-0.3062*
%
%ADD41OVALD41*%

%ADD42P,0.2828X4X126.0*%
G04:AMPARAMS|DCode=43|XSize=0.6mm|YSize=0.5mm|CornerRadius=0mm|HoleSize=0mm|Usage=FLASHONLY|Rotation=351.000|XOffset=0mm|YOffset=0mm|HoleType=Round|Shape=Rectangle|*
%AMROTATEDRECTD43*
4,1,4,-0.3354,-0.2000,-0.2572,0.2939,0.3354,0.2000,0.2572,-0.2939,-0.3354,-0.2000,0.0*
%
%ADD43ROTATEDRECTD43*%

G04:AMPARAMS|DCode=44|XSize=0.6mm|YSize=0.5mm|CornerRadius=0mm|HoleSize=0mm|Usage=FLASHONLY|Rotation=261.000|XOffset=0mm|YOffset=0mm|HoleType=Round|Shape=Rectangle|*
%AMROTATEDRECTD44*
4,1,4,-0.2000,0.3354,0.2939,0.2572,0.2000,-0.3354,-0.2939,-0.2572,-0.2000,0.3354,0.0*
%
%ADD44ROTATEDRECTD44*%

G04:AMPARAMS|DCode=45|XSize=0.6mm|YSize=0.5mm|CornerRadius=0mm|HoleSize=0mm|Usage=FLASHONLY|Rotation=105.000|XOffset=0mm|YOffset=0mm|HoleType=Round|Shape=Rectangle|*
%AMROTATEDRECTD45*
4,1,4,0.3191,-0.2251,-0.1638,-0.3545,-0.3191,0.2251,0.1638,0.3545,0.3191,-0.2251,0.0*
%
%ADD45ROTATEDRECTD45*%

G04:AMPARAMS|DCode=46|XSize=0.5mm|YSize=0.75mm|CornerRadius=0mm|HoleSize=0mm|Usage=FLASHONLY|Rotation=351.000|XOffset=0mm|YOffset=0mm|HoleType=Round|Shape=Rectangle|*
%AMROTATEDRECTD46*
4,1,4,-0.3056,-0.3313,-0.1883,0.4095,0.3056,0.3313,0.1883,-0.4095,-0.3056,-0.3313,0.0*
%
%ADD46ROTATEDRECTD46*%

G04:AMPARAMS|DCode=47|XSize=0.2mm|YSize=0.7mm|CornerRadius=0mm|HoleSize=0mm|Usage=FLASHONLY|Rotation=171.000|XOffset=0mm|YOffset=0mm|HoleType=Round|Shape=Round|*
%AMOVALD47*
21,1,0.5000,0.2000,0.0000,0.0000,261.0*
1,1,0.2000,0.0391,0.2469*
1,1,0.2000,-0.0391,-0.2469*
%
%ADD47OVALD47*%

G04:AMPARAMS|DCode=48|XSize=0.2mm|YSize=0.7mm|CornerRadius=0mm|HoleSize=0mm|Usage=FLASHONLY|Rotation=261.000|XOffset=0mm|YOffset=0mm|HoleType=Round|Shape=Round|*
%AMOVALD48*
21,1,0.5000,0.2000,0.0000,0.0000,351.0*
1,1,0.2000,-0.2469,0.0391*
1,1,0.2000,0.2469,-0.0391*
%
%ADD48OVALD48*%

G04:AMPARAMS|DCode=49|XSize=2mm|YSize=0.9mm|CornerRadius=0mm|HoleSize=0mm|Usage=FLASHONLY|Rotation=351.000|XOffset=0mm|YOffset=0mm|HoleType=Round|Shape=Rectangle|*
%AMROTATEDRECTD49*
4,1,4,-1.0581,-0.2880,-0.9173,0.6009,1.0581,0.2880,0.9173,-0.6009,-1.0581,-0.2880,0.0*
%
%ADD49ROTATEDRECTD49*%

G04:AMPARAMS|DCode=50|XSize=0.25mm|YSize=0.5mm|CornerRadius=0mm|HoleSize=0mm|Usage=FLASHONLY|Rotation=351.000|XOffset=0mm|YOffset=0mm|HoleType=Round|Shape=Rectangle|*
%AMROTATEDRECTD50*
4,1,4,-0.1626,-0.2274,-0.0843,0.2665,0.1626,0.2274,0.0843,-0.2665,-0.1626,-0.2274,0.0*
%
%ADD50ROTATEDRECTD50*%

G04:AMPARAMS|DCode=51|XSize=1.7mm|YSize=0.8mm|CornerRadius=0mm|HoleSize=0mm|Usage=FLASHONLY|Rotation=171.000|XOffset=0mm|YOffset=0mm|HoleType=Round|Shape=Rectangle|*
%AMROTATEDRECTD51*
4,1,4,0.9021,0.2621,0.7770,-0.5281,-0.9021,-0.2621,-0.7770,0.5281,0.9021,0.2621,0.0*
%
%ADD51ROTATEDRECTD51*%

G04:AMPARAMS|DCode=52|XSize=0.6mm|YSize=0.4mm|CornerRadius=0mm|HoleSize=0mm|Usage=FLASHONLY|Rotation=351.000|XOffset=0mm|YOffset=0mm|HoleType=Round|Shape=Rectangle|*
%AMROTATEDRECTD52*
4,1,4,-0.3276,-0.1506,-0.2650,0.2445,0.3276,0.1506,0.2650,-0.2445,-0.3276,-0.1506,0.0*
%
%ADD52ROTATEDRECTD52*%

G04:AMPARAMS|DCode=53|XSize=0.6mm|YSize=0.4mm|CornerRadius=0mm|HoleSize=0mm|Usage=FLASHONLY|Rotation=81.000|XOffset=0mm|YOffset=0mm|HoleType=Round|Shape=Rectangle|*
%AMROTATEDRECTD53*
4,1,4,0.1506,-0.3276,-0.2445,-0.2650,-0.1506,0.3276,0.2445,0.2650,0.1506,-0.3276,0.0*
%
%ADD53ROTATEDRECTD53*%

G04:AMPARAMS|DCode=54|XSize=10.008mm|YSize=6.35mm|CornerRadius=0mm|HoleSize=0mm|Usage=FLASHONLY|Rotation=81.000|XOffset=0mm|YOffset=0mm|HoleType=Round|Shape=Rectangle|*
%AMROTATEDRECTD54*
4,1,4,2.3531,-5.4391,-3.9187,-4.4457,-2.3531,5.4391,3.9187,4.4457,2.3531,-5.4391,0.0*
%
%ADD54ROTATEDRECTD54*%

G04:AMPARAMS|DCode=55|XSize=0.864mm|YSize=1.676mm|CornerRadius=0mm|HoleSize=0mm|Usage=FLASHONLY|Rotation=261.000|XOffset=0mm|YOffset=0mm|HoleType=Round|Shape=Rectangle|*
%AMROTATEDRECTD55*
4,1,4,-0.7601,0.5578,0.8953,0.2956,0.7601,-0.5578,-0.8953,-0.2956,-0.7601,0.5578,0.0*
%
%ADD55ROTATEDRECTD55*%

G04:AMPARAMS|DCode=56|XSize=0.864mm|YSize=1.422mm|CornerRadius=0mm|HoleSize=0mm|Usage=FLASHONLY|Rotation=261.000|XOffset=0mm|YOffset=0mm|HoleType=Round|Shape=Rectangle|*
%AMROTATEDRECTD56*
4,1,4,-0.6347,0.5379,0.7698,0.3155,0.6347,-0.5379,-0.7698,-0.3155,-0.6347,0.5379,0.0*
%
%ADD56ROTATEDRECTD56*%

G04:AMPARAMS|DCode=57|XSize=0.7mm|YSize=0.9mm|CornerRadius=0.175mm|HoleSize=0mm|Usage=FLASHONLY|Rotation=351.000|XOffset=0mm|YOffset=0mm|HoleType=Round|Shape=RoundedRectangle|*
%AMROUNDEDRECTD57*
21,1,0.7000,0.5500,0,0,351.0*
21,1,0.3500,0.9000,0,0,351.0*
1,1,0.3500,0.1298,-0.2990*
1,1,0.3500,-0.2159,-0.2442*
1,1,0.3500,-0.1298,0.2990*
1,1,0.3500,0.2159,0.2442*
%
%ADD57ROUNDEDRECTD57*%
%ADD58P,1.4849X4X126.0*%
G04:AMPARAMS|DCode=59|XSize=0.325mm|YSize=0.9mm|CornerRadius=0mm|HoleSize=0mm|Usage=FLASHONLY|Rotation=171.000|XOffset=0mm|YOffset=0mm|HoleType=Round|Shape=Rectangle|*
%AMROTATEDRECTD59*
4,1,4,0.2309,0.4190,0.0901,-0.4699,-0.2309,-0.4190,-0.0901,0.4699,0.2309,0.4190,0.0*
%
%ADD59ROTATEDRECTD59*%

G04:AMPARAMS|DCode=60|XSize=1.1mm|YSize=3.6mm|CornerRadius=0mm|HoleSize=0mm|Usage=FLASHONLY|Rotation=171.000|XOffset=0mm|YOffset=0mm|HoleType=Round|Shape=Rectangle|*
%AMROTATEDRECTD60*
4,1,4,0.8248,1.6918,0.2616,-1.8639,-0.8248,-1.6918,-0.2616,1.8639,0.8248,1.6918,0.0*
%
%ADD60ROTATEDRECTD60*%

G04:AMPARAMS|DCode=61|XSize=1.1mm|YSize=3.6mm|CornerRadius=0mm|HoleSize=0mm|Usage=FLASHONLY|Rotation=306.000|XOffset=0mm|YOffset=0mm|HoleType=Round|Shape=Rectangle|*
%AMROTATEDRECTD61*
4,1,4,-1.7795,-0.6130,1.1330,1.5030,1.7795,0.6130,-1.1330,-1.5030,-1.7795,-0.6130,0.0*
%
%ADD61ROTATEDRECTD61*%

G04:AMPARAMS|DCode=62|XSize=0.3mm|YSize=0.75mm|CornerRadius=0mm|HoleSize=0mm|Usage=FLASHONLY|Rotation=284.000|XOffset=0mm|YOffset=0mm|HoleType=Round|Shape=Rectangle|*
%AMROTATEDRECTD62*
4,1,4,-0.4002,0.0548,0.3276,0.2363,0.4002,-0.0548,-0.3276,-0.2363,-0.4002,0.0548,0.0*
%
%ADD62ROTATEDRECTD62*%

G04:AMPARAMS|DCode=63|XSize=1.45mm|YSize=1.75mm|CornerRadius=0mm|HoleSize=0mm|Usage=FLASHONLY|Rotation=284.000|XOffset=0mm|YOffset=0mm|HoleType=Round|Shape=Rectangle|*
%AMROTATEDRECTD63*
4,1,4,-1.0244,0.4918,0.6736,0.9152,1.0244,-0.4918,-0.6736,-0.9152,-1.0244,0.4918,0.0*
%
%ADD63ROTATEDRECTD63*%

G04:AMPARAMS|DCode=64|XSize=1.3mm|YSize=1.3mm|CornerRadius=0.325mm|HoleSize=0mm|Usage=FLASHONLY|Rotation=81.000|XOffset=0mm|YOffset=0mm|HoleType=Round|Shape=RoundedRectangle|*
%AMROUNDEDRECTD64*
21,1,1.3000,0.6500,0,0,81.0*
21,1,0.6500,1.3000,0,0,81.0*
1,1,0.6500,0.3718,0.2702*
1,1,0.6500,0.2702,-0.3718*
1,1,0.6500,-0.3718,-0.2702*
1,1,0.6500,-0.2702,0.3718*
%
%ADD64ROUNDEDRECTD64*%
%ADD65C,0.2500*%
%ADD66C,0.5000*%
%ADD67C,0.8000*%
%ADD68C,0.5500*%
G04:AMPARAMS|DCode=69|XSize=2.3834mm|YSize=0.4569mm|CornerRadius=0mm|HoleSize=0mm|Usage=FLASHONLY|Rotation=261.000|XOffset=0mm|YOffset=0mm|HoleType=Round|Shape=Rectangle|*
%AMROTATEDRECTD69*
4,1,4,-0.0392,1.2127,0.4121,1.1413,0.0392,-1.2127,-0.4121,-1.1413,-0.0392,1.2127,0.0*
%
%ADD69ROTATEDRECTD69*%

G04:AMPARAMS|DCode=70|XSize=2.654mm|YSize=0.3533mm|CornerRadius=0mm|HoleSize=0mm|Usage=FLASHONLY|Rotation=171.000|XOffset=0mm|YOffset=0mm|HoleType=Round|Shape=Rectangle|*
%AMROTATEDRECTD70*
4,1,4,1.3383,-0.0331,1.2830,-0.3821,-1.3383,0.0331,-1.2830,0.3821,1.3383,-0.0331,0.0*
%
%ADD70ROTATEDRECTD70*%

G04:AMPARAMS|DCode=71|XSize=2.8849mm|YSize=1.4514mm|CornerRadius=0mm|HoleSize=0mm|Usage=FLASHONLY|Rotation=171.000|XOffset=0mm|YOffset=0mm|HoleType=Round|Shape=Rectangle|*
%AMROTATEDRECTD71*
4,1,4,1.5382,0.4911,1.3112,-0.9424,-1.5382,-0.4911,-1.3112,0.9424,1.5382,0.4911,0.0*
%
%ADD71ROTATEDRECTD71*%

G36*
X-57764Y-109910D02*
X-56957Y-110649D01*
X-55929Y-111022D01*
X-16346Y-117089D01*
X-15757Y-117897D01*
X-16422Y-122100D01*
X-16401Y-122631D01*
X-12136Y-119532D01*
X-11132Y-120913D01*
X-9751Y-119909D01*
X-6652Y-124175D01*
X-6468Y-123676D01*
X-5686Y-118738D01*
X-4749Y-118867D01*
X795Y-119717D01*
X1384Y-120525D01*
X167Y-128084D01*
X-912Y-128752D01*
X-3381Y-128361D01*
X-4176Y-128393D01*
X-4689Y-128629D01*
X-5103Y-128246D01*
X-5850Y-127970D01*
X-8319Y-127579D01*
X-9114Y-127610D01*
X-9627Y-127847D01*
X-10042Y-127464D01*
X-10788Y-127188D01*
X-13258Y-126797D01*
X-14053Y-126828D01*
X-14566Y-127065D01*
X-14980Y-126681D01*
X-15727Y-126406D01*
X-18196Y-126015D01*
X-18991Y-126046D01*
X-19504Y-126283D01*
X-19919Y-125899D01*
X-20665Y-125624D01*
X-23135Y-125233D01*
X-23930Y-125264D01*
X-24652Y-125597D01*
X-25192Y-126181D01*
X-25468Y-126928D01*
X-26250Y-131866D01*
X-26219Y-132661D01*
X-25885Y-133384D01*
X-25301Y-133924D01*
X-24555Y-134199D01*
X-23238Y-134408D01*
X-22937Y-134922D01*
X-24261Y-143279D01*
X-25216Y-144140D01*
X-26107Y-143999D01*
X-26873Y-144029D01*
X-30913Y-142241D01*
X-30647Y-140562D01*
X-30678Y-139767D01*
X-31011Y-139045D01*
X-31345Y-138736D01*
X-31365Y-138596D01*
X-31233Y-137765D01*
X-31171Y-137639D01*
X-30759Y-137448D01*
X-30219Y-136864D01*
X-29943Y-136117D01*
X-28613Y-127722D01*
X-28645Y-126927D01*
X-28978Y-126205D01*
X-29562Y-125664D01*
X-30308Y-125389D01*
X-39198Y-123981D01*
X-39198Y-123981D01*
X-39993Y-124012D01*
X-40715Y-124346D01*
X-41152Y-124818D01*
X-41275Y-124800D01*
X-41332Y-125137D01*
X-41531Y-125676D01*
X-42860Y-134072D01*
X-42856Y-134180D01*
X-43517Y-138102D01*
X-47066Y-137534D01*
X-47802Y-137042D01*
X-49753Y-136654D01*
X-51704Y-137042D01*
X-53358Y-138147D01*
X-54463Y-139801D01*
X-54851Y-141752D01*
X-54463Y-143703D01*
X-53358Y-145357D01*
X-51704Y-146462D01*
X-49753Y-146850D01*
X-48490Y-146599D01*
X-45744Y-147038D01*
X-45160Y-147851D01*
X-46074Y-153270D01*
X-46179Y-153554D01*
X-47064Y-159146D01*
X-47782Y-163400D01*
X-47460Y-163446D01*
X-47222Y-163961D01*
X-46638Y-164501D01*
X-45892Y-164776D01*
X-40076Y-165697D01*
X-39839Y-166669D01*
X-58939Y-180794D01*
X-69770Y-188804D01*
X-70758Y-188652D01*
X-70881Y-188482D01*
X-71029Y-188346D01*
X-72089Y-186887D01*
X-73547Y-187947D01*
X-73730Y-188031D01*
X-83544Y-195161D01*
X-83887Y-195015D01*
X-84389Y-194539D01*
X-84276Y-194205D01*
X-84328Y-193411D01*
X-84328Y-193411D01*
X-85880Y-187616D01*
X-86223Y-186922D01*
X-86201Y-186768D01*
X-86004Y-185937D01*
X-85176Y-185641D01*
X-84105Y-186357D01*
X-82154Y-186744D01*
X-80203Y-186357D01*
X-78549Y-185251D01*
X-77444Y-183598D01*
X-77056Y-181647D01*
X-77444Y-179696D01*
X-78549Y-178042D01*
X-80203Y-176937D01*
X-82154Y-176549D01*
X-84105Y-176937D01*
X-85350Y-177768D01*
X-86096Y-177064D01*
X-85542Y-175728D01*
X-85319Y-174031D01*
X-85542Y-172334D01*
X-86197Y-170753D01*
X-87239Y-169395D01*
X-87797Y-168968D01*
X-91009Y-174531D01*
X-92741Y-173531D01*
X-89529Y-167968D01*
X-90178Y-167699D01*
X-91875Y-167475D01*
X-93572Y-167699D01*
X-100816Y-169640D01*
X-102397Y-170295D01*
X-103755Y-171337D01*
X-104655Y-172509D01*
X-105693Y-172470D01*
X-108516Y-160889D01*
X-107660Y-160179D01*
X-106400Y-160701D01*
X-104573Y-160942D01*
X-102746Y-160701D01*
X-101043Y-159996D01*
X-99580Y-158874D01*
X-99073Y-158211D01*
X-105073Y-154747D01*
X-104073Y-153015D01*
X-98073Y-156480D01*
X-97753Y-155709D01*
X-97513Y-153881D01*
X-97636Y-152947D01*
X-96744Y-152055D01*
X-96596Y-152075D01*
X-94769Y-151834D01*
X-93066Y-151129D01*
X-91603Y-150007D01*
X-90801Y-148961D01*
X-80045Y-150991D01*
Y-153000D01*
X-79865Y-154370D01*
X-79336Y-155648D01*
X-78494Y-156744D01*
X-77398Y-157586D01*
X-76121Y-158115D01*
X-74750Y-158295D01*
X-68250D01*
X-66880Y-158115D01*
X-65602Y-157586D01*
X-64506Y-156744D01*
X-63664Y-155648D01*
X-63135Y-154370D01*
X-62955Y-153000D01*
Y-146500D01*
X-63135Y-145129D01*
X-63664Y-143852D01*
X-64506Y-142756D01*
X-65602Y-141914D01*
X-66880Y-141385D01*
X-68250Y-141205D01*
X-74750D01*
X-76121Y-141385D01*
X-77398Y-141914D01*
X-78494Y-142756D01*
X-79336Y-143852D01*
X-79865Y-145129D01*
X-80072Y-145279D01*
X-89741Y-143455D01*
X-89776Y-143187D01*
X-90482Y-141484D01*
X-91603Y-140022D01*
X-93066Y-138900D01*
X-94462Y-138322D01*
X-94624Y-138042D01*
X-94767Y-137509D01*
X-94766Y-137186D01*
X-93846Y-135988D01*
X-93372Y-134843D01*
X-82141Y-134121D01*
X-81869Y-135134D01*
X-81518Y-135848D01*
X-80919Y-136373D01*
X-80166Y-136628D01*
X-79372Y-136576D01*
X-79372Y-136576D01*
X-76276Y-135747D01*
X-75261Y-136365D01*
X-75147Y-136938D01*
X-74042Y-138592D01*
X-72388Y-139697D01*
X-70437Y-140085D01*
X-68486Y-139697D01*
X-66832Y-138592D01*
X-65727Y-136938D01*
X-65339Y-134987D01*
X-65727Y-133036D01*
X-65693Y-132946D01*
X-59015Y-131171D01*
X-59655Y-128873D01*
X-61130Y-123366D01*
X-61263Y-123097D01*
X-62822Y-117499D01*
X-62828Y-117411D01*
X-62828Y-117411D01*
X-64380Y-111616D01*
X-64430Y-110573D01*
X-63890Y-109989D01*
X-63614Y-109242D01*
X-62866Y-104521D01*
X-61894Y-104285D01*
X-57764Y-109910D01*
D02*
G37*
G36*
X122235Y-148164D02*
X124494Y-153078D01*
X120827Y-157054D01*
X116278Y-156334D01*
X117686Y-147444D01*
X122235Y-148164D01*
D02*
G37*
G36*
X-19806Y-152119D02*
X-23430Y-158094D01*
X-31310Y-155932D01*
X-21248Y-151170D01*
X-19806Y-152119D01*
D02*
G37*
G36*
X81011Y-23808D02*
X81489Y-23713D01*
X86053Y-28616D01*
X85556Y-31752D01*
X85588Y-32547D01*
X85921Y-33270D01*
X86505Y-33810D01*
X87252Y-34085D01*
X93178Y-35024D01*
X93973Y-34992D01*
X94540Y-34731D01*
X94999Y-35155D01*
X95746Y-35431D01*
X101672Y-36369D01*
X102195Y-36349D01*
X103714Y-36603D01*
X104199Y-33449D01*
X104944Y-28748D01*
X104912Y-27953D01*
X104579Y-27230D01*
X104572Y-27224D01*
X105029Y-26284D01*
X106990Y-26595D01*
X107786Y-26563D01*
X108508Y-26230D01*
X109013Y-25684D01*
X109314Y-25688D01*
X109753Y-25758D01*
X110040Y-25847D01*
X110351Y-26522D01*
X110936Y-27062D01*
X111682Y-27338D01*
X114892Y-27846D01*
X115687Y-27815D01*
X116410Y-27482D01*
X116950Y-26898D01*
X117225Y-26151D01*
X117543Y-24146D01*
X118541Y-24094D01*
X121666Y-35803D01*
X121855Y-36187D01*
X122016Y-36583D01*
X122084Y-36653D01*
X122127Y-36740D01*
X122449Y-37022D01*
X122749Y-37327D01*
X122838Y-37365D01*
X122912Y-37429D01*
X123317Y-37567D01*
X123710Y-37734D01*
X124720Y-37943D01*
X124713Y-38962D01*
X123798Y-39138D01*
X122555Y-39742D01*
X121510Y-40647D01*
X120735Y-41792D01*
X120283Y-43098D01*
X118976Y-49465D01*
X118877Y-50844D01*
X119138Y-52202D01*
X119742Y-53445D01*
X119200Y-54347D01*
X117352Y-53965D01*
X116761Y-53960D01*
X116165Y-53955D01*
X116162Y-53956D01*
X116159Y-53956D01*
X115602Y-54182D01*
X115058Y-54401D01*
X115053Y-54404D01*
X115052Y-54404D01*
X115052Y-54404D01*
X109944Y-57747D01*
X109942Y-57749D01*
X109938Y-57751D01*
X109510Y-58172D01*
X109092Y-58583D01*
X109091Y-58586D01*
X109088Y-58588D01*
X108857Y-59134D01*
X108625Y-59681D01*
X108624Y-59684D01*
X108623Y-59687D01*
X107064Y-67229D01*
X63976Y-92950D01*
X63150Y-92387D01*
X63882Y-87942D01*
X63960Y-87732D01*
X68495Y-59814D01*
X68599Y-59702D01*
X68874Y-58955D01*
X69736Y-53513D01*
X70438Y-53624D01*
X71233Y-53593D01*
X71956Y-53260D01*
X72496Y-52676D01*
X72771Y-51929D01*
X73319Y-48472D01*
X73287Y-47677D01*
X73251Y-47599D01*
X73935Y-46694D01*
X84504Y-48358D01*
X85499Y-49847D01*
X87153Y-50952D01*
X89103Y-51340D01*
X91054Y-50952D01*
X92708Y-49847D01*
X93813Y-48193D01*
X94201Y-46242D01*
X93813Y-44291D01*
X92708Y-42637D01*
X91054Y-41532D01*
X89103Y-41144D01*
X87153Y-41532D01*
X85499Y-42637D01*
X85377Y-42819D01*
X72718Y-40826D01*
X71874Y-40608D01*
X71755Y-39729D01*
X71933Y-38616D01*
X74002Y-38944D01*
X74797Y-38912D01*
X75520Y-38579D01*
X76060Y-37995D01*
X76335Y-37248D01*
X77274Y-31322D01*
X77242Y-30527D01*
X76981Y-29960D01*
X77405Y-29501D01*
X77681Y-28754D01*
X78417Y-24102D01*
X79523Y-23512D01*
X81011Y-23808D01*
D02*
G37*
G36*
X43807Y-64102D02*
X43080Y-68690D01*
X43101Y-69222D01*
X47939Y-65707D01*
X49115Y-67325D01*
X44277Y-70840D01*
X44775Y-71024D01*
X50701Y-71962D01*
X51497Y-71931D01*
X52064Y-71669D01*
X52523Y-72094D01*
X53270Y-72369D01*
X53861Y-72463D01*
X54441Y-73277D01*
X53232Y-80074D01*
X27271Y-98198D01*
X26092Y-97963D01*
X24141Y-98351D01*
X22487Y-99457D01*
X21382Y-101110D01*
X20994Y-103061D01*
X21068Y-103432D01*
X19527Y-113299D01*
X-3547Y-109763D01*
X-4136Y-108955D01*
X-3592Y-105517D01*
X17673Y-82826D01*
X31012Y-84939D01*
X33183Y-84996D01*
X35295Y-84489D01*
X37204Y-83452D01*
X38780Y-81957D01*
X39915Y-80105D01*
X40532Y-78022D01*
X40589Y-75850D01*
X40082Y-73738D01*
X39045Y-71829D01*
X37550Y-70253D01*
X36286Y-69479D01*
X36244Y-68280D01*
X42885Y-63532D01*
X43807Y-64102D01*
D02*
G37*
G36*
X-78220Y-66715D02*
X-79114Y-72364D01*
X-79083Y-73159D01*
X-78750Y-73881D01*
X-78166Y-74421D01*
X-77419Y-74697D01*
X-71763Y-75592D01*
X-73521Y-87061D01*
X-73473Y-88154D01*
X-73010Y-89145D01*
X-66772Y-97642D01*
X-67292Y-98496D01*
X-80849Y-96348D01*
X-81380Y-96369D01*
X-77034Y-102351D01*
X-77842Y-102939D01*
X-77255Y-103748D01*
X-83237Y-108094D01*
X-82738Y-108278D01*
X-70699Y-110185D01*
X-70647Y-111184D01*
X-71708Y-111468D01*
X-71809Y-111518D01*
X-80127Y-113779D01*
X-80401Y-113797D01*
X-80401Y-113797D01*
X-81519Y-114097D01*
X-84374Y-111828D01*
X-84571Y-110841D01*
X-85676Y-109187D01*
X-86188Y-108845D01*
X-86995Y-105548D01*
X-87668Y-104106D01*
X-88841Y-103031D01*
X-112315Y-88790D01*
X-112165Y-87801D01*
X-99513Y-84646D01*
X-99496Y-84639D01*
X-99281Y-85095D01*
X-98692Y-85630D01*
X-97943Y-85899D01*
X-97149Y-85861D01*
X-89872Y-84046D01*
X-89152Y-83707D01*
X-88617Y-83118D01*
X-88348Y-82369D01*
X-88360Y-82116D01*
X-87048Y-81785D01*
X-86553Y-81550D01*
X-86064Y-81319D01*
X-86062Y-81317D01*
X-86060Y-81316D01*
X-85696Y-80913D01*
X-85329Y-80508D01*
X-85328Y-80506D01*
X-85327Y-80504D01*
X-85145Y-79991D01*
X-84961Y-79478D01*
X-84961Y-79475D01*
X-84960Y-79474D01*
X-84988Y-78920D01*
X-85015Y-78385D01*
X-85016Y-78381D01*
Y-78381D01*
X-85016Y-78381D01*
X-87568Y-68199D01*
X-78957Y-66040D01*
X-78220Y-66715D01*
D02*
G37*
G36*
X20189Y-153234D02*
X11996Y-158190D01*
X10226Y-154306D01*
X16693Y-148392D01*
X20189Y-153234D01*
D02*
G37*
G36*
X91395Y-164865D02*
X91395Y-164865D01*
X91488Y-164861D01*
X95550Y-165501D01*
X95849Y-165611D01*
X96536Y-165720D01*
X98060Y-170617D01*
X95199Y-171891D01*
Y-170753D01*
X95200Y-170743D01*
X95199Y-170701D01*
Y-170555D01*
X95193Y-170558D01*
X95147Y-169391D01*
X94581Y-168163D01*
X93588Y-167245D01*
X92319Y-166777D01*
X90967Y-166830D01*
X89739Y-167396D01*
X88821Y-168389D01*
X88353Y-169658D01*
X87613Y-174329D01*
X81016Y-173302D01*
X82558Y-163465D01*
X91395Y-164865D01*
D02*
G37*
G36*
X112044Y-147933D02*
X111908Y-148301D01*
X111047Y-153733D01*
X111106Y-155224D01*
X111730Y-156579D01*
X112826Y-157591D01*
X113697Y-157913D01*
X113120Y-161737D01*
X112995Y-162076D01*
X112057Y-168002D01*
X112081Y-168624D01*
X112008Y-169109D01*
X107889Y-173228D01*
X105273Y-172090D01*
Y-156850D01*
X105454Y-156361D01*
X106392Y-150435D01*
X106361Y-149640D01*
X106028Y-148917D01*
X105444Y-148377D01*
X104697Y-148102D01*
X102280Y-147719D01*
X97772Y-134461D01*
X106875D01*
X112044Y-147933D01*
D02*
G37*
G36*
X122872Y-188522D02*
X114198Y-190146D01*
X113707Y-188364D01*
X121604Y-184386D01*
X122872Y-188522D01*
D02*
G37*
G36*
X-3907Y-161943D02*
X-11121Y-160290D01*
X-6641Y-152619D01*
X-5240D01*
X-3907Y-161943D01*
D02*
G37*
G36*
X131576Y-149644D02*
X130356Y-157346D01*
X131953Y-157660D01*
X127326Y-168467D01*
X127709Y-158144D01*
X123296Y-157445D01*
X126963Y-153469D01*
X124704Y-148555D01*
X131576Y-149644D01*
D02*
G37*
G36*
X103041Y-171698D02*
X100465Y-171469D01*
X98228Y-163876D01*
X103041Y-158644D01*
Y-171698D01*
D02*
G37*
G36*
X-104982Y88339D02*
X-104651Y87275D01*
X-104784Y87149D01*
X-105506Y85970D01*
X-105899Y84645D01*
X-106915Y78225D01*
X-106952Y76843D01*
X-106629Y75499D01*
X-106451Y75170D01*
X-98555Y80907D01*
X-97967Y80098D01*
X-97158Y80686D01*
X-91421Y72790D01*
X-91150Y73047D01*
X-90428Y74226D01*
X-90035Y75551D01*
X-89018Y81971D01*
X-88982Y83353D01*
X-89305Y84697D01*
X-89392Y84858D01*
X-88748Y85768D01*
X-82265Y84741D01*
X-81934Y83677D01*
X-82067Y83551D01*
X-82789Y82372D01*
X-83182Y81047D01*
X-84199Y74627D01*
X-84235Y73245D01*
X-83912Y71901D01*
X-83252Y70686D01*
X-82301Y69683D01*
X-81122Y68961D01*
X-79797Y68568D01*
X-74290Y67696D01*
X-58393Y28049D01*
X-58960Y27201D01*
X-59348Y25250D01*
X-58960Y23299D01*
X-57855Y21645D01*
X-56201Y20540D01*
X-54250Y20152D01*
X-52299Y20540D01*
X-50645Y21645D01*
X-49540Y23299D01*
X-49188Y25069D01*
X-48838Y25564D01*
X-48458Y25944D01*
X-48250Y25902D01*
X-46299Y26290D01*
X-44645Y27395D01*
X-43540Y29049D01*
X-43152Y31000D01*
X-43540Y32951D01*
X-44645Y34605D01*
X-46299Y35710D01*
X-46310Y35712D01*
X-51671Y63284D01*
X-50977Y64004D01*
X-50660Y63953D01*
X-49278Y63917D01*
X-47934Y64240D01*
X-46719Y64900D01*
X-45716Y65851D01*
X-44994Y67030D01*
X-44601Y68355D01*
X-43585Y74775D01*
X-43548Y76157D01*
X-43871Y77501D01*
X-43958Y77662D01*
X-43315Y78572D01*
X-31667Y76727D01*
X-30315Y85267D01*
X-30137Y86241D01*
X-27808Y85872D01*
X-27474Y85749D01*
X-22536Y84967D01*
X-22181Y84981D01*
X-18425Y84386D01*
X-18091Y84263D01*
X-13153Y83481D01*
X-12798Y83495D01*
X-9042Y82900D01*
X-8708Y82777D01*
X-3770Y81995D01*
X-3415Y82009D01*
X2942Y81002D01*
X3005Y80866D01*
X3589Y80325D01*
X4335Y80050D01*
X15200Y78329D01*
X15995Y78361D01*
X16235Y78471D01*
X17140Y77789D01*
X16677Y74862D01*
X15607Y74493D01*
X15411Y74675D01*
X14665Y74950D01*
X3800Y76671D01*
X3005Y76639D01*
X2282Y76306D01*
X1742Y75722D01*
X1467Y74976D01*
X450Y68556D01*
X481Y67761D01*
X815Y67038D01*
X1399Y66498D01*
X2145Y66223D01*
X2120Y65214D01*
X1226Y59572D01*
X1258Y58777D01*
X1519Y58210D01*
X1095Y57751D01*
X820Y57004D01*
X-119Y51078D01*
X-98Y50547D01*
X4739Y54062D01*
X5327Y53253D01*
X6136Y53841D01*
X9651Y49003D01*
X9835Y49502D01*
X10774Y55428D01*
X10742Y56223D01*
X10481Y56790D01*
X10905Y57249D01*
X11180Y57996D01*
X12119Y63922D01*
X12808Y64534D01*
X13010Y64502D01*
X13805Y64533D01*
X14527Y64866D01*
X15067Y65450D01*
X15343Y66197D01*
X15583Y67715D01*
X19728Y67824D01*
X20176Y66836D01*
X20003Y66649D01*
X19727Y65902D01*
X19102Y61951D01*
X19133Y61156D01*
X19436Y60499D01*
X19461Y60404D01*
X19291Y59331D01*
X18751Y58747D01*
X18476Y58000D01*
X17850Y54050D01*
X17871Y53519D01*
X21565Y56202D01*
X22740Y54584D01*
X19047Y51901D01*
X19545Y51717D01*
X25471Y50778D01*
X26003Y50799D01*
X23319Y54493D01*
X24937Y55668D01*
X27621Y51975D01*
X27805Y52473D01*
X28430Y56424D01*
X28399Y57219D01*
X28096Y57876D01*
X28071Y57971D01*
X28114Y58247D01*
X28986Y58737D01*
X29227Y58637D01*
X29548Y58156D01*
X31202Y57051D01*
X33153Y56663D01*
X35104Y57051D01*
X36758Y58156D01*
X37863Y59810D01*
X38251Y61761D01*
X37863Y63712D01*
X36758Y65366D01*
X35104Y66471D01*
X33153Y66859D01*
X31202Y66471D01*
X30382Y65923D01*
X30342Y65920D01*
X29478Y66858D01*
X29492Y66945D01*
X30032Y67530D01*
X30308Y68276D01*
X30933Y72227D01*
X30902Y73022D01*
X30599Y73679D01*
X30574Y73774D01*
X30744Y74847D01*
X31284Y75431D01*
X31559Y76178D01*
X31736Y77296D01*
X32815Y77964D01*
X38741Y77025D01*
X39536Y77057D01*
X40258Y77390D01*
X40640Y77360D01*
X40884Y76995D01*
X42538Y75890D01*
X44157Y75567D01*
X44466Y74555D01*
X44178Y74345D01*
X44178Y74345D01*
X43470Y73578D01*
X43109Y72598D01*
Y72598D01*
X42617Y69473D01*
X42549Y69460D01*
X40895Y68355D01*
X39790Y66701D01*
X39402Y64750D01*
X39790Y62799D01*
X40895Y61145D01*
X42549Y60040D01*
X44096Y59732D01*
X44349Y58680D01*
X24019Y43882D01*
X-7986Y48923D01*
X-8574Y49731D01*
X-7528Y56327D01*
X-7042Y56346D01*
X-6319Y56679D01*
X-5779Y57264D01*
X-5504Y58010D01*
X-4331Y65418D01*
X-4362Y66213D01*
X-4695Y66935D01*
X-5279Y67475D01*
X-6026Y67751D01*
X-10964Y68533D01*
X-11759Y68502D01*
X-14646Y68946D01*
X-14662Y68962D01*
X-15409Y69237D01*
X-20347Y70019D01*
X-21142Y69988D01*
X-21210Y69956D01*
X-23974Y70382D01*
X-24045Y70448D01*
X-24792Y70723D01*
X-29730Y71505D01*
X-30525Y71474D01*
X-31248Y71141D01*
X-31788Y70557D01*
X-32063Y69810D01*
X-33237Y62403D01*
X-33205Y61607D01*
X-32872Y60885D01*
X-32288Y60345D01*
X-31940Y60216D01*
X-33249Y52881D01*
X-33540Y52927D01*
X-34335Y52896D01*
X-34903Y52635D01*
X-35361Y53059D01*
X-36108Y53334D01*
X-42034Y54273D01*
X-42565Y54252D01*
X-39050Y49414D01*
X-39859Y48826D01*
X-39272Y48017D01*
X-44109Y44502D01*
X-43611Y44318D01*
X-37685Y43380D01*
X-36890Y43411D01*
X-36322Y43673D01*
X-35863Y43249D01*
X-35117Y42973D01*
X-31354Y42377D01*
X-4679Y1997D01*
X-4710Y1951D01*
X-5098Y0D01*
X-4710Y-1951D01*
X-3605Y-3605D01*
X-1951Y-4710D01*
X0Y-5098D01*
X1951Y-4710D01*
X3605Y-3605D01*
X4710Y-1951D01*
X5098Y0D01*
X4710Y1951D01*
X3605Y3605D01*
X1951Y4710D01*
X0Y5098D01*
X-6Y5097D01*
X-23184Y40183D01*
X-22643Y41024D01*
X-18564Y40378D01*
X-17770Y40409D01*
X-17202Y40671D01*
X-16743Y40247D01*
X-15997Y39971D01*
X-10070Y39033D01*
X-9275Y39064D01*
X-8553Y39397D01*
X-8013Y39982D01*
X-7737Y40728D01*
X-7314Y43398D01*
X24282Y38422D01*
X24282Y38422D01*
X25325Y38464D01*
X26273Y38902D01*
X26274Y38902D01*
X38863Y48066D01*
X39706Y47527D01*
X39666Y47326D01*
X40054Y45375D01*
X41159Y43721D01*
X42713Y42682D01*
X42838Y42156D01*
X42870Y41585D01*
X41632Y40758D01*
X40527Y39104D01*
X40139Y37153D01*
X40527Y35202D01*
X41632Y33548D01*
X43286Y32443D01*
X45237Y32055D01*
X47188Y32443D01*
X48079Y33038D01*
X48999Y32450D01*
X48813Y31278D01*
X48844Y30483D01*
X49106Y29915D01*
X48682Y29456D01*
X48406Y28710D01*
X47468Y22784D01*
X47499Y21989D01*
X47832Y21266D01*
X48416Y20726D01*
X49163Y20451D01*
X52445Y19931D01*
X58696Y8373D01*
X58440Y7989D01*
X58052Y6038D01*
X58440Y4087D01*
X59545Y2433D01*
X60831Y1574D01*
X60964Y433D01*
X38937Y-15600D01*
X38937Y-15600D01*
X38228Y-16368D01*
X37868Y-17348D01*
Y-17348D01*
X35332Y-33452D01*
X35340Y-33669D01*
X35299Y-33881D01*
X35361Y-34186D01*
X35373Y-34495D01*
X35464Y-34692D01*
X35508Y-34905D01*
X35681Y-35162D01*
X35812Y-35443D01*
X35971Y-35591D01*
X36092Y-35770D01*
X45874Y-45457D01*
X45532Y-47615D01*
X45564Y-48410D01*
X45599Y-48487D01*
X44915Y-49391D01*
X43389Y-49151D01*
X42296Y-49195D01*
X41303Y-49654D01*
X35399Y-53951D01*
X33640Y-53601D01*
X31689Y-53990D01*
X30035Y-55095D01*
X28930Y-56748D01*
X28542Y-58699D01*
X28930Y-60650D01*
X30035Y-62304D01*
X30944Y-62911D01*
X30959Y-63911D01*
X26185Y-67325D01*
X11392Y-64982D01*
X9221Y-64925D01*
X7108Y-65432D01*
X5199Y-66468D01*
X3624Y-67964D01*
X2489Y-69816D01*
X1872Y-71899D01*
X1815Y-74070D01*
X2322Y-76182D01*
X3358Y-78092D01*
X4854Y-79667D01*
X6706Y-80802D01*
X8789Y-81419D01*
X9926Y-81599D01*
X10251Y-82545D01*
X-8091Y-102118D01*
X-11117Y-101639D01*
X-11912Y-101670D01*
X-12635Y-102003D01*
X-13175Y-102587D01*
X-13450Y-103334D01*
X-14209Y-108128D01*
X-35040Y-104936D01*
X-35443Y-104021D01*
X-35340Y-103867D01*
X-34952Y-101917D01*
X-35340Y-99966D01*
X-36445Y-98312D01*
X-36751Y-98107D01*
X-32063Y-67521D01*
X-31868Y-67379D01*
X-31073Y-67347D01*
X-30351Y-67014D01*
X-29811Y-66430D01*
X-29535Y-65684D01*
X-28597Y-59757D01*
X-28628Y-58962D01*
X-28890Y-58395D01*
X-28465Y-57936D01*
X-28190Y-57189D01*
X-27251Y-51263D01*
X-27283Y-50468D01*
X-27616Y-49746D01*
X-28200Y-49206D01*
X-28946Y-48930D01*
X-29271Y-48879D01*
X-28897Y-46509D01*
X-27264Y-45418D01*
X-26159Y-43764D01*
X-25771Y-41813D01*
X-26159Y-39862D01*
X-27264Y-38209D01*
X-28918Y-37104D01*
X-30869Y-36715D01*
X-32820Y-37104D01*
X-34474Y-38209D01*
X-34882Y-38819D01*
X-35943Y-38608D01*
X-36019Y-38228D01*
X-37124Y-36574D01*
X-38778Y-35469D01*
X-40729Y-35081D01*
X-42680Y-35469D01*
X-44334Y-36574D01*
X-44778Y-37239D01*
X-45840Y-37028D01*
X-45928Y-36588D01*
X-47033Y-34934D01*
X-48686Y-33829D01*
X-50637Y-33441D01*
X-52588Y-33829D01*
X-54242Y-34934D01*
X-55347Y-36588D01*
X-55735Y-38539D01*
X-55347Y-40490D01*
X-54242Y-42143D01*
X-53944Y-42343D01*
X-54277Y-44458D01*
X-54661Y-44737D01*
X-55309Y-44763D01*
X-55456Y-44768D01*
X-55457Y-44769D01*
X-56178Y-45101D01*
X-57479Y-44845D01*
X-57495Y-44811D01*
X-58080Y-44271D01*
X-58826Y-43995D01*
X-64752Y-43057D01*
X-65547Y-43088D01*
X-66270Y-43421D01*
X-67318Y-43260D01*
X-67902Y-42720D01*
X-68649Y-42445D01*
X-70527Y-42147D01*
X-73057Y-29868D01*
X-71952Y-28215D01*
X-71564Y-26264D01*
X-71952Y-24313D01*
X-73057Y-22659D01*
X-74711Y-21554D01*
X-76662Y-21166D01*
X-78613Y-21554D01*
X-80267Y-22659D01*
X-81372Y-24313D01*
X-81760Y-26264D01*
X-81372Y-28215D01*
X-80267Y-29869D01*
X-78613Y-30974D01*
X-78552Y-30986D01*
X-76270Y-42063D01*
X-76633Y-42455D01*
X-76908Y-43201D01*
X-77847Y-49127D01*
X-77815Y-49922D01*
X-77554Y-50490D01*
X-77978Y-50949D01*
X-78253Y-51695D01*
X-78726Y-54680D01*
X-96856Y-59226D01*
X-97845Y-59694D01*
X-98580Y-60504D01*
X-98948Y-61534D01*
X-98894Y-62627D01*
X-98850Y-62801D01*
X-99365Y-63659D01*
X-102490Y-64438D01*
X-103209Y-64777D01*
X-103744Y-65366D01*
X-104013Y-66115D01*
X-104007Y-66620D01*
X-120987Y-70854D01*
X-121004Y-70861D01*
X-121219Y-70405D01*
X-121808Y-69870D01*
X-122556Y-69601D01*
X-123351Y-69639D01*
X-124024Y-69233D01*
X-124743Y-66276D01*
X-124443Y-65945D01*
X-124174Y-65196D01*
X-124213Y-64401D01*
X-124967Y-61376D01*
X-124206Y-56588D01*
X-123719Y-55857D01*
X-123330Y-53906D01*
X-123581Y-52647D01*
X-122140Y-43569D01*
X-98482Y-47316D01*
X-97687Y-47285D01*
X-96964Y-46952D01*
X-96424Y-46368D01*
X-96149Y-45621D01*
X-90673Y-11052D01*
X-90704Y-10257D01*
X-91038Y-9535D01*
X-91622Y-8995D01*
X-92368Y-8719D01*
X-131876Y-2462D01*
X-132671Y-2493D01*
X-133393Y-2826D01*
X-133934Y-3410D01*
X-134209Y-4157D01*
X-139684Y-38726D01*
X-139653Y-39521D01*
X-139320Y-40244D01*
X-138736Y-40784D01*
X-137989Y-41059D01*
X-131902Y-42023D01*
X-131314Y-42832D01*
X-132645Y-51217D01*
X-133138Y-51955D01*
X-133526Y-53906D01*
X-133274Y-55176D01*
X-133803Y-58507D01*
X-133958Y-58546D01*
X-134677Y-58885D01*
X-135098Y-59348D01*
X-135686Y-59137D01*
X-136481Y-59175D01*
X-142302Y-60627D01*
X-142783Y-60853D01*
X-137657Y-63933D01*
X-138172Y-64790D01*
X-137315Y-65305D01*
X-140395Y-70431D01*
X-139864Y-70406D01*
X-134042Y-68954D01*
X-133570Y-68731D01*
X-132714Y-68973D01*
X-132443Y-69133D01*
X-131701Y-72182D01*
X-131883Y-72382D01*
X-132152Y-73131D01*
X-132114Y-73926D01*
X-131388Y-76837D01*
X-131049Y-77556D01*
X-130853Y-77734D01*
X-130942Y-77983D01*
X-130904Y-78777D01*
X-131838Y-78941D01*
X-134933Y-84093D01*
X-135790Y-83578D01*
X-136305Y-84435D01*
X-141431Y-81355D01*
X-141405Y-81886D01*
X-139954Y-87708D01*
X-139615Y-88427D01*
X-139152Y-88848D01*
X-139363Y-89436D01*
X-139325Y-90231D01*
X-137873Y-96052D01*
X-137534Y-96772D01*
X-136945Y-97307D01*
X-136196Y-97576D01*
X-135401Y-97537D01*
X-129580Y-96086D01*
X-128860Y-95747D01*
X-128325Y-95158D01*
X-128056Y-94409D01*
X-128095Y-93614D01*
X-128218Y-93120D01*
X-126623Y-92720D01*
X-126082Y-92914D01*
X-125287Y-92876D01*
X-122465Y-92173D01*
X-113078Y-97868D01*
X-113231Y-98944D01*
X-119322Y-100576D01*
X-120903Y-101231D01*
X-122261Y-102273D01*
X-122689Y-102830D01*
X-117125Y-106043D01*
X-117625Y-106909D01*
X-116759Y-107409D01*
X-119971Y-112972D01*
X-119322Y-113241D01*
X-117625Y-113465D01*
X-115928Y-113241D01*
X-108684Y-111300D01*
X-107102Y-110645D01*
X-105745Y-109603D01*
X-105317Y-109046D01*
X-110881Y-105834D01*
X-109881Y-104102D01*
X-104317Y-107314D01*
X-104048Y-106664D01*
X-103825Y-104968D01*
X-103886Y-104499D01*
X-103049Y-103952D01*
X-94516Y-109129D01*
X-94038Y-111081D01*
X-94378Y-112792D01*
X-93990Y-114743D01*
X-93127Y-116035D01*
X-93436Y-117140D01*
X-112335Y-121767D01*
X-112562Y-121873D01*
X-113130Y-121947D01*
X-114832Y-122653D01*
X-116295Y-123775D01*
X-117417Y-125237D01*
X-118122Y-126940D01*
X-118363Y-128767D01*
X-118122Y-130595D01*
X-117417Y-132297D01*
X-116295Y-133759D01*
X-114832Y-134882D01*
X-113436Y-135460D01*
X-113274Y-135739D01*
X-113131Y-136272D01*
X-113132Y-136595D01*
X-114052Y-137794D01*
X-114757Y-139497D01*
X-114998Y-141324D01*
X-114757Y-143152D01*
X-114052Y-144854D01*
X-112971Y-146263D01*
X-115682Y-152932D01*
X-115743Y-153252D01*
X-115855Y-153558D01*
X-115845Y-153784D01*
X-115888Y-154006D01*
X-115822Y-154326D01*
X-115808Y-154651D01*
X-106905Y-191177D01*
X-107444Y-191443D01*
X-107969Y-192041D01*
X-108224Y-192795D01*
X-108172Y-193589D01*
X-108172Y-193589D01*
X-106620Y-199384D01*
X-106268Y-200098D01*
X-105669Y-200623D01*
X-104916Y-200878D01*
X-104122Y-200826D01*
X-104122Y-200826D01*
X-99292Y-199532D01*
X-98579Y-199180D01*
X-98054Y-198582D01*
X-97798Y-197829D01*
X-97851Y-197035D01*
X-97851Y-197035D01*
X-98614Y-194187D01*
X-95604Y-190267D01*
X-94510Y-190484D01*
X-93097Y-195761D01*
X-92862Y-196238D01*
X-90225Y-191671D01*
X-88493Y-192671D01*
X-91130Y-197238D01*
X-90599Y-197203D01*
X-90599Y-197203D01*
X-86569Y-196123D01*
X-86131Y-197041D01*
X-102854Y-209191D01*
X-102991Y-209339D01*
X-104449Y-210398D01*
X-103390Y-211857D01*
X-103306Y-212039D01*
X-96840Y-220939D01*
X-96692Y-221075D01*
X-85168Y-236936D01*
X-85084Y-237119D01*
X-78618Y-246018D01*
X-78471Y-246154D01*
X-77411Y-247613D01*
X-75953Y-246553D01*
X-75770Y-246469D01*
X-46646Y-225309D01*
X-46509Y-225161D01*
X-45051Y-224102D01*
X-46110Y-222643D01*
X-46195Y-222461D01*
X-46761Y-221681D01*
X-8084Y-193078D01*
X-8084Y-193078D01*
X-7516Y-192530D01*
X-6947Y-191981D01*
X-6540Y-191304D01*
X-6133Y-190627D01*
X-5697Y-189109D01*
X-1863Y-163499D01*
X-1835Y-161919D01*
X-1890Y-161697D01*
X-1888Y-161655D01*
X-2446Y-157752D01*
X-1734Y-157051D01*
X-366Y-157267D01*
X430Y-157236D01*
X798Y-157066D01*
X3762Y-157571D01*
X4136Y-158586D01*
X3985Y-158749D01*
X3710Y-159496D01*
X2771Y-165422D01*
X2779Y-165627D01*
X2480Y-167404D01*
X4263Y-167680D01*
X4466Y-167755D01*
X9834Y-168605D01*
X10691Y-169572D01*
X2260Y-221480D01*
X-13012Y-219061D01*
X-15183Y-219004D01*
X-17295Y-219511D01*
X-19204Y-220548D01*
X-20780Y-222043D01*
X-21915Y-223895D01*
X-22532Y-225978D01*
X-22589Y-228150D01*
X-22082Y-230262D01*
X-22023Y-230370D01*
X-22418Y-231289D01*
X-24302Y-231793D01*
X-24582Y-231534D01*
X-25329Y-231259D01*
X-30267Y-230477D01*
X-31062Y-230508D01*
X-31785Y-230841D01*
X-32325Y-231425D01*
X-32600Y-232172D01*
X-33539Y-238098D01*
X-33508Y-238893D01*
X-33175Y-239616D01*
X-32590Y-240156D01*
X-31844Y-240431D01*
X-26905Y-241213D01*
X-26110Y-241182D01*
X-25388Y-240849D01*
X-24848Y-240265D01*
X-24572Y-239518D01*
X-24267Y-237590D01*
X-16019Y-235379D01*
X-15615Y-235499D01*
X6608Y-239018D01*
X8779Y-239075D01*
X10892Y-238568D01*
X12801Y-237532D01*
X14376Y-236036D01*
X15511Y-234184D01*
X16128Y-232101D01*
X16185Y-229930D01*
X15678Y-227817D01*
X14642Y-225909D01*
X13146Y-224333D01*
X11294Y-223198D01*
X9211Y-222581D01*
X8872Y-222111D01*
X14616Y-186742D01*
X15597Y-186548D01*
X31061Y-211632D01*
X31135Y-211712D01*
X31181Y-211811D01*
X31505Y-212110D01*
X31806Y-212433D01*
X31905Y-212479D01*
X31985Y-212553D01*
X32399Y-212705D01*
X32801Y-212889D01*
X32909Y-212893D01*
X33011Y-212931D01*
X48878Y-215431D01*
X49875Y-216924D01*
X51529Y-218029D01*
X53480Y-218417D01*
X55431Y-218029D01*
X57085Y-216924D01*
X57206Y-216743D01*
X70146Y-218782D01*
X70307Y-219002D01*
X70338Y-219797D01*
X70671Y-220520D01*
X71255Y-221060D01*
X72002Y-221335D01*
X77928Y-222274D01*
X78723Y-222243D01*
X79290Y-221981D01*
X79749Y-222405D01*
X80496Y-222680D01*
X86422Y-223619D01*
X87217Y-223588D01*
X87939Y-223255D01*
X88479Y-222670D01*
X88755Y-221924D01*
X89026Y-220213D01*
X89836Y-219627D01*
X92158Y-220006D01*
X93252Y-219968D01*
X94247Y-219515D01*
X106686Y-210566D01*
X106701Y-210551D01*
X106720Y-210542D01*
X107073Y-210152D01*
X107433Y-209766D01*
X107440Y-209746D01*
X107454Y-209731D01*
X107632Y-209234D01*
X107816Y-208742D01*
X107816Y-208721D01*
X107823Y-208701D01*
X108773Y-202281D01*
X109579Y-201690D01*
X111891Y-202056D01*
X113242Y-202003D01*
X114471Y-201436D01*
X115389Y-200443D01*
X115691Y-199624D01*
X116509Y-199121D01*
X116855Y-199092D01*
X118579Y-199435D01*
X120530Y-199047D01*
X122184Y-197942D01*
X123289Y-196288D01*
X123677Y-194337D01*
X123289Y-192386D01*
X122784Y-191631D01*
X123247Y-190527D01*
X123294Y-190508D01*
X123943Y-190488D01*
X125666Y-189712D01*
X126961Y-188336D01*
X127631Y-186569D01*
X130105Y-171805D01*
X130230Y-171670D01*
X130505Y-170924D01*
X131444Y-164998D01*
X131412Y-164203D01*
X131390Y-164156D01*
X132823Y-160810D01*
X133062Y-160801D01*
X134417Y-160176D01*
X135429Y-159080D01*
X135946Y-157681D01*
X136806Y-152249D01*
X136747Y-150758D01*
X136469Y-150155D01*
X137636Y-142807D01*
X137902Y-142796D01*
X138624Y-142463D01*
X139164Y-141879D01*
X139440Y-141132D01*
X145071Y-105576D01*
X145040Y-104781D01*
X144707Y-104058D01*
X144123Y-103518D01*
X143376Y-103243D01*
X135664Y-102021D01*
X131588Y-95194D01*
X131491Y-95087D01*
X131430Y-94955D01*
X131094Y-94647D01*
X130789Y-94309D01*
X130658Y-94246D01*
X130551Y-94148D01*
X130123Y-93992D01*
X129711Y-93796D01*
X129566Y-93789D01*
X129430Y-93739D01*
X128692Y-93625D01*
X128670Y-92610D01*
X129470Y-92451D01*
X131124Y-91346D01*
X132229Y-89692D01*
X132617Y-87741D01*
X132229Y-85790D01*
X131124Y-84136D01*
X129470Y-83031D01*
X127519Y-82643D01*
X125645Y-83016D01*
X125492Y-83001D01*
X124709Y-82506D01*
X125139Y-79576D01*
X126219Y-79653D01*
X127577Y-79392D01*
X128820Y-78788D01*
X129865Y-77883D01*
X130640Y-76738D01*
X131093Y-75432D01*
X132400Y-69065D01*
X132498Y-67686D01*
X132237Y-66329D01*
X131633Y-65085D01*
X130728Y-64040D01*
X130638Y-63980D01*
X131035Y-63040D01*
X134199Y-63695D01*
X134635Y-63698D01*
X135069Y-63748D01*
X135227Y-63702D01*
X135392Y-63703D01*
X135797Y-63540D01*
X136216Y-63420D01*
X143788Y-59528D01*
X144322Y-59890D01*
X145628Y-60342D01*
X151996Y-61649D01*
X153374Y-61748D01*
X154732Y-61487D01*
X155975Y-60883D01*
X157020Y-59978D01*
X157795Y-58833D01*
X158247Y-57527D01*
X159555Y-51160D01*
X159653Y-49781D01*
X159392Y-48423D01*
X158788Y-47180D01*
X157883Y-46135D01*
X156738Y-45360D01*
X155432Y-44908D01*
X149065Y-43601D01*
X147744Y-43506D01*
X147374Y-43093D01*
X147096Y-42676D01*
X147176Y-42556D01*
X147564Y-40605D01*
X147176Y-38654D01*
X146071Y-37001D01*
X144755Y-36121D01*
X144730Y-35016D01*
X146231Y-34265D01*
X147098Y-34560D01*
X148003Y-35605D01*
X149148Y-36380D01*
X150454Y-36832D01*
X156821Y-38139D01*
X158200Y-38238D01*
X159558Y-37977D01*
X160801Y-37373D01*
X161846Y-36468D01*
X162621Y-35323D01*
X163073Y-34017D01*
X164380Y-27650D01*
X164479Y-26271D01*
X164218Y-24913D01*
X163614Y-23670D01*
X162709Y-22625D01*
X161564Y-21850D01*
X160258Y-21398D01*
X153891Y-20091D01*
X152512Y-19992D01*
X151154Y-20253D01*
X149911Y-20857D01*
X148866Y-21762D01*
X148091Y-22907D01*
X147639Y-24213D01*
X146869Y-27961D01*
X141097Y-30847D01*
X140286Y-30135D01*
X140543Y-29392D01*
X141850Y-23025D01*
X141949Y-21646D01*
X141688Y-20289D01*
X141084Y-19045D01*
X141023Y-18975D01*
X141557Y-18064D01*
X143100Y-18383D01*
X143610Y-18387D01*
X144115Y-18445D01*
X144300Y-18392D01*
X144493Y-18393D01*
X144965Y-18202D01*
X145454Y-18062D01*
X153720Y-13814D01*
X153773Y-13850D01*
X155079Y-14302D01*
X161446Y-15609D01*
X162825Y-15708D01*
X164182Y-15446D01*
X165426Y-14843D01*
X166471Y-13938D01*
X167246Y-12793D01*
X167698Y-11487D01*
X169005Y-5119D01*
X169104Y-3741D01*
X168843Y-2383D01*
X168239Y-1140D01*
X167334Y-95D01*
X166189Y680D01*
X164883Y1133D01*
X158516Y2439D01*
X157137Y2538D01*
X155779Y2277D01*
X154536Y1673D01*
X153491Y768D01*
X152793Y-263D01*
X152290Y-405D01*
X151632Y-450D01*
X150128Y556D01*
X148177Y944D01*
X147502Y809D01*
X146433Y1617D01*
X146312Y2242D01*
X145709Y3485D01*
X144803Y4530D01*
X143659Y5305D01*
X142353Y5757D01*
X136442Y6970D01*
X136446Y7991D01*
X137951Y8290D01*
X139605Y9395D01*
X140710Y11049D01*
X141098Y13000D01*
X140710Y14951D01*
X139605Y16605D01*
X137951Y17710D01*
X136000Y18098D01*
X134902Y17880D01*
X134022Y18724D01*
X134355Y20840D01*
X134355Y20840D01*
X134313Y21883D01*
X134037Y22480D01*
X134609Y23383D01*
X134631Y23399D01*
X150529Y20881D01*
X150899Y19952D01*
X150221Y19068D01*
X149209Y16624D01*
X148863Y14000D01*
X149209Y11376D01*
X150221Y8932D01*
X151832Y6832D01*
X153932Y5221D01*
X156376Y4209D01*
X159000Y3863D01*
X161624Y4209D01*
X164068Y5221D01*
X166168Y6832D01*
X167779Y8932D01*
X168791Y11376D01*
X169137Y14000D01*
X168791Y16624D01*
X168573Y17150D01*
X169188Y17939D01*
X175927Y16953D01*
X176513Y16143D01*
X173826Y743D01*
X164927Y-44644D01*
X155040Y-89801D01*
X144194Y-134611D01*
X132390Y-179084D01*
X129597Y-187157D01*
X125845Y-194758D01*
X121171Y-201829D01*
X115649Y-208261D01*
X109367Y-213951D01*
X102422Y-218811D01*
X94923Y-222764D01*
X86927Y-225770D01*
X74991Y-229283D01*
X62915Y-232557D01*
X41448Y-237706D01*
X19734Y-242069D01*
X-2162Y-245630D01*
X-26619Y-248635D01*
X-51013Y-250622D01*
X-75313Y-251599D01*
X-80707Y-251154D01*
X-85799Y-249657D01*
X-90483Y-247162D01*
X-94566Y-243770D01*
X-97879Y-239623D01*
X-100338Y-234786D01*
X-106099Y-219456D01*
X-111621Y-203914D01*
X-120948Y-175359D01*
X-128453Y-149606D01*
X-135142Y-123718D01*
X-141606Y-94866D01*
X-147059Y-65907D01*
X-151505Y-36830D01*
X-154647Y-10557D01*
X-156976Y15840D01*
X-158490Y42359D01*
X-159187Y69006D01*
X-159064Y95776D01*
X-159051Y96145D01*
X-158278Y96781D01*
X-104982Y88339D01*
D02*
G37*
G36*
X-1769Y188067D02*
X-649Y187654D01*
X543Y187701D01*
X1449Y188118D01*
X2182Y187441D01*
X3302Y187028D01*
X4494Y187075D01*
X5400Y187492D01*
X6133Y186815D01*
X7252Y186402D01*
X8445Y186449D01*
X9351Y186867D01*
X10083Y186189D01*
X11203Y185776D01*
X12396Y185823D01*
X13302Y186241D01*
X14034Y185564D01*
X14708Y185315D01*
X14736Y184597D01*
X15154Y183692D01*
X14477Y182959D01*
X14064Y181839D01*
X14110Y180647D01*
X14528Y179741D01*
X13851Y179008D01*
X13438Y177888D01*
X13485Y176696D01*
X13902Y175790D01*
X13225Y175057D01*
X12812Y173938D01*
X12859Y172745D01*
X13277Y171839D01*
X12600Y171107D01*
X12186Y169987D01*
X12233Y168794D01*
X12651Y167888D01*
X11974Y167156D01*
X11725Y166482D01*
X11007Y166454D01*
X10101Y166036D01*
X9369Y166713D01*
X8249Y167126D01*
X7057Y167080D01*
X6151Y166662D01*
X5418Y167339D01*
X4298Y167752D01*
X3106Y167705D01*
X2200Y167288D01*
X1467Y167965D01*
X348Y168378D01*
X-845Y168331D01*
X-1751Y167913D01*
X-2483Y168591D01*
X-3603Y169004D01*
X-4796Y168957D01*
X-5702Y168539D01*
X-6434Y169216D01*
X-7108Y169465D01*
X-7136Y170183D01*
X-7554Y171089D01*
X-6877Y171821D01*
X-6464Y172941D01*
X-6510Y174133D01*
X-6928Y175039D01*
X-6251Y175772D01*
X-5838Y176891D01*
X-5885Y178084D01*
X-6302Y178990D01*
X-5625Y179723D01*
X-5212Y180842D01*
X-5259Y182035D01*
X-5677Y182941D01*
X-4999Y183673D01*
X-4586Y184793D01*
X-4633Y185986D01*
X-5051Y186892D01*
X-4374Y187624D01*
X-4125Y188298D01*
X-3407Y188326D01*
X-2501Y188744D01*
X-1769Y188067D01*
D02*
G37*
G36*
X19042Y161754D02*
X20234Y161801D01*
X20484Y161917D01*
X55504Y156402D01*
X58140Y152781D01*
X57895Y151228D01*
X57086Y150640D01*
X54515Y151048D01*
X53720Y151016D01*
X53063Y150713D01*
X52967Y150688D01*
X51895Y150858D01*
X51310Y151398D01*
X50564Y151673D01*
X46613Y152299D01*
X45818Y152268D01*
X45096Y151935D01*
X44861Y151680D01*
X44443Y151385D01*
X43520Y151840D01*
X39734Y149089D01*
X38558Y150708D01*
X42252Y153391D01*
X41753Y153575D01*
X35827Y154514D01*
X35296Y154493D01*
X37979Y150799D01*
X36361Y149623D01*
X33678Y153317D01*
X33494Y152819D01*
X32868Y148868D01*
X32899Y148073D01*
X33202Y147416D01*
X33228Y147320D01*
X33058Y146248D01*
X32518Y145663D01*
X32242Y144917D01*
X31616Y140966D01*
X31648Y140171D01*
X31951Y139514D01*
X31976Y139419D01*
X31806Y138346D01*
X31266Y137762D01*
X30991Y137016D01*
X30365Y133065D01*
X30396Y132270D01*
X30699Y131613D01*
X30725Y131517D01*
X30555Y130445D01*
X30428Y130308D01*
X22048Y128881D01*
X21670Y129229D01*
X20924Y129505D01*
X20465Y129578D01*
X20139Y131294D01*
X20688Y132116D01*
X21076Y134067D01*
X20688Y136018D01*
X19583Y137672D01*
X17929Y138777D01*
X15978Y139165D01*
X15898Y139149D01*
X15685Y140121D01*
X16332Y141045D01*
X17157Y141180D01*
X17249Y141095D01*
X17996Y140820D01*
X23922Y139881D01*
X24453Y139902D01*
X20938Y144740D01*
X21747Y145327D01*
X21159Y146136D01*
X25997Y149651D01*
X25498Y149835D01*
X19572Y150774D01*
X18777Y150743D01*
X18210Y150481D01*
X17751Y150905D01*
X17004Y151180D01*
X15706Y151386D01*
X14420Y160963D01*
X14655Y162449D01*
X19042Y161754D01*
D02*
G37*
G36*
X92795Y172468D02*
X128502Y160314D01*
X125550Y139781D01*
X124833Y139753D01*
X124111Y139420D01*
X123571Y138836D01*
X123295Y138089D01*
X122363Y132202D01*
X122352Y132159D01*
X121388Y131344D01*
X120270Y131521D01*
X119475Y131490D01*
X118817Y131187D01*
X118722Y131161D01*
X117650Y131331D01*
X117065Y131871D01*
X116319Y132147D01*
X115201Y132324D01*
X114532Y133402D01*
X115471Y139328D01*
X115440Y140123D01*
X115107Y140846D01*
X114522Y141386D01*
X114419Y141424D01*
X116296Y153343D01*
X117931Y154436D01*
X119036Y156090D01*
X119424Y158041D01*
X119036Y159992D01*
X117931Y161646D01*
X116277Y162751D01*
X114326Y163139D01*
X112375Y162751D01*
X110722Y161646D01*
X109616Y159992D01*
X109487Y159338D01*
X108020Y159630D01*
X108090Y159984D01*
X107702Y161935D01*
X106597Y163589D01*
X104943Y164694D01*
X102992Y165082D01*
X101041Y164694D01*
X99388Y163589D01*
X98362Y162053D01*
X97697Y162127D01*
X97371Y162234D01*
X97025Y163973D01*
X95920Y165627D01*
X94266Y166732D01*
X92315Y167120D01*
X90365Y166732D01*
X88711Y165627D01*
X87778Y164231D01*
X86747Y164394D01*
X86420Y166041D01*
X85315Y167695D01*
X83661Y168800D01*
X81710Y169188D01*
X79759Y168800D01*
X78105Y167695D01*
X77000Y166041D01*
X76812Y165097D01*
X75450Y165368D01*
X73677Y165015D01*
X73353Y165082D01*
X72623Y165597D01*
X72310Y167170D01*
X71205Y168824D01*
X69551Y169929D01*
X67600Y170317D01*
X65649Y169929D01*
X63995Y168824D01*
X62890Y167170D01*
X62502Y165219D01*
X62640Y164524D01*
X61702Y164113D01*
X55055Y173245D01*
X55055Y173245D01*
X54288Y173953D01*
X53308Y174314D01*
X53308D01*
X39625Y176469D01*
X39037Y177278D01*
X39524Y180353D01*
X40334Y180940D01*
X92795Y172468D01*
D02*
G37*
G36*
X-5620Y207054D02*
X28999Y197540D01*
X63415Y187229D01*
X101364Y174854D01*
X138897Y161550D01*
X151589Y156685D01*
X148343Y136187D01*
X144394Y136812D01*
X144023Y136798D01*
X142404Y137069D01*
X142134Y135313D01*
X142061Y135117D01*
X141123Y129191D01*
X141128Y129043D01*
X140162Y128341D01*
X140023Y128392D01*
X138905Y128569D01*
X138237Y129648D01*
X139176Y135574D01*
X139144Y136369D01*
X138811Y137092D01*
X138227Y137632D01*
X137480Y137907D01*
X133530Y138533D01*
X132735Y138502D01*
X132078Y138199D01*
X131982Y138173D01*
X130910Y138343D01*
X130325Y138883D01*
X129579Y139158D01*
X127577Y139476D01*
X127568Y139491D01*
X130521Y160024D01*
X130509Y160236D01*
X130537Y160446D01*
X130488Y160629D01*
X130478Y160818D01*
X130387Y161010D01*
X130332Y161215D01*
X130217Y161365D01*
X130135Y161536D01*
X129977Y161678D01*
X129848Y161846D01*
X129684Y161941D01*
X129543Y162068D01*
X129343Y162138D01*
X129159Y162244D01*
X93452Y174398D01*
X93281Y174421D01*
X93120Y174481D01*
X40659Y182953D01*
X40658Y182953D01*
X40656Y182953D01*
X40526Y182948D01*
X40105Y183492D01*
X40086Y183525D01*
X39971Y183928D01*
X40181Y184496D01*
X41119Y190422D01*
X41098Y190953D01*
X36260Y187438D01*
X35673Y188247D01*
X34864Y187659D01*
X31349Y192497D01*
X31165Y191998D01*
X30226Y186072D01*
X30257Y185277D01*
X30519Y184710D01*
X30095Y184251D01*
X29820Y183504D01*
X29663Y182519D01*
X26130Y183058D01*
X25622Y183920D01*
X25670Y184051D01*
X25623Y185243D01*
X25124Y186327D01*
X24247Y187137D01*
X23127Y187550D01*
X18741Y188245D01*
X19436Y192632D01*
X19389Y193824D01*
X18889Y194908D01*
X18013Y195718D01*
X16893Y196131D01*
X15701Y196084D01*
X14794Y195667D01*
X14062Y196344D01*
X12942Y196757D01*
X11750Y196710D01*
X10844Y196293D01*
X10111Y196970D01*
X8992Y197383D01*
X7799Y197336D01*
X6893Y196918D01*
X6160Y197595D01*
X5041Y198008D01*
X3848Y197962D01*
X2942Y197544D01*
X2210Y198221D01*
X1090Y198634D01*
X-103Y198587D01*
X-1009Y198170D01*
X-1741Y198847D01*
X-2861Y199260D01*
X-4053Y199213D01*
X-5137Y198713D01*
X-5216Y198629D01*
X-6212Y198707D01*
X-6327Y198878D01*
X-7981Y199983D01*
X-9932Y200371D01*
X-11081Y200143D01*
X-11337Y201427D01*
X-11805Y202129D01*
X-10935Y207624D01*
X-10101Y208176D01*
X-5620Y207054D01*
D02*
G37*
%LPC*%
G36*
X-11197Y-121322D02*
X-15226Y-124249D01*
X-14727Y-124433D01*
X-8801Y-125372D01*
X-8270Y-125351D01*
X-11197Y-121322D01*
D02*
G37*
G36*
X-82998Y-97545D02*
X-83182Y-98043D01*
X-84433Y-105945D01*
X-84412Y-106476D01*
X-79239Y-102718D01*
X-82998Y-97545D01*
D02*
G37*
G36*
X-37482Y-230871D02*
X-41511Y-233798D01*
X-38584Y-237827D01*
X-38400Y-237328D01*
X-37461Y-231402D01*
X-37482Y-230871D01*
D02*
G37*
G36*
X-42713Y-235546D02*
X-46170Y-238057D01*
X-45671Y-238241D01*
X-40733Y-239023D01*
X-40202Y-239002D01*
X-42713Y-235546D01*
D02*
G37*
G36*
X-98188Y78701D02*
X-105275Y73552D01*
X-105018Y73281D01*
X-103839Y72559D01*
X-102514Y72166D01*
X-96094Y71150D01*
X-94712Y71113D01*
X-93368Y71436D01*
X-93039Y71614D01*
X-98188Y78701D01*
D02*
G37*
G36*
X-143984Y91316D02*
X-145935Y90928D01*
X-147589Y89823D01*
X-148243Y88844D01*
X-149409Y89623D01*
X-151360Y90011D01*
X-153311Y89623D01*
X-154965Y88518D01*
X-156070Y86864D01*
X-156458Y84913D01*
X-156070Y82962D01*
X-154965Y81308D01*
X-153311Y80203D01*
X-151360Y79815D01*
X-149409Y80203D01*
X-147755Y81308D01*
X-147101Y82287D01*
X-146153Y81654D01*
X-146106Y80845D01*
X-146180Y80561D01*
X-148068Y79779D01*
X-150168Y78168D01*
X-151779Y76068D01*
X-152791Y73624D01*
X-153137Y71000D01*
X-152791Y68376D01*
X-151779Y65932D01*
X-150168Y63832D01*
X-148068Y62221D01*
X-145624Y61209D01*
X-143000Y60863D01*
X-140376Y61209D01*
X-137932Y62221D01*
X-135832Y63832D01*
X-134221Y65932D01*
X-133209Y68376D01*
X-132863Y71000D01*
X-133209Y73624D01*
X-134221Y76068D01*
X-135832Y78168D01*
X-137932Y79779D01*
X-140376Y80791D01*
X-141153Y80893D01*
X-141395Y81934D01*
X-140379Y82613D01*
X-139274Y84267D01*
X-138886Y86218D01*
X-139274Y88169D01*
X-140379Y89823D01*
X-142033Y90928D01*
X-143984Y91316D01*
D02*
G37*
G36*
X-44590Y-228357D02*
X-42114Y-231764D01*
X-38658Y-229253D01*
X-39156Y-229069D01*
X-44590Y-228357D01*
D02*
G37*
G36*
X30000Y-213863D02*
X27376Y-214209D01*
X24932Y-215221D01*
X22832Y-216832D01*
X21221Y-218932D01*
X20209Y-221376D01*
X19863Y-224000D01*
X20209Y-226624D01*
X21221Y-229068D01*
X22832Y-231168D01*
X24932Y-232779D01*
X27376Y-233791D01*
X30000Y-234137D01*
X32624Y-233791D01*
X35068Y-232779D01*
X37168Y-231168D01*
X38779Y-229068D01*
X39791Y-226624D01*
X40137Y-224000D01*
X39791Y-221376D01*
X38779Y-218932D01*
X37168Y-216832D01*
X35068Y-215221D01*
X32624Y-214209D01*
X30000Y-213863D01*
D02*
G37*
G36*
X-46244Y-229483D02*
X-46428Y-229982D01*
X-47366Y-235908D01*
X-47346Y-236439D01*
X-43317Y-233512D01*
X-46244Y-229483D01*
D02*
G37*
G36*
X-42336Y-233161D02*
X-42908Y-233577D01*
X-42492Y-234149D01*
X-41920Y-233733D01*
X-42336Y-233161D01*
D02*
G37*
G36*
X-133568Y-77937D02*
X-134099Y-77962D01*
X-139920Y-79414D01*
X-140401Y-79641D01*
X-136132Y-82205D01*
X-133568Y-77937D01*
D02*
G37*
G36*
X154604Y-70617D02*
X147291Y-75439D01*
X152113Y-82753D01*
X152395Y-82508D01*
X153170Y-81363D01*
X153623Y-80057D01*
X154930Y-73690D01*
X155028Y-72311D01*
X154767Y-70953D01*
X154604Y-70617D01*
D02*
G37*
G36*
X145621Y-76540D02*
X138308Y-81362D01*
X138553Y-81645D01*
X139697Y-82420D01*
X141004Y-82872D01*
X147371Y-84179D01*
X148750Y-84278D01*
X150107Y-84017D01*
X150443Y-83854D01*
X145621Y-76540D01*
D02*
G37*
G36*
X139698Y-67558D02*
X139416Y-67802D01*
X138640Y-68947D01*
X138188Y-70253D01*
X136881Y-76620D01*
X136782Y-77999D01*
X137044Y-79357D01*
X137207Y-79693D01*
X144520Y-74871D01*
X139698Y-67558D01*
D02*
G37*
G36*
X-81308Y48740D02*
X-101927Y33760D01*
X-86946Y13141D01*
X-86762Y13640D01*
X-81287Y48209D01*
X-81308Y48740D01*
D02*
G37*
G36*
X-143813Y-62568D02*
X-143787Y-63099D01*
X-142336Y-68920D01*
X-142109Y-69401D01*
X-139544Y-65132D01*
X-143813Y-62568D01*
D02*
G37*
G36*
X143061Y-66032D02*
X141704Y-66293D01*
X141368Y-66457D01*
X146190Y-73770D01*
X153503Y-68948D01*
X153258Y-68665D01*
X152114Y-67890D01*
X150807Y-67438D01*
X144440Y-66131D01*
X143061Y-66032D01*
D02*
G37*
G36*
X-44183Y53076D02*
X-44367Y52578D01*
X-45306Y46652D01*
X-45285Y46121D01*
X-41256Y49047D01*
X-44183Y53076D01*
D02*
G37*
G36*
X5106Y51856D02*
X1077Y48929D01*
X1576Y48745D01*
X7502Y47807D01*
X8033Y47827D01*
X5106Y51856D01*
D02*
G37*
G36*
X-123689Y-104563D02*
X-123958Y-105212D01*
X-124181Y-106909D01*
X-123958Y-108606D01*
X-123303Y-110187D01*
X-122261Y-111545D01*
X-121703Y-111972D01*
X-118991Y-107275D01*
X-123689Y-104563D01*
D02*
G37*
G36*
X-122490Y56799D02*
X-123021Y56778D01*
X-107453Y35351D01*
X-109071Y34175D01*
X-124639Y55603D01*
X-124823Y55104D01*
X-130298Y20535D01*
X-130295Y20462D01*
X-130393Y19841D01*
X-130428Y19746D01*
X-130759Y17657D01*
X-132117Y16750D01*
X-133223Y15096D01*
X-133610Y13145D01*
X-133223Y11194D01*
X-132117Y9540D01*
X-130463Y8435D01*
X-128513Y8047D01*
X-126562Y8435D01*
X-124908Y9540D01*
X-123803Y11194D01*
X-123415Y13145D01*
X-123803Y15096D01*
X-124747Y16509D01*
X-124580Y17565D01*
X-89095Y11945D01*
X-88564Y11966D01*
X-104132Y33393D01*
X-103323Y33981D01*
X-103911Y34790D01*
X-82484Y50358D01*
X-82982Y50542D01*
X-122490Y56799D01*
D02*
G37*
G36*
X143055Y-85046D02*
X141104Y-85434D01*
X139450Y-86539D01*
X138345Y-88193D01*
X137957Y-90144D01*
X138345Y-92095D01*
X139450Y-93749D01*
X141104Y-94854D01*
X143055Y-95242D01*
X145006Y-94854D01*
X146660Y-93749D01*
X147765Y-92095D01*
X148153Y-90144D01*
X147765Y-88193D01*
X146660Y-86539D01*
X145006Y-85434D01*
X143055Y-85046D01*
D02*
G37*
G36*
X27173Y148033D02*
X23144Y145106D01*
X26071Y141077D01*
X26255Y141576D01*
X27194Y147502D01*
X27173Y148033D01*
D02*
G37*
G36*
X33498Y193694D02*
X32967Y193673D01*
X35894Y189644D01*
X39923Y192571D01*
X39424Y192755D01*
X33498Y193694D01*
D02*
G37*
%LPD*%
D14*
X30000Y-224000D02*
D03*
X-143000Y71000D02*
D03*
X159000Y14000D02*
D03*
X-107938Y-141324D02*
D03*
X-104573Y-153881D02*
D03*
X-111302Y-128767D02*
D03*
X-99961Y-132457D02*
D03*
X-96596Y-145014D02*
D03*
D16*
X41365Y165791D02*
X49163Y164563D01*
X124252Y-35113D02*
X134368Y-37204D01*
X154364Y-26602D02*
X158357Y-25026D01*
X107103Y35020D02*
X110303Y30623D01*
X51427Y-31609D02*
X51698Y-31982D01*
X101164Y31856D02*
X104769Y54749D01*
X101164Y31856D02*
X102168Y30476D01*
X104188Y33462D02*
X106290Y30574D01*
X107103Y35020D02*
X110369Y55761D01*
X107103Y35020D02*
Y35020D01*
X-32698Y-53438D02*
X-30867Y-41814D01*
X-42558Y-51804D02*
X-40727Y-40179D01*
X-52466Y-50163D02*
X-50635Y-38539D01*
X53366Y-30028D02*
X57378Y-27107D01*
X60525Y-7129D01*
X37975Y-33868D02*
X40512Y-17764D01*
X37975Y-33868D02*
X50931Y-46698D01*
X44486Y80597D02*
X44486Y80597D01*
X44486Y80597D01*
X54299Y70465D02*
X67072Y79762D01*
X54229Y70414D02*
X54299Y70465D01*
X64392Y94884D02*
X65546Y102211D01*
X59726Y110207D02*
X65546Y102211D01*
X67072Y79762D02*
X71422Y107385D01*
X50566Y107608D02*
X57882Y97557D01*
X46647Y104168D02*
X51072Y98089D01*
X43156Y100676D02*
X52686Y87583D01*
X49170Y146793D02*
Y146793D01*
X47147Y133946D02*
X68463Y104662D01*
X52415Y133498D02*
X71422Y107385D01*
X-10436Y46599D02*
X24698Y41066D01*
X58170Y65430D01*
X73902Y62952D01*
X78118Y57160D01*
X40512Y-17764D02*
X78807Y10111D01*
X51767Y-32076D02*
X51899Y-32207D01*
X51726Y-32035D02*
X51767Y-32076D01*
X51669Y-31920D02*
X51698Y-31982D01*
X51711Y-32008D01*
X51698Y-31982D02*
X51725Y-32018D01*
X51767Y-32076D01*
X51792Y-32111D01*
X51826Y-32157D01*
X60525Y-7129D02*
X82672Y8992D01*
X78807Y10111D02*
X86020Y55909D01*
X82672Y8992D02*
X88562Y46394D01*
X51649Y-31981D02*
X51652Y-31985D01*
X51826Y-32157D02*
X58776Y-39040D01*
X51711Y-32008D02*
X51722Y-32031D01*
X110379Y64390D02*
X116046Y100377D01*
X97173Y126306D02*
X116046Y100377D01*
X102507Y66562D02*
X110369Y55761D01*
X100968Y64246D02*
X107601Y55134D01*
X99554Y61914D02*
X104769Y54749D01*
X98006Y59625D02*
X101919Y54248D01*
X73486Y78745D02*
X83948Y64371D01*
X69589Y79664D02*
X79406Y142003D01*
X69589Y79664D02*
X82385Y62085D01*
X113654Y68642D02*
X119111Y61146D01*
X101082Y125366D02*
X103111Y138249D01*
X114310Y-21133D02*
X116389Y-7929D01*
X84647Y72428D02*
X95209Y139500D01*
X97173Y126306D02*
X97752Y129985D01*
X87591Y116887D02*
X89851Y131237D01*
X73486Y78745D02*
X81949Y132488D01*
X104452Y18902D02*
X106290Y30574D01*
X106409Y-19882D02*
X108542Y-6335D01*
X116452Y69075D02*
X126815Y134494D01*
X123664Y63468D02*
X134717Y133243D01*
X80732Y73333D02*
X85582Y66669D01*
X80732Y73333D02*
X89851Y131237D01*
X84647Y72428D02*
X87156Y68980D01*
X102507Y66562D01*
X85582Y66669D02*
X100968Y64246D01*
X83948Y64371D02*
X99554Y61914D01*
X82385Y62085D02*
X98006Y59625D01*
X96550Y20153D02*
X101919Y54248D01*
X104188Y33462D02*
X107601Y55134D01*
X118762Y101076D02*
X118843Y100965D01*
X113654Y68642D02*
X118762Y101076D01*
X101082Y125366D02*
X118762Y101076D01*
X28146Y86843D02*
X41467Y84745D01*
X44486Y80598D02*
X44486Y80597D01*
X30649Y102646D02*
X43156Y100676D01*
X40164Y105189D02*
X46647Y104168D01*
X31901Y110547D02*
X50566Y107608D01*
X41416Y113090D02*
X59726Y110207D01*
X63603Y144506D02*
X65215Y154740D01*
X18928Y177019D02*
X52891Y171670D01*
X65215Y154740D01*
X111012Y136997D02*
X114326Y158041D01*
X58245Y136243D02*
X60956Y153460D01*
X57016Y158873D02*
X60956Y153460D01*
X17051Y165167D02*
X57016Y158873D01*
X116452Y69075D02*
X126593Y55117D01*
X123664Y63468D02*
X129255Y55786D01*
X122504Y29204D02*
X126585Y55118D01*
X52415Y133498D02*
X54378Y145966D01*
X47147Y133946D02*
X49170Y146793D01*
X98507Y-18630D02*
X100278Y-7386D01*
X54378Y145966D02*
Y145966D01*
X41467Y84745D02*
X44486Y80598D01*
X112263Y17665D02*
X119111Y61146D01*
X122504Y29204D02*
X128809Y20543D01*
X54378Y145966D02*
X54420Y146232D01*
X98536Y7411D02*
X108542Y-6335D01*
X98536Y7411D02*
X102168Y30476D01*
X106394Y5802D02*
X116389Y-7929D01*
X106394Y5802D02*
X110303Y30623D01*
X125211Y-2307D02*
X128809Y20543D01*
X37661Y89386D02*
X46159Y88047D01*
X57220Y89663D02*
X64392Y94884D01*
X51961Y82974D02*
X52686Y87583D01*
X65625Y86646D02*
X68463Y104662D01*
X45753Y72182D02*
X65625Y86646D01*
X51384Y-31549D02*
X51427Y-31609D01*
X50974Y-30986D02*
X51384Y-31549D01*
X44581Y64737D02*
X45753Y72182D01*
X49170Y146793D02*
X49245Y147272D01*
X110379Y64390D02*
X111227Y63225D01*
X125222Y30172D02*
X129255Y55786D01*
X134368Y-37204D02*
X148899Y-29939D01*
X125222Y30172D02*
X131712Y21256D01*
X130555Y13912D02*
X131712Y21256D01*
X130555Y13912D02*
X136000Y13000D01*
X101432Y150077D02*
X101432D01*
X102992Y159984D01*
X100727Y144240D02*
X106700Y147456D01*
X107821Y154572D01*
X96655Y147505D02*
X101432Y150077D01*
X71498Y144731D02*
X71760Y144872D01*
X77421Y147920D02*
X77471Y147947D01*
X71505Y143255D02*
X71760Y144872D01*
X77421Y147920D02*
X100727Y144240D01*
X66146Y134991D02*
X68309Y148726D01*
X72985Y151243D01*
X96655Y147505D01*
X71760Y144872D02*
X77421Y147920D01*
X127756Y-3866D02*
X130555Y13912D01*
X122393Y-7770D02*
X127756Y-3866D01*
X121498Y-13453D02*
X122393Y-7770D01*
X121498Y-13453D02*
X128309Y-22808D01*
X118581Y-14319D02*
X119860Y-6202D01*
X118750Y-14497D02*
X124252Y-35113D01*
X120749Y-5555D02*
X125211Y-2307D01*
X119860Y-6202D02*
X120730Y-5568D01*
X120749Y-5555D01*
D17*
X144586Y131692D02*
X145587Y131644D01*
X145843Y131631D01*
X131177Y39671D02*
X134364Y59910D01*
X120387Y41351D02*
X120400Y41426D01*
X117881Y26325D02*
X120387Y41351D01*
X130386Y39773D02*
X131036Y39689D01*
X131177Y39671D01*
X97511Y-44412D02*
X99544Y-30930D01*
X51854Y-21645D02*
X53162Y-21827D01*
X43418Y-34234D02*
X51423Y-42161D01*
X-36743Y-186447D02*
X-30144Y-181114D01*
X-120544Y11920D02*
X-116541Y36148D01*
X19554Y180968D02*
X34172Y178736D01*
X41967Y129159D02*
X42986Y135809D01*
X91404Y-98829D02*
X101883Y-92573D01*
X91388Y-98841D02*
X91402Y-98830D01*
X116733Y-56960D02*
X134818Y-60699D01*
X109787Y-69166D02*
X111619Y-60306D01*
X116733Y-56960D01*
X55508Y-101567D02*
X109787Y-69166D01*
X134818Y-60699D02*
X150530Y-52625D01*
X121361Y-84249D02*
X123375Y-70530D01*
X-8905Y-107086D02*
X-8639Y-106802D01*
X118997Y-86423D02*
X127519Y-87741D01*
X53173Y-21829D02*
X53221Y-21836D01*
X73238Y-24931D02*
X73238D01*
X-12682Y101255D02*
X-12682Y101256D01*
X-24099Y91076D02*
X-22290Y101450D01*
X-12679Y101272D02*
X-12531Y102122D01*
X6633Y61767D02*
X6637Y61791D01*
X-15958Y160993D02*
X-8427Y164138D01*
X-15960Y160991D02*
X-15958Y160993D01*
X34262Y178722D02*
X34286Y178718D01*
X35607Y178747D02*
X40275Y178014D01*
X-89488Y-191688D02*
X-84225Y-190095D01*
X89038Y-27333D02*
X90605Y-17379D01*
X63271Y-23406D02*
X70230Y-17107D01*
X81011Y-18710D01*
X-14716Y89590D02*
X-12695Y101181D01*
X-113231Y-65502D02*
X-110250Y-77750D01*
X-107226Y-90175D01*
X-116541Y36148D02*
X-116072Y38985D01*
X145843Y131631D02*
X146770Y137061D01*
X-107226Y-90175D02*
X-107074Y-90800D01*
X128962Y-96762D02*
X133835Y-104926D01*
X101883Y-92573D02*
X128962Y-96762D01*
X91404Y-98829D02*
X91404Y-98829D01*
X91404D01*
X101861Y-92570D02*
X101883Y-92573D01*
X102182Y-81973D02*
X110704Y-83291D01*
X77586Y-96655D02*
X102182Y-81973D01*
X8405Y70586D02*
X25643Y71040D01*
X8405Y70586D02*
X8405D01*
X10595Y84414D02*
X26891Y78937D01*
X10595Y84414D02*
X10595D01*
X34286Y178718D02*
X34287Y178718D01*
X4079Y98990D02*
Y108006D01*
X-31075Y112648D02*
X-18691Y116687D01*
X2978Y142857D02*
X12811Y146509D01*
X11327Y161010D02*
X13248Y146706D01*
X18662Y-150634D02*
X18662Y-150632D01*
X18662Y-150632D02*
Y-150632D01*
X-10767Y-151024D02*
X-9994Y-146086D01*
X-18445Y-135632D02*
X-17672Y-130694D01*
X-13506Y-136414D02*
X-12733Y-131476D01*
X-8568Y-137196D02*
X-7795Y-132258D01*
X-3629Y-137978D02*
X-2856Y-133040D01*
X-136451Y-75374D02*
X-134957Y-81195D01*
X-126134Y-73981D02*
X-124924Y-78832D01*
X-123715Y-83695D02*
X-122505Y-88535D01*
X-133722Y-91346D02*
X-122505Y-88535D01*
X12783Y-135773D02*
X14275Y-127144D01*
X-6915Y80570D02*
X-5333Y88104D01*
X-12531Y102122D02*
X-12529Y102135D01*
X10595Y84414D02*
X12007Y93483D01*
X-18784Y63910D02*
X-17702Y69930D01*
X-15562Y136441D02*
X-13254Y149859D01*
X-6826Y135012D02*
X4191Y133313D01*
X-6826Y135012D02*
X-4537Y149814D01*
X24392Y63138D02*
X33151Y61759D01*
X36907Y142153D02*
X42986Y135809D01*
X-32457Y104817D02*
X-22060Y102772D01*
X-105793Y34372D02*
X-78728Y29900D01*
X-21740Y40100D02*
X-20739Y45825D01*
X-12682Y101256D02*
X-12682Y101256D01*
X-12682Y101255D02*
Y101255D01*
X51423Y-42161D02*
X51533Y-42270D01*
X91402Y-98830D02*
X91404Y-98829D01*
X91402Y-98830D02*
X91402Y-98830D01*
X91404Y-98829D01*
X52311Y-122165D02*
X91402Y-98830D01*
X53034Y-119675D02*
X55508Y-101567D01*
X81011Y-18710D02*
X89038Y-27333D01*
X43418Y-34234D02*
X45540Y-20764D01*
X120729Y41294D02*
Y41294D01*
X120763Y41503D01*
X130384Y39762D02*
X130386Y39773D01*
X144574Y131618D02*
X144586Y131692D01*
X-127877Y16305D02*
X-127407Y19268D01*
X18662Y-150634D02*
X18662Y-150632D01*
X6637Y61791D02*
X8405Y70586D01*
X118555Y6092D02*
X120254Y16399D01*
X118521Y5889D02*
X118526Y5916D01*
X118555Y6092D01*
X35173Y178815D02*
X35517Y178761D01*
X35607Y178747D01*
X34172Y178736D02*
X34172Y178736D01*
X34172D01*
X34262Y178722D01*
X-12695Y101181D02*
X-12682Y101255D01*
X-22290Y101450D02*
X-22288Y101465D01*
X-22063Y102755D01*
X-22060Y102771D02*
X-22060Y102772D01*
X-12682Y101256D02*
X-12680Y101271D01*
X-12679Y101272D01*
X-22063Y102755D02*
X-22060Y102770D01*
X-22060Y102771D01*
X89038Y-27333D02*
X91055Y-29501D01*
X45540Y-20764D02*
X51843Y-21643D01*
X51854Y-21645D01*
X73229Y-24929D02*
X73238Y-24931D01*
X53162Y-21827D02*
X53162Y-21827D01*
X73238Y-24931D02*
X80018Y-26105D01*
X53162Y-21827D02*
X53162D01*
X53173Y-21829D01*
D18*
X-18464Y169395D02*
X-15961Y160993D01*
X-62477Y-48519D02*
X-60659Y-36962D01*
X-62486Y-48576D02*
X-62477Y-48519D01*
X-50776Y164848D02*
X-38421Y162958D01*
X-74862Y76656D02*
Y76656D01*
X-8639Y-106802D02*
X21202Y-74960D01*
X-56074Y71236D02*
X-48250Y31000D01*
X-49918Y-99546D02*
X-43903Y-60298D01*
X40605Y-141796D02*
X46498Y-151356D01*
X38602Y-150979D02*
X38607Y-150986D01*
X47095Y-152324D02*
X47099Y-152331D01*
X39211Y-151954D02*
X45152Y-161464D01*
X46498Y-151356D02*
X47001Y-152173D01*
X37257Y-161077D02*
X37262Y-161085D01*
X45152Y-161464D02*
X45750Y-162421D01*
X43957Y-172348D02*
Y-172348D01*
Y-172348D02*
X44000Y-172421D01*
X37853Y-162079D02*
X40863Y-167143D01*
X36642Y-161545D02*
X37255Y-161080D01*
X37257Y-161077D01*
X36062Y-171977D02*
X38643Y-176164D01*
X39348Y-177307D01*
X40863Y-167143D02*
X43366Y-171354D01*
X35507Y-171077D02*
X36062Y-171977D01*
X39348Y-177307D02*
X41929Y-181493D01*
X34619Y-182129D02*
X37076Y-186353D01*
X40272Y-191849D01*
X41929Y-181493D02*
X42500Y-182421D01*
X42501Y-182423D01*
X44000Y-172421D02*
X44001Y-172423D01*
X24258Y-179384D02*
X32257Y-191327D01*
X51672Y-32003D02*
X51721Y-32046D01*
X71646Y-35041D02*
X71797Y-35064D01*
X71636Y-35039D02*
X71646Y-35041D01*
X-15961Y160993D02*
X-15960Y160991D01*
X-17654Y174680D02*
X-11957Y173810D01*
X-18464Y169395D02*
X-17654Y174680D01*
X-7912Y167050D02*
X-4985Y169976D01*
X45750Y-162421D02*
X45751Y-162423D01*
X-73407Y-111166D02*
X-67989Y-115688D01*
X-64738Y-127438D02*
X-59483Y-126004D01*
X-67989Y-115688D02*
X-62733Y-114254D01*
X62914Y23459D02*
X71115Y13071D01*
X72843Y21739D01*
X-22654Y194710D02*
X-21222Y204085D01*
X63147Y6037D02*
X63147Y6036D01*
X-139176Y128020D02*
X-138331Y133355D01*
X-113084Y-153987D02*
X-107938Y-141324D01*
X-113084Y-153987D02*
X-103012Y-195312D01*
X-82155Y-181645D02*
X-82152Y-181644D01*
X-95413Y-185413D02*
X-82155Y-181645D01*
X-103012Y-195312D02*
X-95413Y-185413D01*
X-59573Y-96250D02*
X-53152Y-104996D01*
X-70750Y-87486D02*
X-68079Y-70062D01*
X-70750Y-87486D02*
X-55504Y-108251D01*
X-145107Y142682D02*
X-138331Y133355D01*
X-154847Y145904D02*
X-147152Y135312D01*
X71636Y-35039D02*
X71636D01*
X33640Y-58699D02*
X42953Y-51921D01*
X51017Y-53191D01*
X67834Y-42895D02*
X89101Y-46244D01*
X51792Y-32111D02*
X51899Y-32207D01*
X51721Y-32046D02*
X51792Y-32111D01*
X51899Y-32207D02*
X51908Y-32215D01*
X57958Y-41330D02*
X62896Y-42113D01*
X68591Y-41756D02*
X69685Y-34926D01*
X50931Y-46698D02*
X67920Y-49389D01*
X-12245Y44479D02*
X-9401Y62424D01*
X47094Y-152324D02*
X47095Y-152324D01*
X47095Y-152324D01*
X47094Y-152323D02*
X47094Y-152324D01*
X-16731Y191440D02*
X-12865Y186180D01*
X-22654Y194710D02*
X-13576Y182358D01*
X13423Y101747D02*
X21739Y100471D01*
X-127161Y191281D02*
X-124474Y208237D01*
X-137941Y187921D02*
X-127161Y191281D01*
X-141914Y162834D02*
X-132769Y156222D01*
X-154847Y145904D02*
X-146735Y197105D01*
X-135954Y200465D01*
X-99961Y-132457D02*
X-78261Y-131062D01*
X-28586Y-235845D02*
X-3202Y-229040D01*
X-55504Y-108251D02*
X4715Y-117481D01*
X2082Y-133822D02*
X4715Y-117481D01*
X101649Y-203758D02*
X101776Y-196250D01*
X91247Y-181001D02*
X91292Y-173262D01*
X103758Y-183235D02*
X111718Y-183332D01*
X110154Y-193208D02*
X118579Y-194337D01*
X105049Y-208290D02*
X106539Y-198226D01*
X92610Y-217239D02*
X105049Y-208290D01*
X86111Y-216178D02*
X92610Y-217239D01*
X87725Y-212380D02*
X96244Y-206251D01*
X58091Y-207710D02*
X87725Y-212380D01*
X87043Y-208398D02*
X91460Y-205220D01*
X63934Y-204757D02*
X87043Y-208398D01*
X44001Y-172423D02*
X63934Y-204757D01*
X33448Y-210161D02*
X53478Y-213317D01*
X16363Y-182448D02*
X33448Y-210161D01*
X16363Y-182448D02*
X19007Y-166169D01*
X29893Y-157901D01*
X75753Y-216827D02*
X75757Y-216827D01*
X79614Y-200095D02*
X79614D01*
X73121Y-182213D02*
X82787Y-183812D01*
X63284Y-190862D02*
X81222Y-193689D01*
X68657Y-187302D02*
X79997Y-189088D01*
X69340Y-175975D02*
X82219Y-178005D01*
X38601Y-150978D02*
X38602Y-150979D01*
X53478Y-213317D02*
X53481Y-213317D01*
X75753Y-216827D01*
X-104957Y-73910D02*
X-96785Y-71816D01*
X-90970Y-66161D02*
X-87734Y-79067D01*
X-92567Y-80286D02*
X-87734Y-79067D01*
X-90970Y-66161D02*
X-63805Y-59350D01*
X-96174Y-61945D02*
X-75123Y-56668D01*
X-31365Y47481D02*
X-28167Y65396D01*
X-31365Y47481D02*
X0Y0D01*
X2267Y-135396D02*
X11437Y-144267D01*
X96462Y96272D02*
X103687Y89047D01*
X95211Y88370D02*
X102435Y81146D01*
X-135456Y139267D02*
X-135306Y140209D01*
X-145107Y142682D02*
X-143901Y150290D01*
X-48593Y186628D02*
X-47207Y195662D01*
X-51090Y164896D02*
X-50776Y164848D01*
X-50776D01*
X-53815Y-58680D02*
X-53811Y-58657D01*
X-96596Y-145014D02*
X-71500Y-149750D01*
X40007Y-140827D02*
X40012Y-140835D01*
X29893Y-157901D02*
X32367Y-139794D01*
X-53152Y-104996D02*
X22370Y-116572D01*
X44420Y-122424D02*
X50314Y-131984D01*
X36033Y-134889D02*
X45175Y-136339D01*
X48702Y-142059D01*
X54259Y33453D02*
X56956Y51399D01*
X94574Y33143D02*
X96464Y45142D01*
X10538Y170250D02*
X17670Y169076D01*
X-21720Y-175258D02*
X-18704Y-162716D01*
X-15705Y-150242D01*
X18301Y173062D02*
X32556Y170884D01*
X42530Y-182468D02*
X58091Y-207710D01*
X42501Y-182423D02*
X42530Y-182468D01*
X-78261Y-131062D02*
X-70608Y-135296D01*
X-40169Y-101898D02*
X-34043Y-61932D01*
X-59573Y-96250D02*
X-53815Y-58680D01*
X52914Y24959D02*
X63147Y6037D01*
X-135306Y140209D02*
X-132769Y156222D01*
X-21222Y204085D02*
X-21113Y204799D01*
X25177Y-170253D02*
X25197Y-170238D01*
X36642Y-161545D01*
X38607Y-150986D02*
X39211Y-151954D01*
X45757Y-162431D02*
X63284Y-190862D01*
X45751Y-162423D02*
X45757Y-162431D01*
X40012Y-140835D02*
X40605Y-141796D01*
X47099Y-152331D02*
X68657Y-187302D01*
X-96174Y-61945D02*
X-95098Y-66239D01*
X-94954Y-66812D01*
X31818Y-129272D02*
X41820Y-130639D01*
X51457Y-134303D02*
X57351Y-143863D01*
X-76662Y-26264D02*
X-72400Y-46953D01*
X72860Y30448D02*
X72901Y30441D01*
X54259Y33453D02*
X64241Y31840D01*
X74171Y30236D02*
X74189Y30233D01*
X64241Y31840D02*
X72860Y30448D01*
X72901Y30441D02*
X74171Y30236D01*
X51483Y-31832D02*
X51627Y-31962D01*
X51672Y-32003D01*
X71592Y-35033D02*
X71636Y-35039D01*
X-62488Y-48587D02*
X-62486Y-48576D01*
X61839Y-33541D02*
X71592Y-35033D01*
X32950Y-192518D02*
X39001Y-202923D01*
X32947Y-192514D02*
X32950Y-192518D01*
X40859Y-192847D02*
X40862Y-192852D01*
X24247Y-179367D02*
X24258Y-179384D01*
X24241Y-179359D02*
X24247Y-179367D01*
X37262Y-161085D02*
X37853Y-162079D01*
X43366Y-171354D02*
X43957Y-172348D01*
X79585Y-200269D02*
X86833Y-201411D01*
X30408Y-138242D02*
X31339Y-137687D01*
X35548Y-135178D01*
X36033Y-134889D01*
X34007Y-181077D02*
X34034Y-181124D01*
X40862Y-192852D02*
X53478Y-213317D01*
X34034Y-181124D02*
X34619Y-182129D01*
X48506Y-142180D02*
X69340Y-175975D01*
X-10649Y189796D02*
X-9815Y195256D01*
X-16731Y191440D02*
X-15516Y199395D01*
X-15398Y200164D01*
X117672Y-1028D02*
X120647Y-5453D01*
X-74862Y76656D02*
X-54250Y25250D01*
X-75000Y77000D02*
X-74862Y76656D01*
D19*
X-29899Y120372D02*
X-28251Y130207D01*
X-54811Y138451D02*
X-41405Y136371D01*
X-29945Y120098D02*
X-29899Y120372D01*
X-37745Y-143678D02*
X-26678Y-148575D01*
X-25778Y146094D02*
X-24253Y155196D01*
X-90956Y-106518D02*
X-89413Y-112824D01*
X128000Y-48000D02*
X142531Y-40735D01*
X-120525Y-88580D02*
X-90956Y-106518D01*
X-129349Y-64596D02*
X-129336Y-64649D01*
X-52660Y-157063D02*
X-40861Y-158952D01*
X-47954Y-128575D02*
X-36156Y-130464D01*
X-89349Y-113085D02*
X-81511Y-119312D01*
X-111365Y-125728D02*
X-84190Y-119075D01*
X6725Y-171876D02*
X8217Y-163247D01*
X88Y-152808D02*
X9485Y-154409D01*
X-55133Y137644D02*
X-54811Y138451D01*
X-53661Y146927D02*
X-53573Y146495D01*
X-39857Y144551D02*
X-29238Y142904D01*
X-53573Y146495D02*
X-40279Y144433D01*
X-41221Y136119D02*
X-30852Y134511D01*
X-41405Y136371D02*
X-41367Y136365D01*
X-129331Y-64669D02*
X-127267Y-73156D01*
X-129336Y-64649D02*
X-129331Y-64669D01*
D20*
X-95497Y-175002D02*
D03*
X-114003Y-105938D02*
D03*
D21*
X-38421Y162958D02*
D03*
X-24253Y155196D02*
D03*
X143055Y-90144D02*
D03*
X127519Y-87741D02*
D03*
X-143984Y86218D02*
D03*
X-151360Y84913D02*
D03*
X-120544Y11920D02*
D03*
X-128513Y13145D02*
D03*
X-79892Y21950D02*
D03*
X-80994Y13865D02*
D03*
X33153Y61761D02*
D03*
X-48250Y31000D02*
D03*
X-49918Y-99546D02*
D03*
X-46565Y-117533D02*
D03*
X-40050Y-101917D02*
D03*
X-128428Y-53906D02*
D03*
X-54250Y25250D02*
D03*
X-21128Y-121078D02*
D03*
X-91076Y-92857D02*
D03*
X97511Y-44412D02*
D03*
X89103Y-46242D02*
D03*
X-15958Y160994D02*
D03*
X-81882Y-189939D02*
D03*
X81011Y-18710D02*
D03*
X133531Y142944D02*
D03*
X15978Y134067D02*
D03*
X120653Y145010D02*
D03*
X2561Y143465D02*
D03*
X146019Y141106D02*
D03*
X-4620Y99898D02*
D03*
X-55391Y-185592D02*
D03*
X17578Y-101896D02*
D03*
X-16046Y199476D02*
D03*
X-21756Y204166D02*
D03*
X92315Y162022D02*
D03*
X67600Y165219D02*
D03*
X-30869Y-41813D02*
D03*
X-40729Y-40179D02*
D03*
X-50637Y-38539D02*
D03*
X63149Y6038D02*
D03*
X26092Y-103061D02*
D03*
X45540Y-20764D02*
D03*
X-139176Y128020D02*
D03*
X-136713Y140431D02*
D03*
X-70437Y-134987D02*
D03*
X-89281Y-112792D02*
D03*
X-82154Y-181647D02*
D03*
X81710Y164090D02*
D03*
X51072Y98089D02*
D03*
X-126673Y208627D02*
D03*
X-146378Y135746D02*
D03*
X33640Y-58699D02*
D03*
X92379Y33120D02*
D03*
X4079Y98990D02*
D03*
X21742Y100474D02*
D03*
X24632Y132913D02*
D03*
X-52660Y-157063D02*
D03*
X-18637Y-162732D02*
D03*
X-36741Y-186449D02*
D03*
X-47954Y-128575D02*
D03*
X-49753Y-141752D02*
D03*
X6727Y-171878D02*
D03*
X118579Y-194337D02*
D03*
X76239Y-157031D02*
D03*
X74535Y-169795D02*
D03*
X39004Y-202925D02*
D03*
X79606Y-200138D02*
D03*
X72534Y-182088D02*
D03*
X53480Y-213319D02*
D03*
X-29832Y120361D02*
D03*
X-31031Y112478D02*
D03*
X-32457Y104817D02*
D03*
X103687Y89014D02*
D03*
X102435Y81113D02*
D03*
X-9932Y195273D02*
D03*
X75450Y160270D02*
D03*
X86071Y158117D02*
D03*
X114326Y158041D02*
D03*
X49238Y165046D02*
D03*
X-47207Y195662D02*
D03*
X-112514Y10645D02*
D03*
X-78728Y29900D02*
D03*
X71115Y13071D02*
D03*
X-44159Y-241766D02*
D03*
X-60659Y-36962D02*
D03*
X0Y0D02*
D03*
X99508Y-189085D02*
D03*
X94429Y-190811D02*
D03*
X95316Y-185639D02*
D03*
X-16864Y-140440D02*
D03*
X-11750Y-141250D02*
D03*
X-6767Y-142039D02*
D03*
X-76148Y118703D02*
D03*
X-124634Y157768D02*
D03*
X-119941Y187399D02*
D03*
X-93273Y183175D02*
D03*
X-97967Y153545D02*
D03*
X-66606Y178952D02*
D03*
X-71299Y149321D02*
D03*
X-115092Y218017D02*
D03*
X-87436Y213637D02*
D03*
X-61756Y209570D02*
D03*
X-102816Y122926D02*
D03*
X-129484Y127150D02*
D03*
X100280Y-7383D02*
D03*
X115932Y-174704D02*
D03*
X117975Y-151951D02*
D03*
X78130Y-145033D02*
D03*
X57351Y-143863D02*
D03*
X18659Y-150631D02*
D03*
X14273Y-127142D02*
D03*
X102992Y159984D02*
D03*
X107821Y154572D02*
D03*
X96699Y156189D02*
D03*
X14046Y49117D02*
D03*
X22083Y47912D02*
D03*
X45237Y37153D02*
D03*
X44763Y47326D02*
D03*
X52849Y69294D02*
D03*
X46159Y88047D02*
D03*
X44489Y80599D02*
D03*
X57220Y89663D02*
D03*
X51961Y82974D02*
D03*
X42059Y129145D02*
D03*
X58377Y96974D02*
D03*
X-17250Y73750D02*
D03*
X-76662Y-26264D02*
D03*
X44500Y64750D02*
D03*
X115540Y117482D02*
D03*
X111227Y63225D02*
D03*
X133500Y-79500D02*
D03*
X142466Y-40605D02*
D03*
X116500Y6250D02*
D03*
X133253Y60085D02*
D03*
X118572Y26209D02*
D03*
X136000Y13000D02*
D03*
X148177Y-4154D02*
D03*
X127009Y-11413D02*
D03*
X117672Y-1028D02*
D03*
D22*
X16446Y116042D02*
X21739Y100473D01*
X158989Y-4071D02*
X162982Y-2495D01*
X15978Y134067D02*
X17630Y125385D01*
X18350Y124632D02*
X32182Y126986D01*
X17638Y125342D02*
X17674Y125153D01*
X17630Y125385D02*
X17638Y125342D01*
X137451Y-1960D02*
X148177Y-4154D01*
X127009Y-11413D02*
X143823Y-14888D01*
X159981Y-6585D01*
D23*
X21202Y-74960D02*
D03*
X-3202Y-229040D02*
D03*
D24*
X132826Y-24490D02*
D03*
X150530Y-52625D02*
D03*
D25*
X155356Y-29115D02*
D03*
X128000Y-48000D02*
D03*
X123375Y-70530D02*
D03*
X145905Y-75155D02*
D03*
X137451Y-1960D02*
D03*
X159981Y-6585D02*
D03*
D26*
X-115179Y-24889D02*
D03*
X-105793Y34372D02*
D03*
D27*
X-71500Y-149750D02*
D03*
D28*
X31673Y-129753D02*
D03*
X30327Y-138247D02*
D03*
X72827Y21753D02*
D03*
X74173Y30247D02*
D03*
X54259Y33453D02*
D03*
X52914Y24959D02*
D03*
X12783Y-135773D02*
D03*
X11437Y-144267D02*
D03*
X25173Y-170253D02*
D03*
X23827Y-178747D02*
D03*
X-40095Y144637D02*
D03*
X-41440Y136143D02*
D03*
X34327Y179753D02*
D03*
X35673Y188247D02*
D03*
X12007Y93483D02*
D03*
X13353Y101977D02*
D03*
X6673Y61747D02*
D03*
X5327Y53253D02*
D03*
X17173Y124997D02*
D03*
X15827Y116503D02*
D03*
X64259Y31953D02*
D03*
X62914Y23459D02*
D03*
X9563Y-154753D02*
D03*
X8217Y-163247D02*
D03*
X99601Y-161103D02*
D03*
X100946Y-152609D02*
D03*
X-32698Y-53438D02*
D03*
X-34043Y-61932D02*
D03*
X-42558Y-51804D02*
D03*
X-43903Y-60298D02*
D03*
X-52486Y-50184D02*
D03*
X-53831Y-58678D02*
D03*
X-63923Y-56997D02*
D03*
X-62577Y-48503D02*
D03*
X-72400Y-46953D02*
D03*
X-73746Y-55447D02*
D03*
X51827Y-30247D02*
D03*
X53173Y-21753D02*
D03*
X71827Y-33497D02*
D03*
X73173Y-25003D02*
D03*
X63271Y-23406D02*
D03*
X61926Y-31900D02*
D03*
D29*
X-4503Y149827D02*
D03*
X-12997Y151173D02*
D03*
X-12245Y44479D02*
D03*
X-20739Y45825D02*
D03*
X32253Y-191577D02*
D03*
X40747Y-192923D02*
D03*
X42534Y-182465D02*
D03*
X34040Y-181120D02*
D03*
X43867Y-172402D02*
D03*
X35373Y-171056D02*
D03*
X45792Y-162409D02*
D03*
X37298Y-161064D02*
D03*
X50314Y-131984D02*
D03*
X41820Y-130639D02*
D03*
X52053Y-122004D02*
D03*
X43559Y-120659D02*
D03*
X47259Y-152233D02*
D03*
X38765Y-150888D02*
D03*
X48702Y-142059D02*
D03*
X40208Y-140714D02*
D03*
X118997Y-86423D02*
D03*
X110503Y-85077D02*
D03*
X32734Y169064D02*
D03*
X41228Y167719D02*
D03*
X13253Y146673D02*
D03*
X21747Y145327D02*
D03*
X91003Y-29577D02*
D03*
X99497Y-30923D02*
D03*
X-31365Y47481D02*
D03*
X-39859Y48826D02*
D03*
X-13003Y101327D02*
D03*
X-21497Y102673D02*
D03*
X84247Y-218173D02*
D03*
X75753Y-216827D02*
D03*
X125997Y-167173D02*
D03*
X117503Y-165827D02*
D03*
X57021Y-67861D02*
D03*
X48527Y-66516D02*
D03*
D30*
X-23556Y-175586D02*
D03*
X-30144Y-181114D02*
D03*
D31*
X-129828Y-62710D02*
D03*
X-138172Y-64790D02*
D03*
D32*
X-133710Y-91922D02*
D03*
X-135790Y-83578D02*
D03*
D33*
X-28425Y145053D02*
D03*
X-30459Y132213D02*
D03*
X87934Y-157949D02*
D03*
X89968Y-145109D02*
D03*
X-37771Y-143737D02*
D03*
X-35737Y-130897D02*
D03*
D34*
X-27831Y-161016D02*
D03*
X-40671Y-158982D02*
D03*
D35*
X8405Y70586D02*
D03*
X10595Y84414D02*
D03*
D36*
X53019Y-40548D02*
D03*
X67835Y-42895D02*
D03*
X51017Y-53191D02*
D03*
X65832Y-55537D02*
D03*
D37*
X57958Y-41330D02*
D03*
X62896Y-42113D02*
D03*
X55955Y-53973D02*
D03*
X60894Y-54755D02*
D03*
D38*
X67920Y-49389D02*
D03*
X50931Y-46698D02*
D03*
D39*
X96470Y-188510D02*
D03*
D40*
X111718Y-183332D02*
D03*
X110936Y-188270D02*
D03*
X110154Y-193208D02*
D03*
X109371Y-198147D02*
D03*
X81222Y-193689D02*
D03*
X82004Y-188750D02*
D03*
X82787Y-183812D02*
D03*
X83569Y-178873D02*
D03*
D41*
X101649Y-203758D02*
D03*
X96710Y-202976D02*
D03*
X91772Y-202194D02*
D03*
X86833Y-201411D02*
D03*
X91292Y-173262D02*
D03*
X96230Y-174044D02*
D03*
X101168Y-174827D02*
D03*
X106107Y-175609D02*
D03*
D42*
X-127877Y16305D02*
D03*
X-127407Y19268D02*
D03*
D43*
X-8864Y-106591D02*
D03*
X-11054Y-120419D02*
D03*
D44*
X-28586Y-235845D02*
D03*
X-42414Y-233655D02*
D03*
X91414Y-98845D02*
D03*
X77586Y-96655D02*
D03*
D45*
X-81511Y-119312D02*
D03*
X-67989Y-115688D02*
D03*
X-78261Y-131062D02*
D03*
X-64738Y-127438D02*
D03*
X-103012Y-195312D02*
D03*
X-89488Y-191688D02*
D03*
D46*
X-9401Y62424D02*
D03*
X-18784Y63910D02*
D03*
X-28167Y65396D02*
D03*
X-5333Y88104D02*
D03*
X-14716Y89590D02*
D03*
X-24099Y91076D02*
D03*
D47*
X-3730Y193770D02*
D03*
X220Y193144D02*
D03*
X4171Y192518D02*
D03*
X8122Y191893D02*
D03*
X12073Y191267D02*
D03*
X16023Y190641D02*
D03*
X11330Y161010D02*
D03*
X7380Y161636D02*
D03*
X3429Y162262D02*
D03*
X-522Y162888D02*
D03*
X-4473Y163513D02*
D03*
X-8423Y164139D02*
D03*
D48*
X20180Y184920D02*
D03*
X19554Y180970D02*
D03*
X18928Y177019D02*
D03*
X18303Y173068D02*
D03*
X17677Y169117D02*
D03*
X17051Y165167D02*
D03*
X-12580Y169860D02*
D03*
X-11954Y173810D02*
D03*
X-11328Y177761D02*
D03*
X-10702Y181712D02*
D03*
X-10077Y185663D02*
D03*
X-9451Y189613D02*
D03*
D49*
X-11750Y-141250D02*
D03*
D50*
X-22610Y-129912D02*
D03*
X-17672Y-130694D02*
D03*
X-12733Y-131476D02*
D03*
X-7795Y-132258D02*
D03*
X-2856Y-133040D02*
D03*
X2082Y-133822D02*
D03*
X-25582Y-148678D02*
D03*
X-20644Y-149460D02*
D03*
X-15705Y-150242D02*
D03*
X-10767Y-151024D02*
D03*
X-5828Y-151806D02*
D03*
X-890Y-152589D02*
D03*
D51*
X-73398Y-103643D02*
D03*
X-68079Y-70062D02*
D03*
D52*
X98965Y112075D02*
D03*
X97714Y104173D02*
D03*
X96462Y96272D02*
D03*
X95211Y88370D02*
D03*
X93959Y80469D02*
D03*
X92708Y72567D02*
D03*
X38158Y150055D02*
D03*
X36907Y142153D02*
D03*
X35655Y134252D02*
D03*
X34404Y126350D02*
D03*
X42667Y120992D02*
D03*
X33152Y118449D02*
D03*
X41416Y113090D02*
D03*
X31901Y110547D02*
D03*
X40164Y105189D02*
D03*
X30649Y102646D02*
D03*
X38913Y97287D02*
D03*
X29398Y94744D02*
D03*
X37661Y89386D02*
D03*
X28146Y86843D02*
D03*
X36410Y81484D02*
D03*
X26895Y78941D02*
D03*
X25643Y71040D02*
D03*
X24392Y63138D02*
D03*
X23140Y55237D02*
D03*
D53*
X145581Y131522D02*
D03*
X137260Y123728D02*
D03*
X134717Y133243D02*
D03*
X129358Y124979D02*
D03*
X126815Y134494D02*
D03*
X121457Y126231D02*
D03*
X113555Y127482D02*
D03*
X111012Y136997D02*
D03*
X105654Y128734D02*
D03*
X103111Y138249D02*
D03*
X97752Y129985D02*
D03*
X95209Y139500D02*
D03*
X89851Y131237D02*
D03*
X81949Y132488D02*
D03*
X79406Y142003D02*
D03*
X74048Y133740D02*
D03*
X71505Y143255D02*
D03*
X66146Y134991D02*
D03*
X63603Y144506D02*
D03*
X58245Y136243D02*
D03*
X55702Y145758D02*
D03*
X47800Y147009D02*
D03*
X131033Y39667D02*
D03*
X120168Y41388D02*
D03*
X112267Y42639D02*
D03*
X96464Y45142D02*
D03*
X93921Y54657D02*
D03*
X88562Y46394D02*
D03*
X86020Y55909D02*
D03*
X80661Y47645D02*
D03*
X78118Y57160D02*
D03*
X72759Y48897D02*
D03*
X70217Y58411D02*
D03*
X64858Y50148D02*
D03*
X62315Y59663D02*
D03*
X56956Y51400D02*
D03*
D54*
X-95620Y168360D02*
D03*
D55*
X-48593Y186628D02*
D03*
D56*
X-49326Y173886D02*
D03*
X-51312Y161342D02*
D03*
X-53299Y148799D02*
D03*
X-55286Y136255D02*
D03*
X-135954Y200465D02*
D03*
X-137941Y187921D02*
D03*
X-139928Y175378D02*
D03*
X-141914Y162834D02*
D03*
X-143901Y150290D02*
D03*
D57*
X116982Y-151889D02*
D03*
X130871Y-154093D02*
D03*
D58*
X-15562Y136441D02*
D03*
X-18691Y116687D02*
D03*
X4191Y133313D02*
D03*
X1063Y113559D02*
D03*
D59*
X96550Y20153D02*
D03*
X104452Y18902D02*
D03*
X112353Y17650D02*
D03*
X120254Y16399D02*
D03*
X90605Y-17379D02*
D03*
X98507Y-18630D02*
D03*
X106409Y-19882D02*
D03*
X114310Y-21133D02*
D03*
D60*
X134809Y-122175D02*
D03*
X104191Y-117325D02*
D03*
D61*
X-83861Y-204710D02*
D03*
X-65639Y-229790D02*
D03*
D62*
X-122505Y-88535D02*
D03*
X-123715Y-83684D02*
D03*
X-124924Y-78832D02*
D03*
X-126134Y-73981D02*
D03*
X-94366Y-81519D02*
D03*
X-95576Y-76668D02*
D03*
X-96785Y-71816D02*
D03*
X-97995Y-66965D02*
D03*
D63*
X-110250Y-77750D02*
D03*
D64*
X-52533Y72902D02*
D03*
X-75250Y76500D02*
D03*
X-97967Y80098D02*
D03*
D65*
X-13032Y151164D02*
X-12212Y151984D01*
X33149Y118449D02*
X34400Y126346D01*
X-13018Y101233D02*
X-12695Y101181D01*
X-13076Y101242D02*
X-13018Y101233D01*
X-4525Y149803D02*
X2450Y143346D01*
X-4536Y149813D02*
X-4525Y149803D01*
X-12695Y101181D02*
X-4622Y99901D01*
X26092Y-103062D02*
X56255Y-82005D01*
X26090Y-103064D02*
X26092Y-103062D01*
X58716Y-68162D02*
X58720Y-68137D01*
X58716Y-68162D02*
X58716Y-68162D01*
X58716Y-68162D02*
X58716Y-68162D01*
X21202Y-74960D02*
X44330Y-58426D01*
X60689Y-87201D02*
X65832Y-55537D01*
X44330Y-58426D02*
X54974Y-60195D01*
X55955Y-53973D01*
X-4537Y149814D02*
X-4536Y149813D01*
X15265Y-162075D02*
X24664Y-155302D01*
X4767Y-226712D02*
X15265Y-162075D01*
X24664Y-155302D02*
X25963Y-147309D01*
X17040Y-150704D02*
X17090Y-150386D01*
X22370Y-116572D02*
X24468Y-103136D01*
X22905Y-143067D02*
X25963Y-147309D01*
X22905Y-143067D02*
X28174Y-110630D01*
X60689Y-87201D01*
X33149Y118449D02*
Y118449D01*
X17090Y-150386D02*
X22370Y-116572D01*
X56255Y-82005D02*
X58716Y-68162D01*
X58720Y-68137D02*
X60894Y-54755D01*
X-15960Y160991D02*
X-13045Y151207D01*
X-13032Y151164D01*
X-13018Y101233D02*
X-13018D01*
D66*
X117499Y-165827D02*
X117499Y-165824D01*
X89967Y-145112D02*
X89975Y-145113D01*
X117296Y-167131D02*
X117499Y-165827D01*
X126199Y-165852D02*
X127758Y-156835D01*
X-49752Y-141750D02*
X-37954Y-143639D01*
X-49755Y-141750D02*
X-49752Y-141750D01*
X90960Y-146357D02*
X100946Y-152609D01*
X87784Y-158569D02*
X87941Y-157953D01*
X74535Y-169795D02*
X84598Y-171338D01*
X76239Y-157031D02*
X87815Y-158687D01*
X-129811Y-62628D02*
X-128427Y-53907D01*
X-125379Y-34709D01*
X76229Y-157045D02*
X76237Y-157046D01*
X87807Y-158789D01*
X99023Y-160479D01*
X78035Y-145018D02*
X78130Y-145033D01*
X88098Y-146560D01*
X125983Y-167100D02*
X126197Y-165862D01*
X126199Y-165852D01*
X116218Y-174066D02*
X117294Y-167140D01*
X117296Y-167131D01*
X117499Y-165827D02*
Y-165827D01*
D67*
X-55341Y-185660D02*
X-28309Y-165669D01*
X-68523Y-195409D02*
X-55341Y-185660D01*
X130253Y-150714D02*
X134783Y-122171D01*
X-11682Y-188213D02*
X-7848Y-162603D01*
X-54706Y-220030D02*
X-11682Y-188213D01*
X134783Y-122171D02*
X134789Y-122135D01*
X134783Y-122171D02*
Y-122171D01*
D68*
X125971Y-167168D02*
X125973Y-167158D01*
X122855Y-185769D02*
X125971Y-167168D01*
X125973Y-167158D02*
X125977Y-167133D01*
D69*
X-1383Y69584D02*
D03*
D70*
X5345Y78152D02*
D03*
D71*
X-17057Y76781D02*
D03*
M02*
