G04 Layer_Color=8388736*
%FSLAX44Y44*%
%MOMM*%
G71*
G01*
G75*
%ADD74C,1.6000*%
G04:AMPARAMS|DCode=75|XSize=1mm|YSize=0.95mm|CornerRadius=0mm|HoleSize=0mm|Usage=FLASHONLY|Rotation=307.000|XOffset=0mm|YOffset=0mm|HoleType=Round|Shape=Rectangle|*
%AMROTATEDRECTD75*
4,1,4,-0.6803,0.1135,0.0784,0.6852,0.6803,-0.1135,-0.0784,-0.6852,-0.6803,0.1135,0.0*
%
%ADD75ROTATEDRECTD75*%

%ADD76C,2.0000*%
%ADD77C,0.7000*%
G04:AMPARAMS|DCode=78|XSize=1.35mm|YSize=0.6mm|CornerRadius=0mm|HoleSize=0mm|Usage=FLASHONLY|Rotation=555.000|XOffset=0mm|YOffset=0mm|HoleType=Round|Shape=Round|*
%AMOVALD78*
21,1,0.7500,0.6000,0.0000,0.0000,555.0*
1,1,0.6000,0.3622,0.0971*
1,1,0.6000,-0.3622,-0.0971*
%
%ADD78OVALD78*%

D74*
X-141000Y-32750D02*
X-8750Y-65250D01*
X14750Y-50250D02*
X159000Y-17500D01*
X8750Y-83500D02*
X153000Y-50750D01*
X-135000Y-66500D02*
X-14750Y-95750D01*
X-141000Y42000D02*
X-8750Y61250D01*
X8448Y117657D02*
X176916Y90827D01*
X14749Y148740D02*
X170965Y123862D01*
X-147000Y72750D02*
X-14750Y91750D01*
D75*
X-137572Y215547D02*
D03*
X-127189Y223371D02*
D03*
D76*
X-129158Y173483D02*
D03*
X155000Y71000D02*
D03*
X-77000Y-226000D02*
D03*
D77*
X-107938Y-141324D02*
D03*
X-104573Y-153881D02*
D03*
X-111302Y-128767D02*
D03*
X-99961Y-132457D02*
D03*
X-96596Y-145014D02*
D03*
D78*
X-95497Y-175002D02*
D03*
X-114003Y-105938D02*
D03*
M02*
