G04 Layer_Physical_Order=3*
G04 Layer_Color=6736896*
%FSLAX44Y44*%
%MOMM*%
G71*
G01*
G75*
%ADD10C,0.9000*%
%ADD14C,1.0000*%
%ADD16C,0.1250*%
%ADD17C,0.2000*%
%ADD18C,0.1500*%
G04:AMPARAMS|DCode=20|XSize=0.9mm|YSize=1.65mm|CornerRadius=0mm|HoleSize=0mm|Usage=FLASHONLY|Rotation=285.000|XOffset=0mm|YOffset=0mm|HoleType=Round|Shape=Round|*
%AMOVALD20*
21,1,0.7500,0.9000,0.0000,0.0000,15.0*
1,1,0.9000,-0.3622,-0.0971*
1,1,0.9000,0.3622,0.0971*
%
%ADD20OVALD20*%

%ADD21C,0.6000*%
%ADD22C,0.3000*%
G36*
X-5620Y207054D02*
X28999Y197540D01*
X63415Y187229D01*
X101364Y174854D01*
X138897Y161550D01*
X151589Y156685D01*
X149858Y145757D01*
X148770Y145281D01*
X147970Y145815D01*
X146019Y146204D01*
X144068Y145815D01*
X142414Y144710D01*
X141309Y143056D01*
X140921Y141106D01*
X141309Y139155D01*
X142414Y137501D01*
X144068Y136396D01*
X146019Y136008D01*
X147343Y136271D01*
X148227Y135456D01*
X139184Y78363D01*
X127332Y80241D01*
X124829Y64438D01*
X128723Y63821D01*
X129123Y62905D01*
X128543Y62036D01*
X128155Y60085D01*
X128543Y58134D01*
X129648Y56480D01*
X131302Y55375D01*
X133253Y54987D01*
X134509Y55237D01*
X135387Y54392D01*
X130580Y24041D01*
X168112Y18096D01*
X175927Y16953D01*
X176513Y16143D01*
X173826Y743D01*
X164927Y-44644D01*
X155040Y-89801D01*
X144194Y-134611D01*
X132390Y-179084D01*
X129597Y-187157D01*
X125845Y-194758D01*
X121171Y-201829D01*
X115649Y-208261D01*
X109367Y-213951D01*
X102422Y-218811D01*
X94923Y-222764D01*
X86927Y-225770D01*
X74991Y-229283D01*
X62915Y-232557D01*
X41448Y-237706D01*
X19734Y-242069D01*
X-2162Y-245630D01*
X-26619Y-248635D01*
X-51013Y-250622D01*
X-75313Y-251599D01*
X-80707Y-251154D01*
X-85799Y-249657D01*
X-90483Y-247162D01*
X-94566Y-243770D01*
X-97879Y-239623D01*
X-100338Y-234786D01*
X-106099Y-219456D01*
X-111621Y-203914D01*
X-120948Y-175359D01*
X-128453Y-149606D01*
X-135142Y-123718D01*
X-141606Y-94866D01*
X-147059Y-65907D01*
X-151505Y-36830D01*
X-154647Y-10557D01*
X-156976Y15840D01*
X-158490Y42359D01*
X-159187Y69006D01*
X-159064Y95776D01*
X-159051Y96145D01*
X-158278Y96781D01*
X-31667Y76727D01*
X-26537Y109116D01*
X17000Y103911D01*
X17418Y103003D01*
X17032Y102425D01*
X16644Y100474D01*
X17032Y98523D01*
X18137Y96869D01*
X18596Y96562D01*
X18108Y95686D01*
X9011Y99826D01*
X8789Y100941D01*
X7684Y102594D01*
X6030Y103700D01*
X4079Y104088D01*
X2128Y103700D01*
X474Y102594D01*
X-631Y100941D01*
X-1019Y98990D01*
X-631Y97039D01*
X474Y95385D01*
X2128Y94280D01*
X4079Y93892D01*
X6030Y94280D01*
X6690Y94721D01*
X39557Y79763D01*
X39779Y78649D01*
X40884Y76995D01*
X42538Y75890D01*
X44489Y75501D01*
X46439Y75890D01*
X48093Y76995D01*
X48716Y77926D01*
X50010Y78264D01*
X51961Y77876D01*
X53911Y78264D01*
X55565Y79369D01*
X56670Y81023D01*
X57053Y81128D01*
X58097Y81170D01*
X59045Y81608D01*
X59045Y81608D01*
X78124Y95496D01*
X78125Y95496D01*
X78833Y96264D01*
X79193Y97244D01*
X80447Y105203D01*
X81450Y105356D01*
X81482Y105351D01*
X97721Y83042D01*
X97337Y81113D01*
X97725Y79162D01*
X98831Y77508D01*
X100485Y76403D01*
X102435Y76015D01*
X104386Y76403D01*
X106040Y77508D01*
X107145Y79162D01*
X107533Y81113D01*
X107145Y83064D01*
X106107Y84618D01*
X107292Y85409D01*
X108397Y87063D01*
X108785Y89014D01*
X108397Y90965D01*
X107292Y92619D01*
X105638Y93724D01*
X103687Y94112D01*
X103337Y94043D01*
X92061Y109534D01*
X98669Y151491D01*
X100304Y152584D01*
X101409Y154238D01*
X101593Y155164D01*
X102794Y154925D01*
X102723Y154572D01*
X103111Y152621D01*
X104216Y150967D01*
X105870Y149862D01*
X107821Y149474D01*
X109772Y149862D01*
X111426Y150967D01*
X112531Y152621D01*
X112661Y153274D01*
X114326Y152943D01*
X116277Y153331D01*
X117931Y154436D01*
X119036Y156090D01*
X119424Y158041D01*
X119036Y159992D01*
X117931Y161646D01*
X116277Y162751D01*
X114326Y163139D01*
X112375Y162751D01*
X110722Y161646D01*
X109616Y159992D01*
X109487Y159338D01*
X108020Y159630D01*
X108090Y159984D01*
X107702Y161935D01*
X106597Y163589D01*
X104943Y164694D01*
X102992Y165082D01*
X101041Y164694D01*
X99388Y163589D01*
X98362Y162053D01*
X97697Y162127D01*
X97371Y162234D01*
X97025Y163973D01*
X95920Y165627D01*
X94266Y166732D01*
X92315Y167120D01*
X90365Y166732D01*
X88711Y165627D01*
X87778Y164231D01*
X86747Y164394D01*
X86420Y166041D01*
X85315Y167695D01*
X83661Y168800D01*
X81710Y169188D01*
X79759Y168800D01*
X78105Y167695D01*
X77000Y166041D01*
X76812Y165097D01*
X75450Y165368D01*
X73677Y165015D01*
X73353Y165082D01*
X72623Y165597D01*
X72310Y167170D01*
X71205Y168824D01*
X69551Y169929D01*
X67600Y170317D01*
X65649Y169929D01*
X63995Y168824D01*
X62890Y167170D01*
X62502Y165219D01*
X62572Y164869D01*
X59298Y162486D01*
X59298Y162486D01*
X58590Y161719D01*
X58229Y160739D01*
Y160739D01*
X49102Y102786D01*
X47467Y101693D01*
X46362Y100040D01*
X45974Y98089D01*
X46362Y96138D01*
X47467Y94484D01*
X49121Y93379D01*
X51072Y92991D01*
X52404Y93256D01*
X53005Y92356D01*
X52510Y91614D01*
X52122Y89663D01*
X52210Y89221D01*
X52060Y89139D01*
X50936Y89665D01*
X50869Y89998D01*
X49764Y91652D01*
X48110Y92757D01*
X46159Y93145D01*
X44798Y92874D01*
X27072Y107887D01*
X26837Y108017D01*
X26633Y108192D01*
X26363Y108280D01*
X26115Y108417D01*
X25848Y108448D01*
X25593Y108531D01*
X-24943Y114574D01*
X-25547Y115371D01*
X-24845Y119801D01*
X-24734Y120361D01*
X-24746Y120424D01*
X-20968Y144276D01*
X-20091Y144756D01*
X-872Y136348D01*
X772Y135872D01*
X2483Y135839D01*
X4144Y136249D01*
X5643Y137075D01*
X6877Y138261D01*
X7762Y139727D01*
X8237Y141371D01*
X8271Y143082D01*
X7861Y144743D01*
X7034Y146242D01*
X5848Y147476D01*
X4383Y148361D01*
X-12942Y155940D01*
X-13031Y156936D01*
X-12353Y157389D01*
X-11248Y159043D01*
X-10860Y160994D01*
X-11248Y162945D01*
X-12353Y164598D01*
X-14007Y165704D01*
X-15958Y166092D01*
X-16706Y165943D01*
X-17427Y166636D01*
X-13614Y190708D01*
X-12698Y191108D01*
X-11883Y190564D01*
X-9932Y190175D01*
X-7981Y190564D01*
X-6327Y191669D01*
X-5222Y193323D01*
X-4834Y195273D01*
X-5222Y197224D01*
X-6327Y198878D01*
X-7981Y199983D01*
X-9932Y200371D01*
X-11081Y200143D01*
X-11337Y201427D01*
X-11805Y202129D01*
X-10935Y207624D01*
X-10101Y208176D01*
X-5620Y207054D01*
D02*
G37*
%LPC*%
G36*
X-21128Y-115980D02*
X-23079Y-116368D01*
X-24733Y-117473D01*
X-25838Y-119127D01*
X-26226Y-121078D01*
X-25838Y-123029D01*
X-24733Y-124683D01*
X-23079Y-125788D01*
X-21128Y-126176D01*
X-19177Y-125788D01*
X-17523Y-124683D01*
X-16418Y-123029D01*
X-16030Y-121078D01*
X-16418Y-119127D01*
X-17523Y-117473D01*
X-19177Y-116368D01*
X-21128Y-115980D01*
D02*
G37*
G36*
X57351Y-138765D02*
X55400Y-139153D01*
X53746Y-140258D01*
X52641Y-141912D01*
X52253Y-143863D01*
X52641Y-145814D01*
X53746Y-147468D01*
X55400Y-148573D01*
X57351Y-148961D01*
X59302Y-148573D01*
X60956Y-147468D01*
X62061Y-145814D01*
X62449Y-143863D01*
X62061Y-141912D01*
X60956Y-140258D01*
X59302Y-139153D01*
X57351Y-138765D01*
D02*
G37*
G36*
X78130Y-139935D02*
X76179Y-140323D01*
X74525Y-141428D01*
X73420Y-143082D01*
X73032Y-145033D01*
X73420Y-146983D01*
X74525Y-148637D01*
X76179Y-149742D01*
X78130Y-150130D01*
X80081Y-149742D01*
X81735Y-148637D01*
X82840Y-146983D01*
X83228Y-145033D01*
X82840Y-143082D01*
X81735Y-141428D01*
X80081Y-140323D01*
X78130Y-139935D01*
D02*
G37*
G36*
X142466Y-35507D02*
X140515Y-35896D01*
X138861Y-37001D01*
X137756Y-38654D01*
X137368Y-40605D01*
X137756Y-42556D01*
X138861Y-44210D01*
X140515Y-45315D01*
X142466Y-45703D01*
X144417Y-45315D01*
X146071Y-44210D01*
X147176Y-42556D01*
X147564Y-40605D01*
X147176Y-38654D01*
X146071Y-37001D01*
X144417Y-35896D01*
X142466Y-35507D01*
D02*
G37*
G36*
X133500Y-74402D02*
X131549Y-74790D01*
X129895Y-75895D01*
X128790Y-77549D01*
X128402Y-79500D01*
X128790Y-81451D01*
X129118Y-81941D01*
X128517Y-82841D01*
X127519Y-82643D01*
X125568Y-83031D01*
X123914Y-84136D01*
X122809Y-85790D01*
X122421Y-87741D01*
X122809Y-89692D01*
X123914Y-91346D01*
X125568Y-92451D01*
X127519Y-92839D01*
X129470Y-92451D01*
X131124Y-91346D01*
X132229Y-89692D01*
X132617Y-87741D01*
X132229Y-85790D01*
X131901Y-85299D01*
X132502Y-84399D01*
X133500Y-84598D01*
X135451Y-84210D01*
X137105Y-83105D01*
X138210Y-81451D01*
X138598Y-79500D01*
X138210Y-77549D01*
X137105Y-75895D01*
X135451Y-74790D01*
X133500Y-74402D01*
D02*
G37*
G36*
X-110381Y-98412D02*
X-112077Y-98635D01*
X-119322Y-100576D01*
X-120903Y-101231D01*
X-122261Y-102273D01*
X-123303Y-103631D01*
X-123958Y-105212D01*
X-124181Y-106909D01*
X-123958Y-108606D01*
X-123303Y-110187D01*
X-122261Y-111545D01*
X-120903Y-112586D01*
X-119322Y-113241D01*
X-117625Y-113465D01*
X-115928Y-113241D01*
X-108684Y-111300D01*
X-107102Y-110645D01*
X-105745Y-109603D01*
X-104703Y-108246D01*
X-104048Y-106664D01*
X-103825Y-104968D01*
X-104048Y-103271D01*
X-104703Y-101690D01*
X-105745Y-100332D01*
X-107102Y-99290D01*
X-108684Y-98635D01*
X-110381Y-98412D01*
D02*
G37*
G36*
X79606Y-195040D02*
X77655Y-195428D01*
X76001Y-196534D01*
X74896Y-198187D01*
X74508Y-200138D01*
X74896Y-202089D01*
X76001Y-203743D01*
X77655Y-204848D01*
X79606Y-205236D01*
X81557Y-204848D01*
X83210Y-203743D01*
X84316Y-202089D01*
X84704Y-200138D01*
X84316Y-198187D01*
X83210Y-196534D01*
X81557Y-195428D01*
X79606Y-195040D01*
D02*
G37*
G36*
X39004Y-197827D02*
X37053Y-198215D01*
X35399Y-199320D01*
X34294Y-200974D01*
X33906Y-202925D01*
X34294Y-204876D01*
X35399Y-206530D01*
X37053Y-207635D01*
X39004Y-208023D01*
X40955Y-207635D01*
X42608Y-206530D01*
X43714Y-204876D01*
X44102Y-202925D01*
X43714Y-200974D01*
X42608Y-199320D01*
X40955Y-198215D01*
X39004Y-197827D01*
D02*
G37*
G36*
X-44159Y-236668D02*
X-46110Y-237056D01*
X-47764Y-238162D01*
X-48869Y-239815D01*
X-49257Y-241766D01*
X-48869Y-243717D01*
X-47764Y-245371D01*
X-46110Y-246476D01*
X-44159Y-246864D01*
X-42208Y-246476D01*
X-40554Y-245371D01*
X-39449Y-243717D01*
X-39061Y-241766D01*
X-39449Y-239815D01*
X-40554Y-238162D01*
X-42208Y-237056D01*
X-44159Y-236668D01*
D02*
G37*
G36*
X18659Y-145533D02*
X16708Y-145921D01*
X15055Y-147027D01*
X13949Y-148680D01*
X13561Y-150631D01*
X13949Y-152582D01*
X15055Y-154236D01*
X16708Y-155341D01*
X18659Y-155729D01*
X20610Y-155341D01*
X22264Y-154236D01*
X23369Y-152582D01*
X23757Y-150631D01*
X23369Y-148680D01*
X22264Y-147027D01*
X20610Y-145921D01*
X18659Y-145533D01*
D02*
G37*
G36*
X117975Y-146853D02*
X116024Y-147241D01*
X114370Y-148346D01*
X113265Y-150000D01*
X112877Y-151951D01*
X113265Y-153902D01*
X114370Y-155556D01*
X116024Y-156661D01*
X117975Y-157049D01*
X119925Y-156661D01*
X121579Y-155556D01*
X122684Y-153902D01*
X123073Y-151951D01*
X122684Y-150000D01*
X121579Y-148346D01*
X119925Y-147241D01*
X117975Y-146853D01*
D02*
G37*
G36*
X-36741Y-181351D02*
X-38691Y-181739D01*
X-40345Y-182844D01*
X-41451Y-184498D01*
X-41838Y-186449D01*
X-41451Y-188400D01*
X-40345Y-190054D01*
X-38691Y-191159D01*
X-36741Y-191547D01*
X-34790Y-191159D01*
X-33136Y-190054D01*
X-32031Y-188400D01*
X-31643Y-186449D01*
X-32031Y-184498D01*
X-33136Y-182844D01*
X-34790Y-181739D01*
X-36741Y-181351D01*
D02*
G37*
G36*
X-17250Y78848D02*
X-19201Y78460D01*
X-20855Y77355D01*
X-21960Y75701D01*
X-22348Y73750D01*
X-21960Y71799D01*
X-20855Y70145D01*
X-19201Y69040D01*
X-17250Y68652D01*
X-15299Y69040D01*
X-13645Y70145D01*
X-12540Y71799D01*
X-12152Y73750D01*
X-12540Y75701D01*
X-13645Y77355D01*
X-15299Y78460D01*
X-17250Y78848D01*
D02*
G37*
G36*
X42059Y134243D02*
X40108Y133855D01*
X38454Y132750D01*
X37349Y131096D01*
X36961Y129145D01*
X37349Y127194D01*
X38454Y125540D01*
X40108Y124435D01*
X42059Y124047D01*
X44010Y124435D01*
X45664Y125540D01*
X46769Y127194D01*
X47157Y129145D01*
X46769Y131096D01*
X45664Y132750D01*
X44010Y133855D01*
X42059Y134243D01*
D02*
G37*
G36*
X-78728Y34998D02*
X-80679Y34610D01*
X-82333Y33505D01*
X-83438Y31851D01*
X-83827Y29900D01*
X-83438Y27949D01*
X-82350Y26321D01*
X-83496Y25555D01*
X-84601Y23901D01*
X-84990Y21950D01*
X-84601Y20000D01*
X-83987Y19080D01*
X-84223Y17720D01*
X-84599Y17469D01*
X-85704Y15816D01*
X-86092Y13865D01*
X-85704Y11914D01*
X-84599Y10260D01*
X-82945Y9155D01*
X-80994Y8767D01*
X-79043Y9155D01*
X-77389Y10260D01*
X-76284Y11914D01*
X-75896Y13865D01*
X-76284Y15816D01*
X-76898Y16735D01*
X-76662Y18095D01*
X-76287Y18346D01*
X-75182Y20000D01*
X-74794Y21950D01*
X-75182Y23901D01*
X-76270Y25530D01*
X-75124Y26295D01*
X-74019Y27949D01*
X-73631Y29900D01*
X-74019Y31851D01*
X-75124Y33505D01*
X-76778Y34610D01*
X-78728Y34998D01*
D02*
G37*
G36*
X115540Y122580D02*
X113589Y122192D01*
X111936Y121087D01*
X110830Y119433D01*
X110442Y117482D01*
X110830Y115531D01*
X111936Y113877D01*
X113589Y112772D01*
X114595Y112572D01*
X121902Y98118D01*
X116115Y66577D01*
X115136Y66375D01*
X114832Y66830D01*
X113178Y67935D01*
X111227Y68323D01*
X109276Y67935D01*
X107622Y66830D01*
X106517Y65176D01*
X106129Y63225D01*
X106517Y61274D01*
X107492Y59815D01*
X95328Y-6475D01*
X95330Y-6638D01*
X95182Y-7383D01*
X95570Y-9334D01*
X96675Y-10988D01*
X98329Y-12093D01*
X100280Y-12481D01*
X102231Y-12093D01*
X103885Y-10988D01*
X104990Y-9334D01*
X105378Y-7383D01*
X104990Y-5432D01*
X103885Y-3778D01*
X102244Y-2682D01*
X113354Y57868D01*
X113513Y57936D01*
X114399Y57227D01*
X108637Y25822D01*
X108654Y24629D01*
X109128Y23533D01*
X116945Y12201D01*
X116341Y11316D01*
X114549Y10960D01*
X112895Y9855D01*
X111790Y8201D01*
X111402Y6250D01*
X111790Y4299D01*
X112895Y2645D01*
X113737Y2083D01*
X112962Y923D01*
X112574Y-1028D01*
X112962Y-2979D01*
X114067Y-4633D01*
X115721Y-5738D01*
X117672Y-6126D01*
X119623Y-5738D01*
X121277Y-4633D01*
X122382Y-2979D01*
X122770Y-1028D01*
X122382Y923D01*
X121277Y2577D01*
X120435Y3139D01*
X121210Y4299D01*
X121519Y5852D01*
X121632Y6264D01*
X122540Y6640D01*
X156390Y428D01*
X158085Y-2212D01*
X140845Y-85607D01*
X139450Y-86539D01*
X138345Y-88193D01*
X137957Y-90144D01*
X138345Y-92095D01*
X139186Y-93354D01*
X121757Y-173235D01*
X120736Y-173225D01*
X120642Y-172753D01*
X119537Y-171099D01*
X117883Y-169994D01*
X115932Y-169606D01*
X113981Y-169994D01*
X112327Y-171099D01*
X111222Y-172753D01*
X110834Y-174704D01*
X111222Y-176655D01*
X112327Y-178309D01*
X113981Y-179414D01*
X114920Y-179601D01*
X115249Y-180686D01*
X105322Y-190612D01*
X104401Y-190120D01*
X104606Y-189085D01*
X104218Y-187134D01*
X103113Y-185481D01*
X101459Y-184375D01*
X100109Y-184107D01*
X100025Y-183688D01*
X98920Y-182034D01*
X97266Y-180929D01*
X95316Y-180541D01*
X93365Y-180929D01*
X91711Y-182034D01*
X90606Y-183688D01*
X90218Y-185639D01*
X90597Y-187546D01*
X89719Y-188860D01*
X89331Y-190811D01*
X89719Y-192761D01*
X90824Y-194415D01*
X92478Y-195520D01*
X94429Y-195909D01*
X96380Y-195520D01*
X98034Y-194415D01*
X98344Y-193952D01*
X99508Y-194183D01*
X100543Y-193978D01*
X101035Y-194899D01*
X78923Y-217011D01*
X58230D01*
X57695Y-216011D01*
X58190Y-215270D01*
X58578Y-213319D01*
X58190Y-211368D01*
X57085Y-209714D01*
X55431Y-208609D01*
X53480Y-208221D01*
X51529Y-208609D01*
X49875Y-209714D01*
X49340Y-210515D01*
X-55824D01*
X-73193Y-140271D01*
X-72300Y-139715D01*
X-70437Y-140085D01*
X-68486Y-139697D01*
X-66894Y-138633D01*
X-55844Y-152289D01*
X-55994Y-153277D01*
X-56265Y-153458D01*
X-57370Y-155112D01*
X-57758Y-157063D01*
X-57370Y-159014D01*
X-56265Y-160668D01*
X-54611Y-161773D01*
X-52660Y-162161D01*
X-50709Y-161773D01*
X-49060Y-160671D01*
X-32110Y-181618D01*
X-31853Y-181832D01*
X-31611Y-182062D01*
X-31549Y-182085D01*
X-31498Y-182127D01*
X-31179Y-182227D01*
X-30867Y-182346D01*
X29939Y-192705D01*
X30100Y-192701D01*
X30256Y-192734D01*
X30494Y-192690D01*
X30735Y-192683D01*
X30881Y-192618D01*
X31039Y-192588D01*
X68155Y-177753D01*
X68877Y-178458D01*
X68895Y-178534D01*
X67824Y-180137D01*
X67436Y-182088D01*
X67824Y-184039D01*
X68929Y-185693D01*
X70583Y-186798D01*
X72534Y-187186D01*
X74485Y-186798D01*
X76139Y-185693D01*
X77244Y-184039D01*
X77632Y-182088D01*
X77244Y-180137D01*
X76139Y-178483D01*
X74485Y-177378D01*
X73630Y-177208D01*
X72957Y-176055D01*
X73041Y-175800D01*
X76076Y-174587D01*
X76486Y-174505D01*
X78140Y-173400D01*
X79245Y-171746D01*
X79633Y-169795D01*
X79625Y-169753D01*
X88854Y-160523D01*
X89031Y-160258D01*
X89261Y-160037D01*
X89414Y-159685D01*
X89628Y-159366D01*
X89690Y-159053D01*
X89817Y-158761D01*
X119312Y-23582D01*
X126842Y-16477D01*
X127009Y-16510D01*
X128960Y-16122D01*
X130614Y-15017D01*
X131719Y-13363D01*
X132107Y-11413D01*
X131719Y-9462D01*
X130614Y-7808D01*
X128960Y-6703D01*
X127009Y-6314D01*
X125058Y-6703D01*
X123405Y-7808D01*
X122299Y-9462D01*
X121935Y-11294D01*
X113612Y-19148D01*
X113397Y-19450D01*
X113131Y-19706D01*
X112998Y-20011D01*
X112805Y-20283D01*
X112722Y-20643D01*
X112574Y-20983D01*
X83067Y-156217D01*
X82285Y-156999D01*
X81254Y-156615D01*
X80949Y-155080D01*
X79844Y-153426D01*
X78190Y-152321D01*
X76239Y-151933D01*
X74288Y-152321D01*
X72634Y-153426D01*
X71529Y-155080D01*
X71141Y-157031D01*
X71529Y-158982D01*
X72634Y-160636D01*
X74288Y-161741D01*
X75824Y-162046D01*
X76207Y-163077D01*
X74578Y-164706D01*
X74535Y-164697D01*
X74450Y-164715D01*
X696Y-154893D01*
X481Y-153917D01*
X18208Y-142663D01*
X18412Y-142469D01*
X18650Y-142316D01*
X18804Y-142094D01*
X19000Y-141908D01*
X19114Y-141650D01*
X19275Y-141418D01*
X93293Y28203D01*
X94330Y28410D01*
X95984Y29515D01*
X97089Y31169D01*
X97477Y33120D01*
X97089Y35071D01*
X95984Y36724D01*
X94330Y37829D01*
X92379Y38218D01*
X90428Y37829D01*
X88774Y36724D01*
X87669Y35071D01*
X87281Y33120D01*
X87669Y31169D01*
X88153Y30445D01*
X72973Y-4342D01*
X71973Y-4384D01*
X67601Y3701D01*
X67859Y4087D01*
X68247Y6038D01*
X67859Y7989D01*
X67810Y8064D01*
X68531Y8785D01*
X69164Y8361D01*
X71115Y7973D01*
X73066Y8361D01*
X74720Y9466D01*
X75825Y11120D01*
X76213Y13071D01*
X75825Y15022D01*
X74720Y16676D01*
X73066Y17781D01*
X71115Y18169D01*
X69164Y17781D01*
X67510Y16676D01*
X66405Y15022D01*
X66017Y13071D01*
X66405Y11120D01*
X66455Y11046D01*
X65734Y10325D01*
X65100Y10748D01*
X63149Y11136D01*
X61199Y10748D01*
X60785Y10472D01*
X59887Y10911D01*
X55946Y65350D01*
X56454Y65690D01*
X57559Y67343D01*
X57947Y69294D01*
X57559Y71245D01*
X56454Y72899D01*
X54800Y74004D01*
X52849Y74392D01*
X50898Y74004D01*
X49244Y72899D01*
X48139Y71245D01*
X47839Y69735D01*
X46826Y69209D01*
X46451Y69460D01*
X44500Y69848D01*
X42549Y69460D01*
X40895Y68355D01*
X39790Y66701D01*
X39402Y64750D01*
X39790Y62799D01*
X40895Y61145D01*
X42549Y60040D01*
X44500Y59652D01*
X45807Y59912D01*
X47458Y58484D01*
X47904Y52322D01*
X47039Y51819D01*
X46714Y52036D01*
X44763Y52424D01*
X44093Y52291D01*
X39343Y57616D01*
X38965Y57901D01*
X38602Y58206D01*
X38530Y58229D01*
X38469Y58275D01*
X38103Y58370D01*
X37968Y58515D01*
X37636Y59471D01*
X37863Y59810D01*
X38251Y61761D01*
X37863Y63712D01*
X36758Y65366D01*
X35104Y66471D01*
X33153Y66859D01*
X31202Y66471D01*
X29548Y65366D01*
X28443Y63712D01*
X28055Y61761D01*
X28291Y60573D01*
X27453Y59660D01*
X-11940Y64037D01*
X-11975Y64034D01*
X-12007Y64043D01*
X-12519Y63987D01*
X-13030Y63943D01*
X-13061Y63927D01*
X-13095Y63924D01*
X-13545Y63676D01*
X-14001Y63439D01*
X-14024Y63413D01*
X-14054Y63397D01*
X-46869Y35823D01*
X-48250Y36098D01*
X-50201Y35710D01*
X-51855Y34605D01*
X-52960Y32951D01*
X-53312Y31181D01*
X-53662Y30686D01*
X-54042Y30306D01*
X-54250Y30348D01*
X-56201Y29960D01*
X-57855Y28855D01*
X-58960Y27201D01*
X-59348Y25250D01*
X-58960Y23299D01*
X-57855Y21645D01*
X-56201Y20540D01*
X-54250Y20152D01*
X-52299Y20540D01*
X-50645Y21645D01*
X-50344Y22097D01*
X-46088Y21727D01*
X-45000Y21847D01*
X-44042Y22374D01*
X-44042Y22374D01*
X-40536Y25320D01*
X-40536Y25320D01*
X-39852Y26173D01*
X-39546Y27224D01*
X-39300Y30056D01*
X-10112Y54583D01*
X9262Y52497D01*
X9686Y51590D01*
X9336Y51067D01*
X8948Y49117D01*
X9336Y47166D01*
X10441Y45512D01*
X12095Y44407D01*
X14046Y44019D01*
X15997Y44407D01*
X16839Y44969D01*
X18218Y44697D01*
X18478Y44307D01*
X20132Y43202D01*
X22083Y42814D01*
X24034Y43202D01*
X25688Y44307D01*
X26793Y45961D01*
X27181Y47912D01*
X26846Y49597D01*
X27453Y50538D01*
X30108Y50252D01*
X40395Y38442D01*
X40139Y37153D01*
X40527Y35202D01*
X41632Y33548D01*
X43286Y32443D01*
X45237Y32055D01*
X47188Y32443D01*
X48287Y33177D01*
X49326Y32669D01*
X51541Y2073D01*
X51553Y2031D01*
X51549Y1987D01*
X51697Y1505D01*
X51831Y1018D01*
X51858Y983D01*
X51871Y941D01*
X59137Y-12494D01*
X39512Y-57467D01*
X38470Y-57354D01*
X38350Y-56748D01*
X37245Y-55095D01*
X35591Y-53990D01*
X33640Y-53601D01*
X31689Y-53990D01*
X30035Y-55095D01*
X28930Y-56748D01*
X28542Y-58699D01*
X28930Y-60650D01*
X30035Y-62304D01*
X31689Y-63409D01*
X33640Y-63797D01*
X35591Y-63409D01*
X35926Y-63185D01*
X36725Y-63854D01*
X35741Y-66110D01*
X33761Y-66957D01*
X-25953Y-40900D01*
X-26159Y-39862D01*
X-27264Y-38209D01*
X-28918Y-37104D01*
X-30869Y-36715D01*
X-32820Y-37104D01*
X-34474Y-38209D01*
X-34882Y-38819D01*
X-35943Y-38608D01*
X-36019Y-38228D01*
X-37124Y-36574D01*
X-38778Y-35469D01*
X-40729Y-35081D01*
X-42680Y-35469D01*
X-44334Y-36574D01*
X-44778Y-37239D01*
X-45840Y-37028D01*
X-45928Y-36588D01*
X-47033Y-34934D01*
X-48686Y-33829D01*
X-50637Y-33441D01*
X-50679Y-33449D01*
X-53397Y-29404D01*
X-54172Y-28633D01*
X-55184Y-28217D01*
X-65015Y-26288D01*
X-139284Y84251D01*
X-139274Y84267D01*
X-138886Y86218D01*
X-139274Y88169D01*
X-140379Y89823D01*
X-142033Y90928D01*
X-143984Y91316D01*
X-145935Y90928D01*
X-147589Y89823D01*
X-148243Y88844D01*
X-149409Y89623D01*
X-151360Y90011D01*
X-153311Y89623D01*
X-154965Y88518D01*
X-156070Y86864D01*
X-156458Y84913D01*
X-156070Y82962D01*
X-154965Y81308D01*
X-153311Y80203D01*
X-151360Y79815D01*
X-151318Y79824D01*
X-81361Y-24297D01*
X-81372Y-24313D01*
X-81760Y-26264D01*
X-81372Y-28215D01*
X-80267Y-29869D01*
X-78613Y-30974D01*
X-76662Y-31362D01*
X-74711Y-30974D01*
X-73057Y-29869D01*
X-71952Y-28215D01*
X-71869Y-27797D01*
X-70888Y-27601D01*
X-69022Y-30379D01*
X-68246Y-31151D01*
X-67235Y-31567D01*
X-64152Y-32171D01*
X-63956Y-33152D01*
X-64264Y-33358D01*
X-65369Y-35012D01*
X-65757Y-36962D01*
X-65369Y-38913D01*
X-64264Y-40567D01*
X-62610Y-41672D01*
X-60659Y-42060D01*
X-58708Y-41672D01*
X-57054Y-40567D01*
X-56513Y-39757D01*
X-55451Y-39968D01*
X-55347Y-40490D01*
X-54242Y-42143D01*
X-52588Y-43249D01*
X-50637Y-43636D01*
X-48686Y-43249D01*
X-47033Y-42143D01*
X-46588Y-41478D01*
X-45526Y-41689D01*
X-45439Y-42130D01*
X-44334Y-43784D01*
X-42680Y-44889D01*
X-40729Y-45277D01*
X-39855Y-45103D01*
X-35353Y-49740D01*
X-34452Y-50361D01*
X-33382Y-50590D01*
X-25060Y-50712D01*
X32984Y-76041D01*
X33008Y-76046D01*
X33028Y-76059D01*
X33542Y-76162D01*
X34053Y-76274D01*
X34076Y-76270D01*
X34100Y-76275D01*
X34614Y-76173D01*
X35130Y-76081D01*
X35150Y-76068D01*
X35173Y-76063D01*
X37731Y-75010D01*
X38431Y-75724D01*
X28779Y-97841D01*
X28032Y-98349D01*
X26092Y-97963D01*
X24141Y-98351D01*
X22487Y-99457D01*
X21962D01*
X21183Y-98291D01*
X19529Y-97186D01*
X17578Y-96798D01*
X15627Y-97186D01*
X13973Y-98291D01*
X12868Y-99945D01*
X12480Y-101896D01*
X12868Y-103847D01*
X13973Y-105501D01*
X15627Y-106606D01*
X17578Y-106994D01*
X19529Y-106606D01*
X21183Y-105501D01*
X21709D01*
X22487Y-106666D01*
X24141Y-107771D01*
X26092Y-108159D01*
X26761Y-108026D01*
X27388Y-108805D01*
X20076Y-125562D01*
X19034Y-125449D01*
X18982Y-125191D01*
X17877Y-123537D01*
X16223Y-122432D01*
X14273Y-122044D01*
X12322Y-122432D01*
X10668Y-123537D01*
X9563Y-125191D01*
X9175Y-127142D01*
X9563Y-129093D01*
X10668Y-130747D01*
X12322Y-131852D01*
X14273Y-132240D01*
X16223Y-131852D01*
X16309Y-131795D01*
X17076Y-132436D01*
X14478Y-138389D01*
X-6213Y-151524D01*
X-6535Y-151550D01*
X-7370Y-151300D01*
X-7469Y-151208D01*
X-10340Y-147535D01*
X-9964Y-146397D01*
X-9466Y-146249D01*
X-8718Y-146749D01*
X-6767Y-147137D01*
X-4816Y-146749D01*
X-3162Y-145644D01*
X-2057Y-143990D01*
X-1669Y-142039D01*
X-2057Y-140088D01*
X-3162Y-138434D01*
X-4816Y-137329D01*
X-6767Y-136941D01*
X-8641Y-137314D01*
X-9799Y-136540D01*
X-11750Y-136152D01*
X-13701Y-136540D01*
X-13701Y-136540D01*
X-14913Y-135730D01*
X-16864Y-135342D01*
X-18815Y-135730D01*
X-19309Y-136060D01*
X-41429Y-107760D01*
X-40870Y-106852D01*
X-40050Y-107014D01*
X-38099Y-106626D01*
X-36445Y-105521D01*
X-35340Y-103867D01*
X-34952Y-101917D01*
X-35340Y-99966D01*
X-36445Y-98312D01*
X-38099Y-97207D01*
X-40050Y-96819D01*
X-42001Y-97207D01*
X-43655Y-98312D01*
X-43957Y-98763D01*
X-45018Y-98552D01*
X-45209Y-97595D01*
X-46314Y-95941D01*
X-47968Y-94836D01*
X-49918Y-94448D01*
X-51671Y-94796D01*
X-51675Y-94789D01*
X-51825Y-94461D01*
X-51854Y-94435D01*
X-51871Y-94400D01*
X-70735Y-70267D01*
X-70868Y-70152D01*
X-70973Y-70010D01*
X-71167Y-69895D01*
X-71337Y-69747D01*
X-71505Y-69692D01*
X-71656Y-69602D01*
X-124545Y-50719D01*
X-124824Y-50302D01*
X-126477Y-49196D01*
X-128428Y-48808D01*
X-130379Y-49196D01*
X-132033Y-50302D01*
X-132392Y-50838D01*
X-133392Y-50535D01*
Y4301D01*
X-129457Y8235D01*
X-128513Y8047D01*
X-126562Y8435D01*
X-124949Y9513D01*
X-124149Y8316D01*
X-122495Y7211D01*
X-120544Y6823D01*
X-118593Y7211D01*
X-116961Y8301D01*
X-116119Y7040D01*
X-114465Y5935D01*
X-112514Y5547D01*
X-110563Y5935D01*
X-108909Y7040D01*
X-107804Y8694D01*
X-107416Y10645D01*
X-107804Y12596D01*
X-108909Y14250D01*
X-110563Y15355D01*
X-112514Y15743D01*
X-114465Y15355D01*
X-116097Y14265D01*
X-116939Y15525D01*
X-118593Y16630D01*
X-120544Y17018D01*
X-122495Y16630D01*
X-124108Y15553D01*
X-124908Y16750D01*
X-126562Y17855D01*
X-128513Y18243D01*
X-130463Y17855D01*
X-132117Y16750D01*
X-133223Y15096D01*
X-133610Y13145D01*
X-133423Y12200D01*
X-138178Y7445D01*
X-138786Y6535D01*
X-138999Y5462D01*
Y-67157D01*
X-138968Y-67316D01*
X-138981Y-67476D01*
X-138862Y-67847D01*
X-138786Y-68230D01*
X-138696Y-68364D01*
X-138647Y-68518D01*
X-138395Y-68815D01*
X-138178Y-69140D01*
X-138044Y-69229D01*
X-137940Y-69352D01*
X-90534Y-107018D01*
X-90770Y-107990D01*
X-91231Y-108082D01*
X-92885Y-109187D01*
X-93962Y-110798D01*
X-119485Y-117118D01*
X-119694Y-117216D01*
X-119921Y-117261D01*
X-120227Y-117466D01*
X-120561Y-117622D01*
X-120563Y-117624D01*
X-120565Y-117625D01*
X-120721Y-117796D01*
X-120913Y-117924D01*
X-121118Y-118231D01*
X-121366Y-118503D01*
X-121369Y-118507D01*
X-121369Y-118507D01*
X-121369Y-118508D01*
X-123585Y-122165D01*
X-123586Y-122168D01*
X-123587Y-122170D01*
X-123792Y-122737D01*
X-123992Y-123287D01*
X-123992Y-123290D01*
X-123993Y-123292D01*
X-123966Y-123877D01*
X-123939Y-124480D01*
X-123938Y-124482D01*
X-123938Y-124484D01*
X-100122Y-220804D01*
X-100024Y-221014D01*
X-99979Y-221241D01*
X-99773Y-221549D01*
X-99615Y-221884D01*
X-99444Y-222040D01*
X-99316Y-222233D01*
X-99007Y-222439D01*
X-98733Y-222689D01*
X-98516Y-222767D01*
X-98323Y-222896D01*
X-97959Y-222968D01*
X-97611Y-223094D01*
X-97380Y-223084D01*
X-97153Y-223129D01*
X80190D01*
X80190Y-223129D01*
X81361Y-222896D01*
X82353Y-222233D01*
X113606Y-190980D01*
X114382Y-191618D01*
X113869Y-192386D01*
X113481Y-194337D01*
X113869Y-196288D01*
X114974Y-197942D01*
X116628Y-199047D01*
X118579Y-199435D01*
X120530Y-199047D01*
X122184Y-197942D01*
X123289Y-196288D01*
X123677Y-194337D01*
X123289Y-192386D01*
X122184Y-190732D01*
X120530Y-189627D01*
X118579Y-189239D01*
X116628Y-189627D01*
X115859Y-190141D01*
X115222Y-189364D01*
X126454Y-178132D01*
X126606Y-177905D01*
X126803Y-177715D01*
X126934Y-177413D01*
X127117Y-177140D01*
X127170Y-176872D01*
X127280Y-176621D01*
X145140Y-94764D01*
X146660Y-93749D01*
X147765Y-92095D01*
X148153Y-90144D01*
X147765Y-88193D01*
X146843Y-86813D01*
X164329Y-2228D01*
X164333Y-1647D01*
X164344Y-1067D01*
X164338Y-1051D01*
X164338Y-1035D01*
X164119Y-495D01*
X163907Y44D01*
X160820Y4851D01*
X160784Y4888D01*
X160764Y4935D01*
X160371Y5316D01*
X159992Y5710D01*
X159944Y5730D01*
X159908Y5766D01*
X159399Y5968D01*
X158897Y6186D01*
X158846Y6187D01*
X158798Y6206D01*
X140698Y9527D01*
X140309Y10448D01*
X140710Y11049D01*
X141098Y13000D01*
X140710Y14951D01*
X139605Y16605D01*
X137951Y17710D01*
X136000Y18098D01*
X134049Y17710D01*
X132395Y16605D01*
X131290Y14951D01*
X130902Y13000D01*
X131074Y12134D01*
X130372Y11422D01*
X124124Y12569D01*
X118890Y20155D01*
X119340Y21264D01*
X120523Y21499D01*
X122177Y22604D01*
X123282Y24258D01*
X123670Y26209D01*
X123282Y28160D01*
X122177Y29814D01*
X120523Y30919D01*
X118572Y31307D01*
X116816Y30958D01*
X115908Y31554D01*
X128105Y98027D01*
X128099Y98420D01*
X128147Y98809D01*
X128091Y99011D01*
X128088Y99220D01*
X127932Y99581D01*
X127827Y99959D01*
X120082Y115279D01*
X120250Y115531D01*
X120638Y117482D01*
X120250Y119433D01*
X119145Y121087D01*
X117491Y122192D01*
X115540Y122580D01*
D02*
G37*
G36*
X120653Y150108D02*
X118702Y149720D01*
X117048Y148615D01*
X115943Y146961D01*
X115555Y145010D01*
X115943Y143060D01*
X117048Y141406D01*
X118702Y140301D01*
X120653Y139912D01*
X122604Y140301D01*
X124258Y141406D01*
X125363Y143060D01*
X125751Y145010D01*
X125363Y146961D01*
X124258Y148615D01*
X122604Y149720D01*
X120653Y150108D01*
D02*
G37*
G36*
X49238Y170144D02*
X47288Y169755D01*
X45634Y168650D01*
X44528Y166996D01*
X44141Y165046D01*
X44528Y163095D01*
X45634Y161441D01*
X47288Y160336D01*
X49238Y159948D01*
X51189Y160336D01*
X52843Y161441D01*
X53948Y163095D01*
X54336Y165046D01*
X53948Y166996D01*
X52843Y168650D01*
X51189Y169755D01*
X49238Y170144D01*
D02*
G37*
G36*
X24632Y138011D02*
X22681Y137623D01*
X21027Y136518D01*
X19922Y134864D01*
X19534Y132913D01*
X19922Y130962D01*
X21027Y129308D01*
X22681Y128203D01*
X24632Y127815D01*
X26583Y128203D01*
X28237Y129308D01*
X29342Y130962D01*
X29730Y132913D01*
X29342Y134864D01*
X28237Y136518D01*
X26583Y137623D01*
X24632Y138011D01*
D02*
G37*
G36*
X133531Y148041D02*
X131580Y147654D01*
X129926Y146548D01*
X128821Y144895D01*
X128433Y142944D01*
X128821Y140993D01*
X129926Y139339D01*
X131580Y138234D01*
X133531Y137846D01*
X135482Y138234D01*
X137136Y139339D01*
X138241Y140993D01*
X138629Y142944D01*
X138241Y144895D01*
X137136Y146548D01*
X135482Y147654D01*
X133531Y148041D01*
D02*
G37*
G36*
X81011Y-13612D02*
X79060Y-14000D01*
X77406Y-15105D01*
X76301Y-16759D01*
X75913Y-18710D01*
X76301Y-20661D01*
X77406Y-22315D01*
X79060Y-23420D01*
X81011Y-23808D01*
X82962Y-23420D01*
X84616Y-22315D01*
X85721Y-20661D01*
X86109Y-18710D01*
X85721Y-16759D01*
X84616Y-15105D01*
X82962Y-14000D01*
X81011Y-13612D01*
D02*
G37*
G36*
X45540Y-15666D02*
X43589Y-16054D01*
X41935Y-17159D01*
X40830Y-18813D01*
X40442Y-20764D01*
X40830Y-22715D01*
X41935Y-24369D01*
X43589Y-25474D01*
X45540Y-25862D01*
X47491Y-25474D01*
X49145Y-24369D01*
X50250Y-22715D01*
X50638Y-20764D01*
X50250Y-18813D01*
X49145Y-17159D01*
X47491Y-16054D01*
X45540Y-15666D01*
D02*
G37*
G36*
X97511Y-39314D02*
X95560Y-39702D01*
X93906Y-40807D01*
X93205Y-41857D01*
X92801Y-42461D01*
X91923Y-42112D01*
X91054Y-41532D01*
X89103Y-41144D01*
X87153Y-41532D01*
X85499Y-42637D01*
X84394Y-44291D01*
X84005Y-46242D01*
X84394Y-48193D01*
X85499Y-49847D01*
X87153Y-50952D01*
X89103Y-51340D01*
X91054Y-50952D01*
X92708Y-49847D01*
X93410Y-48796D01*
X93813Y-48193D01*
X94691Y-48541D01*
X95560Y-49122D01*
X97511Y-49510D01*
X99462Y-49122D01*
X101116Y-48017D01*
X102221Y-46363D01*
X102609Y-44412D01*
X102221Y-42461D01*
X101116Y-40807D01*
X99462Y-39702D01*
X97511Y-39314D01*
D02*
G37*
G36*
X2642Y40305D02*
X-2642D01*
X-7880Y39615D01*
X-12983Y38248D01*
X-17865Y36226D01*
X-22440Y33584D01*
X-26632Y30368D01*
X-28500Y28500D01*
X-30368Y26632D01*
X-33584Y22440D01*
X-36226Y17865D01*
X-38248Y12983D01*
X-39615Y7880D01*
X-40305Y2642D01*
Y-2642D01*
X-39615Y-7880D01*
X-38248Y-12983D01*
X-36226Y-17865D01*
X-33584Y-22440D01*
X-30368Y-26632D01*
X-28500Y-28500D01*
X-26632Y-30368D01*
X-22440Y-33584D01*
X-17865Y-36226D01*
X-12983Y-38248D01*
X-7880Y-39615D01*
X-2642Y-40305D01*
X2642D01*
X7880Y-39615D01*
X12983Y-38248D01*
X17865Y-36226D01*
X22440Y-33584D01*
X26632Y-30368D01*
X28500Y-28500D01*
X30368Y-26632D01*
X33584Y-22440D01*
X36226Y-17865D01*
X38248Y-12983D01*
X39615Y-7880D01*
X40305Y-2642D01*
Y2642D01*
X39615Y7880D01*
X38248Y12983D01*
X36226Y17865D01*
X33584Y22440D01*
X30368Y26632D01*
X28500Y28500D01*
X26632Y30368D01*
X22440Y33584D01*
X17865Y36226D01*
X12983Y38248D01*
X7880Y39615D01*
X2642Y40305D01*
D02*
G37*
%LPD*%
G36*
X-72341Y-71522D02*
X-53478Y-95656D01*
X-53523Y-95941D01*
X-54628Y-97595D01*
X-55016Y-99546D01*
X-54628Y-101497D01*
X-53523Y-103151D01*
X-51869Y-104256D01*
X-49918Y-104644D01*
X-47968Y-104256D01*
X-47172Y-103724D01*
X-20848Y-137402D01*
X-21574Y-138489D01*
X-21962Y-140440D01*
X-21574Y-142391D01*
X-20469Y-144045D01*
X-18815Y-145150D01*
X-16864Y-145538D01*
X-14913Y-145150D01*
X-14913Y-145150D01*
X-14660Y-145319D01*
X-9075Y-152464D01*
X-9245Y-153449D01*
X-16571Y-158099D01*
X-16686Y-158022D01*
X-18637Y-157634D01*
X-20588Y-158022D01*
X-22242Y-159127D01*
X-23347Y-160781D01*
X-23735Y-162732D01*
X-23347Y-164683D01*
X-22242Y-166337D01*
X-20588Y-167442D01*
X-18637Y-167830D01*
X-16686Y-167442D01*
X-15032Y-166337D01*
X-13927Y-164683D01*
X-13558Y-162829D01*
X-3432Y-156401D01*
X74914Y-166833D01*
X75495Y-172623D01*
X30282Y-190695D01*
X-30525Y-180336D01*
X-47916Y-158843D01*
X-47562Y-157063D01*
X-47950Y-155112D01*
X-49055Y-153458D01*
X-50709Y-152353D01*
X-52660Y-151965D01*
X-53368Y-152106D01*
X-65710Y-136854D01*
X-65339Y-134987D01*
X-65727Y-133036D01*
X-66832Y-131383D01*
X-68486Y-130277D01*
X-70437Y-129889D01*
X-71220Y-130045D01*
X-77702Y-122035D01*
X-81159Y-108050D01*
X-81317Y-107715D01*
X-81430Y-107363D01*
X-81547Y-107224D01*
X-81624Y-107060D01*
X-81898Y-106811D01*
X-82137Y-106528D01*
X-91834Y-98823D01*
X-91401Y-97890D01*
X-91076Y-97955D01*
X-89126Y-97566D01*
X-87472Y-96461D01*
X-86367Y-94808D01*
X-85979Y-92857D01*
X-86367Y-90906D01*
X-87472Y-89252D01*
X-89126Y-88147D01*
X-91076Y-87759D01*
X-93027Y-88147D01*
X-94681Y-89252D01*
X-95786Y-90906D01*
X-96174Y-92857D01*
X-95881Y-94330D01*
X-96791Y-94885D01*
X-104858Y-88475D01*
X-130699Y-56542D01*
X-127551Y-51811D01*
X-72341Y-71522D01*
D02*
G37*
%LPC*%
G36*
X-47954Y-123478D02*
X-49905Y-123866D01*
X-51559Y-124971D01*
X-52664Y-126625D01*
X-53052Y-128575D01*
X-52664Y-130526D01*
X-51559Y-132180D01*
X-49905Y-133285D01*
X-47954Y-133673D01*
X-46003Y-133285D01*
X-44350Y-132180D01*
X-43245Y-130526D01*
X-42856Y-128575D01*
X-43245Y-126625D01*
X-44350Y-124971D01*
X-46003Y-123866D01*
X-47954Y-123478D01*
D02*
G37*
G36*
X-49753Y-136654D02*
X-51704Y-137042D01*
X-53358Y-138147D01*
X-54463Y-139801D01*
X-54851Y-141752D01*
X-54463Y-143703D01*
X-53358Y-145357D01*
X-51704Y-146462D01*
X-49753Y-146850D01*
X-47802Y-146462D01*
X-46148Y-145357D01*
X-45043Y-143703D01*
X-44655Y-141752D01*
X-45043Y-139801D01*
X-46148Y-138147D01*
X-47802Y-137042D01*
X-49753Y-136654D01*
D02*
G37*
G36*
X6727Y-166780D02*
X4777Y-167168D01*
X3123Y-168273D01*
X2018Y-169927D01*
X1630Y-171878D01*
X2018Y-173829D01*
X3123Y-175483D01*
X4777Y-176588D01*
X6727Y-176976D01*
X8678Y-176588D01*
X10332Y-175483D01*
X11437Y-173829D01*
X11825Y-171878D01*
X11437Y-169927D01*
X10332Y-168273D01*
X8678Y-167168D01*
X6727Y-166780D01*
D02*
G37*
G36*
X-46565Y-112435D02*
X-48516Y-112823D01*
X-50170Y-113928D01*
X-51275Y-115582D01*
X-51663Y-117533D01*
X-51275Y-119484D01*
X-50170Y-121138D01*
X-48516Y-122243D01*
X-46565Y-122631D01*
X-44614Y-122243D01*
X-42960Y-121138D01*
X-41855Y-119484D01*
X-41467Y-117533D01*
X-41855Y-115582D01*
X-42960Y-113928D01*
X-44614Y-112823D01*
X-46565Y-112435D01*
D02*
G37*
%LPD*%
D10*
X-24501Y153841D02*
X1755Y142354D01*
D14*
X-107938Y-141324D02*
D03*
X-104573Y-153881D02*
D03*
X-111302Y-128767D02*
D03*
X-99961Y-132457D02*
D03*
X-96596Y-145014D02*
D03*
D16*
X83640Y106935D02*
X92315Y162022D01*
X69944Y164850D02*
X69955Y164918D01*
X69944Y164850D02*
X69944Y164850D01*
X69955Y164919D02*
X69961Y164955D01*
X69955Y164918D02*
X69955Y164919D01*
X75549Y160254D02*
X75551Y160270D01*
X75549Y160254D02*
Y160254D01*
X71642Y100162D02*
X81710Y164090D01*
X89245Y108856D02*
X103687Y89014D01*
X76550Y97660D02*
X86071Y158117D01*
X83640Y106935D02*
X102435Y81113D01*
X69944Y164850D02*
Y164850D01*
X51072Y98089D02*
X60873Y160322D01*
X67600Y165219D01*
X57470Y83772D02*
X76550Y97660D01*
X53508Y84396D02*
X57470Y83772D01*
X66516Y102899D02*
X75549Y160254D01*
X89245Y108856D02*
X96699Y156189D01*
X57220Y89663D02*
X71642Y100162D01*
X58377Y96974D02*
X66516Y102899D01*
D17*
X143019Y-90136D02*
X143069Y-89906D01*
X124291Y-175969D02*
X143019Y-90136D01*
X143266Y-89003D02*
X161333Y-1609D01*
X122326Y9789D02*
X158246Y3198D01*
X161333Y-1609D01*
X143069Y-89906D02*
X143266Y-89004D01*
X111645Y25270D02*
X122326Y9789D01*
X111645Y25270D02*
X125097Y98579D01*
X-97153Y-220070D02*
X80190D01*
X124291Y-175969D01*
X-120969Y-123750D02*
X-118750Y-120087D01*
Y-120087D01*
X-89281Y-112790D01*
X-120969Y-123750D02*
X-97153Y-220070D01*
X115540Y117482D02*
X125097Y98579D01*
X98337Y-7027D02*
X111227Y63225D01*
D18*
X-143984Y86218D02*
X-66695Y-28815D01*
X-151360Y84913D02*
X-76662Y-26264D01*
X-136196Y5462D02*
X-128513Y13145D01*
X-54250Y25250D02*
X-45845Y24521D01*
X-42340Y27466D01*
X-41993Y31456D01*
X-11000Y57499D01*
X31500Y52922D01*
X-12250Y61250D02*
X37250Y55750D01*
X-48250Y31000D02*
X-12250Y61250D01*
X-33341Y-47786D02*
X-24455Y-47917D01*
X-40729Y-40179D02*
X-33341Y-47786D01*
X54338Y2275D02*
X62254Y-12363D01*
X50170Y59845D02*
X54338Y2275D01*
X26092Y-103061D02*
X26122Y-103041D01*
X31026Y-99704D01*
X57639Y3118D02*
X65834Y-12035D01*
X31026Y-99704D02*
X70908Y-8308D01*
X63149Y6038D02*
X70908Y-8308D01*
X-18637Y-162732D02*
X16705Y-140296D01*
X92379Y33120D01*
X-136196Y-67157D02*
Y5462D01*
Y-67157D02*
X-83881Y-108723D01*
X-58019Y-213319D01*
X53480D01*
X-31031Y112478D02*
X25260Y105747D01*
X-66695Y-28815D02*
X-55724Y-30968D01*
X-50637Y-38539D01*
X25952Y-103430D02*
X26110Y-103069D01*
X26122Y-103041D01*
X37866Y-68250D02*
X62254Y-12363D01*
X-30869Y-41813D02*
X33750Y-70011D01*
X37866Y-68250D01*
X34106Y-73471D02*
X40104Y-71000D01*
X65834Y-12035D01*
X-24455Y-47917D02*
X34106Y-73471D01*
X44500Y64750D02*
X50170Y59845D01*
X31500Y52922D02*
X45237Y37153D01*
X37250Y55750D02*
X44763Y47326D01*
X52849Y69294D02*
X57639Y3118D01*
X25260Y105747D02*
X46159Y88047D01*
X4079Y98990D02*
X44489Y80599D01*
D20*
X-95497Y-175002D02*
D03*
X-114003Y-105938D02*
D03*
D21*
X-38421Y162958D02*
D03*
X-24253Y155196D02*
D03*
X143055Y-90144D02*
D03*
X127519Y-87741D02*
D03*
X-143984Y86218D02*
D03*
X-151360Y84913D02*
D03*
X-120544Y11920D02*
D03*
X-128513Y13145D02*
D03*
X-79892Y21950D02*
D03*
X-80994Y13865D02*
D03*
X33153Y61761D02*
D03*
X-48250Y31000D02*
D03*
X-49918Y-99546D02*
D03*
X-46565Y-117533D02*
D03*
X-40050Y-101917D02*
D03*
X-128428Y-53906D02*
D03*
X-54250Y25250D02*
D03*
X-21128Y-121078D02*
D03*
X-91076Y-92857D02*
D03*
X97511Y-44412D02*
D03*
X89103Y-46242D02*
D03*
X-15958Y160994D02*
D03*
X-81882Y-189939D02*
D03*
X81011Y-18710D02*
D03*
X133531Y142944D02*
D03*
X15978Y134067D02*
D03*
X120653Y145010D02*
D03*
X2561Y143465D02*
D03*
X146019Y141106D02*
D03*
X-4620Y99898D02*
D03*
X-55391Y-185592D02*
D03*
X17578Y-101896D02*
D03*
X-16046Y199476D02*
D03*
X-21756Y204166D02*
D03*
X92315Y162022D02*
D03*
X67600Y165219D02*
D03*
X-30869Y-41813D02*
D03*
X-40729Y-40179D02*
D03*
X-50637Y-38539D02*
D03*
X63149Y6038D02*
D03*
X26092Y-103061D02*
D03*
X45540Y-20764D02*
D03*
X-139176Y128020D02*
D03*
X-136713Y140431D02*
D03*
X-70437Y-134987D02*
D03*
X-89281Y-112792D02*
D03*
X-82154Y-181647D02*
D03*
X81710Y164090D02*
D03*
X51072Y98089D02*
D03*
X-126673Y208627D02*
D03*
X-146378Y135746D02*
D03*
X33640Y-58699D02*
D03*
X92379Y33120D02*
D03*
X4079Y98990D02*
D03*
X21742Y100474D02*
D03*
X24632Y132913D02*
D03*
X-52660Y-157063D02*
D03*
X-18637Y-162732D02*
D03*
X-36741Y-186449D02*
D03*
X-47954Y-128575D02*
D03*
X-49753Y-141752D02*
D03*
X6727Y-171878D02*
D03*
X118579Y-194337D02*
D03*
X76239Y-157031D02*
D03*
X74535Y-169795D02*
D03*
X39004Y-202925D02*
D03*
X79606Y-200138D02*
D03*
X72534Y-182088D02*
D03*
X53480Y-213319D02*
D03*
X-29832Y120361D02*
D03*
X-31031Y112478D02*
D03*
X-32457Y104817D02*
D03*
X103687Y89014D02*
D03*
X102435Y81113D02*
D03*
X-9932Y195273D02*
D03*
X75450Y160270D02*
D03*
X86071Y158117D02*
D03*
X114326Y158041D02*
D03*
X49238Y165046D02*
D03*
X-47207Y195662D02*
D03*
X-112514Y10645D02*
D03*
X-78728Y29900D02*
D03*
X71115Y13071D02*
D03*
X-44159Y-241766D02*
D03*
X-60659Y-36962D02*
D03*
X0Y0D02*
D03*
X99508Y-189085D02*
D03*
X94429Y-190811D02*
D03*
X95316Y-185639D02*
D03*
X-16864Y-140440D02*
D03*
X-11750Y-141250D02*
D03*
X-6767Y-142039D02*
D03*
X-76148Y118703D02*
D03*
X-124634Y157768D02*
D03*
X-119941Y187399D02*
D03*
X-93273Y183175D02*
D03*
X-97967Y153545D02*
D03*
X-66606Y178952D02*
D03*
X-71299Y149321D02*
D03*
X-115092Y218017D02*
D03*
X-87436Y213637D02*
D03*
X-61756Y209570D02*
D03*
X-102816Y122926D02*
D03*
X-129484Y127150D02*
D03*
X100280Y-7383D02*
D03*
X115932Y-174704D02*
D03*
X117975Y-151951D02*
D03*
X78130Y-145033D02*
D03*
X57351Y-143863D02*
D03*
X18659Y-150631D02*
D03*
X14273Y-127142D02*
D03*
X102992Y159984D02*
D03*
X107821Y154572D02*
D03*
X96699Y156189D02*
D03*
X14046Y49117D02*
D03*
X22083Y47912D02*
D03*
X45237Y37153D02*
D03*
X44763Y47326D02*
D03*
X52849Y69294D02*
D03*
X46159Y88047D02*
D03*
X44489Y80599D02*
D03*
X57220Y89663D02*
D03*
X51961Y82974D02*
D03*
X42059Y129145D02*
D03*
X58377Y96974D02*
D03*
X-17250Y73750D02*
D03*
X-76662Y-26264D02*
D03*
X44500Y64750D02*
D03*
X115540Y117482D02*
D03*
X111227Y63225D02*
D03*
X133500Y-79500D02*
D03*
X142466Y-40605D02*
D03*
X116500Y6250D02*
D03*
X133253Y60085D02*
D03*
X118572Y26209D02*
D03*
X136000Y13000D02*
D03*
X148177Y-4154D02*
D03*
X127009Y-11413D02*
D03*
X117672Y-1028D02*
D03*
D22*
X74535Y-169795D02*
X86331Y-158000D01*
X116061Y-21743D01*
X127009Y-11413D01*
M02*
