G04 Layer_Color=32896*
%FSLAX44Y44*%
%MOMM*%
G71*
G01*
G75*
%ADD17C,0.2000*%
%ADD73C,0.1000*%
G04:AMPARAMS|DCode=122|XSize=0.3mm|YSize=0.75mm|CornerRadius=0mm|HoleSize=0mm|Usage=FLASHONLY|Rotation=81.000|XOffset=0mm|YOffset=0mm|HoleType=Round|Shape=Rectangle|*
%AMROTATEDRECTD122*
4,1,4,0.3469,-0.2068,-0.3938,-0.0895,-0.3469,0.2068,0.3938,0.0895,0.3469,-0.2068,0.0*
%
%ADD122ROTATEDRECTD122*%

G04:AMPARAMS|DCode=123|XSize=0.3mm|YSize=0.75mm|CornerRadius=0mm|HoleSize=0mm|Usage=FLASHONLY|Rotation=351.000|XOffset=0mm|YOffset=0mm|HoleType=Round|Shape=Rectangle|*
%AMROTATEDRECTD123*
4,1,4,-0.2068,-0.3469,-0.0895,0.3938,0.2068,0.3469,0.0895,-0.3938,-0.2068,-0.3469,0.0*
%
%ADD123ROTATEDRECTD123*%

G04:AMPARAMS|DCode=124|XSize=0.3mm|YSize=0.75mm|CornerRadius=0mm|HoleSize=0mm|Usage=FLASHONLY|Rotation=195.000|XOffset=0mm|YOffset=0mm|HoleType=Round|Shape=Rectangle|*
%AMROTATEDRECTD124*
4,1,4,0.0478,0.4011,0.2419,-0.3234,-0.0478,-0.4011,-0.2419,0.3234,0.0478,0.4011,0.0*
%
%ADD124ROTATEDRECTD124*%

G36*
X-45010Y-12380D02*
X-45684Y-16635D01*
X-42399Y-12794D01*
X-41166Y-12989D01*
X-42167Y-19308D01*
X-43345Y-19122D01*
X-42685Y-14957D01*
X-45911Y-18715D01*
X-47189Y-18513D01*
X-46189Y-12193D01*
X-45010Y-12380D01*
D02*
G37*
G36*
X-84670Y-6099D02*
X-83614Y-8831D01*
X-81729Y-6564D01*
X-80241Y-6800D01*
X-83131Y-10096D01*
X-83552Y-12753D01*
X-84831Y-12551D01*
X-84411Y-9903D01*
X-86140Y-5866D01*
X-84670Y-6099D01*
D02*
G37*
G36*
X-38536Y-13405D02*
X-39091Y-16912D01*
X-39113Y-17049D01*
X-39133Y-17177D01*
X-39143Y-17297D01*
X-39160Y-17407D01*
X-39166Y-17499D01*
X-39180Y-17591D01*
X-39184Y-17674D01*
X-39196Y-17747D01*
X-39195Y-17860D01*
X-39199Y-17944D01*
X-39197Y-17991D01*
X-39200Y-18009D01*
X-39191Y-18132D01*
X-39161Y-18240D01*
X-39121Y-18340D01*
X-39079Y-18430D01*
X-39035Y-18503D01*
X-38996Y-18556D01*
X-38964Y-18589D01*
X-38956Y-18600D01*
X-38858Y-18690D01*
X-38730Y-18767D01*
X-38608Y-18823D01*
X-38475Y-18872D01*
X-38359Y-18909D01*
X-38270Y-18933D01*
X-38233Y-18939D01*
X-38206Y-18943D01*
X-38187Y-18946D01*
X-38178Y-18948D01*
X-37985Y-18969D01*
X-37816Y-18967D01*
X-37664Y-18954D01*
X-37529Y-18929D01*
X-37432Y-18907D01*
X-37353Y-18882D01*
X-37313Y-18860D01*
X-37293Y-18854D01*
X-37178Y-18778D01*
X-37078Y-18682D01*
X-36989Y-18593D01*
X-36928Y-18500D01*
X-36877Y-18414D01*
X-36838Y-18346D01*
X-36812Y-18303D01*
X-36809Y-18284D01*
X-36792Y-18231D01*
X-36774Y-18178D01*
X-36762Y-18105D01*
X-36740Y-18024D01*
X-36704Y-17852D01*
X-36675Y-17669D01*
X-36639Y-17506D01*
X-36628Y-17433D01*
X-36616Y-17360D01*
X-36608Y-17305D01*
X-36602Y-17269D01*
X-36597Y-17241D01*
X-36596Y-17232D01*
X-36052Y-13799D01*
X-34774Y-14001D01*
X-35309Y-17380D01*
X-35339Y-17572D01*
X-35377Y-17753D01*
X-35405Y-17926D01*
X-35438Y-18080D01*
X-35471Y-18225D01*
X-35500Y-18351D01*
X-35528Y-18469D01*
X-35564Y-18575D01*
X-35587Y-18665D01*
X-35610Y-18746D01*
X-35630Y-18818D01*
X-35648Y-18871D01*
X-35664Y-18915D01*
X-35669Y-18943D01*
X-35681Y-18959D01*
X-35682Y-18968D01*
X-35749Y-19098D01*
X-35815Y-19219D01*
X-35898Y-19327D01*
X-35969Y-19419D01*
X-36038Y-19502D01*
X-36095Y-19568D01*
X-36138Y-19598D01*
X-36150Y-19615D01*
X-36278Y-19717D01*
X-36414Y-19807D01*
X-36556Y-19878D01*
X-36688Y-19942D01*
X-36799Y-19990D01*
X-36897Y-20021D01*
X-36956Y-20040D01*
X-36967Y-20047D01*
X-36976Y-20046D01*
X-37073Y-20068D01*
X-37178Y-20080D01*
X-37415Y-20098D01*
X-37649Y-20099D01*
X-37871Y-20082D01*
X-37973Y-20075D01*
X-38075Y-20069D01*
X-38157Y-20055D01*
X-38241Y-20052D01*
X-38305Y-20041D01*
X-38350Y-20034D01*
X-38378Y-20030D01*
X-38387Y-20029D01*
X-38650Y-19977D01*
X-38885Y-19921D01*
X-39089Y-19852D01*
X-39257Y-19788D01*
X-39328Y-19767D01*
X-39399Y-19737D01*
X-39450Y-19710D01*
X-39493Y-19685D01*
X-39528Y-19670D01*
X-39554Y-19656D01*
X-39562Y-19646D01*
X-39571Y-19644D01*
X-39724Y-19545D01*
X-39855Y-19431D01*
X-39970Y-19328D01*
X-40067Y-19229D01*
X-40138Y-19143D01*
X-40193Y-19078D01*
X-40223Y-19036D01*
X-40230Y-19016D01*
X-40310Y-18872D01*
X-40370Y-18722D01*
X-40414Y-18584D01*
X-40449Y-18448D01*
X-40468Y-18332D01*
X-40481Y-18237D01*
X-40486Y-18208D01*
X-40481Y-18180D01*
X-40489Y-18170D01*
X-40487Y-18161D01*
X-40490Y-18057D01*
X-40491Y-17945D01*
X-40490Y-17823D01*
X-40480Y-17703D01*
X-40455Y-17426D01*
X-40432Y-17158D01*
X-40413Y-17040D01*
X-40394Y-16921D01*
X-40386Y-16810D01*
X-40371Y-16719D01*
X-40360Y-16646D01*
X-40350Y-16582D01*
X-40344Y-16545D01*
X-40342Y-16536D01*
X-39815Y-13203D01*
X-38536Y-13405D01*
D02*
G37*
G36*
X-72999Y-7947D02*
X-74000Y-14266D01*
X-75279Y-14064D01*
X-74278Y-7745D01*
X-72999Y-7947D01*
D02*
G37*
G36*
X-62580Y-9597D02*
X-61134Y-16304D01*
X-62485Y-16090D01*
X-62779Y-14574D01*
X-65317Y-14172D01*
X-66092Y-15519D01*
X-67471Y-15300D01*
X-63931Y-9383D01*
X-62580Y-9597D01*
D02*
G37*
G36*
X-50840Y-11363D02*
X-50720Y-11373D01*
X-50618Y-11379D01*
X-50535Y-11383D01*
X-50480Y-11392D01*
X-50434Y-11399D01*
X-50425Y-11401D01*
X-50098Y-11462D01*
X-49811Y-11545D01*
X-49688Y-11592D01*
X-49564Y-11640D01*
X-49450Y-11686D01*
X-49354Y-11730D01*
X-49268Y-11781D01*
X-49181Y-11822D01*
X-49122Y-11860D01*
X-49061Y-11888D01*
X-49019Y-11923D01*
X-48984Y-11938D01*
X-48969Y-11959D01*
X-48960Y-11960D01*
X-48703Y-12170D01*
X-48600Y-12289D01*
X-48496Y-12399D01*
X-48402Y-12517D01*
X-48317Y-12633D01*
X-48242Y-12748D01*
X-48174Y-12852D01*
X-48125Y-12954D01*
X-48074Y-13046D01*
X-48031Y-13128D01*
X-47995Y-13199D01*
X-47977Y-13258D01*
X-47955Y-13299D01*
X-47950Y-13328D01*
X-47943Y-13339D01*
X-47892Y-13496D01*
X-47852Y-13652D01*
X-47799Y-13970D01*
X-47774Y-14282D01*
X-47770Y-14555D01*
X-47772Y-14685D01*
X-47771Y-14798D01*
X-47778Y-14900D01*
X-47792Y-14991D01*
X-47793Y-15056D01*
X-47802Y-15111D01*
X-47808Y-15148D01*
X-47809Y-15157D01*
X-47881Y-15492D01*
X-47967Y-15797D01*
X-48075Y-16070D01*
X-48125Y-16202D01*
X-48180Y-16315D01*
X-48234Y-16419D01*
X-48277Y-16515D01*
X-48327Y-16591D01*
X-48366Y-16660D01*
X-48393Y-16712D01*
X-48418Y-16755D01*
X-48441Y-16779D01*
X-48442Y-16788D01*
X-48641Y-17038D01*
X-48852Y-17248D01*
X-49068Y-17429D01*
X-49276Y-17564D01*
X-49370Y-17624D01*
X-49462Y-17675D01*
X-49535Y-17720D01*
X-49605Y-17746D01*
X-49656Y-17775D01*
X-49706Y-17796D01*
X-49726Y-17802D01*
X-49736Y-17810D01*
X-49894Y-17859D01*
X-50041Y-17902D01*
X-50359Y-17954D01*
X-50662Y-17981D01*
X-50934Y-17985D01*
X-51065Y-17983D01*
X-51178Y-17984D01*
X-51280Y-17977D01*
X-51371Y-17963D01*
X-51436Y-17962D01*
X-51491Y-17953D01*
X-51528Y-17947D01*
X-51537Y-17946D01*
X-51827Y-17890D01*
X-52096Y-17810D01*
X-52353Y-17723D01*
X-52573Y-17632D01*
X-52669Y-17589D01*
X-52756Y-17547D01*
X-52834Y-17506D01*
X-52904Y-17476D01*
X-52956Y-17450D01*
X-52989Y-17426D01*
X-53015Y-17412D01*
X-53025Y-17411D01*
X-53281Y-17258D01*
X-53491Y-17103D01*
X-53673Y-16952D01*
X-53830Y-16824D01*
X-53944Y-16713D01*
X-53983Y-16669D01*
X-54023Y-16625D01*
X-54046Y-16593D01*
X-54071Y-16571D01*
X-54086Y-16550D01*
X-53684Y-14011D01*
X-50936Y-14446D01*
X-51105Y-15515D01*
X-52566Y-15283D01*
X-52695Y-16096D01*
X-52598Y-16196D01*
X-52491Y-16287D01*
X-52382Y-16370D01*
X-52281Y-16442D01*
X-52197Y-16502D01*
X-52121Y-16552D01*
X-52078Y-16578D01*
X-52070Y-16588D01*
X-52061Y-16590D01*
X-51924Y-16667D01*
X-51784Y-16727D01*
X-51651Y-16776D01*
X-51535Y-16813D01*
X-51427Y-16840D01*
X-51355Y-16861D01*
X-51301Y-16869D01*
X-51291Y-16871D01*
X-51282Y-16872D01*
X-51135Y-16886D01*
X-50986Y-16891D01*
X-50854Y-16884D01*
X-50720Y-16868D01*
X-50477Y-16812D01*
X-50379Y-16781D01*
X-50279Y-16741D01*
X-50188Y-16699D01*
X-50107Y-16665D01*
X-50044Y-16619D01*
X-49983Y-16591D01*
X-49941Y-16560D01*
X-49909Y-16537D01*
X-49888Y-16522D01*
X-49878Y-16514D01*
X-49778Y-16418D01*
X-49676Y-16303D01*
X-49591Y-16185D01*
X-49515Y-16057D01*
X-49379Y-15788D01*
X-49281Y-15523D01*
X-49242Y-15398D01*
X-49204Y-15273D01*
X-49179Y-15174D01*
X-49154Y-15075D01*
X-49133Y-15003D01*
X-49123Y-14939D01*
X-49117Y-14903D01*
X-49116Y-14894D01*
X-49094Y-14701D01*
X-49076Y-14526D01*
X-49076Y-14348D01*
X-49079Y-14188D01*
X-49093Y-14045D01*
X-49119Y-13910D01*
X-49146Y-13784D01*
X-49174Y-13668D01*
X-49196Y-13570D01*
X-49229Y-13481D01*
X-49264Y-13410D01*
X-49292Y-13349D01*
X-49312Y-13299D01*
X-49335Y-13268D01*
X-49342Y-13248D01*
X-49349Y-13237D01*
X-49435Y-13130D01*
X-49521Y-13023D01*
X-49621Y-12942D01*
X-49720Y-12860D01*
X-49821Y-12788D01*
X-49923Y-12725D01*
X-50123Y-12628D01*
X-50221Y-12594D01*
X-50309Y-12561D01*
X-50390Y-12539D01*
X-50462Y-12518D01*
X-50515Y-12500D01*
X-50561Y-12493D01*
X-50588Y-12489D01*
X-50597Y-12487D01*
X-50799Y-12465D01*
X-50979Y-12474D01*
X-51140Y-12486D01*
X-51286Y-12519D01*
X-51393Y-12549D01*
X-51483Y-12581D01*
X-51534Y-12610D01*
X-51554Y-12617D01*
X-51699Y-12706D01*
X-51827Y-12807D01*
X-51937Y-12912D01*
X-52020Y-13020D01*
X-52092Y-13121D01*
X-52142Y-13197D01*
X-52169Y-13249D01*
X-52179Y-13257D01*
X-52181Y-13266D01*
X-53413Y-12828D01*
X-53351Y-12678D01*
X-53272Y-12532D01*
X-53196Y-12404D01*
X-53102Y-12287D01*
X-53018Y-12170D01*
X-52928Y-12071D01*
X-52839Y-11983D01*
X-52751Y-11903D01*
X-52665Y-11832D01*
X-52590Y-11769D01*
X-52525Y-11714D01*
X-52463Y-11677D01*
X-52411Y-11648D01*
X-52369Y-11617D01*
X-52349Y-11611D01*
X-52339Y-11603D01*
X-52196Y-11532D01*
X-52048Y-11481D01*
X-51892Y-11440D01*
X-51728Y-11410D01*
X-51412Y-11366D01*
X-51111Y-11358D01*
X-50970Y-11352D01*
X-50840Y-11363D01*
D02*
G37*
G36*
X-71036Y-8258D02*
X-70233Y-13178D01*
X-67886Y-8757D01*
X-66507Y-8975D01*
X-69772Y-14936D01*
X-71151Y-14717D01*
X-72397Y-8043D01*
X-71036Y-8258D01*
D02*
G37*
G36*
X-57903Y-10385D02*
X-57661Y-10395D01*
X-57542Y-10414D01*
X-57440Y-10421D01*
X-57340Y-10437D01*
X-57256Y-10440D01*
X-57192Y-10451D01*
X-57137Y-10459D01*
X-57101Y-10465D01*
X-57092Y-10467D01*
X-54407Y-10892D01*
X-55408Y-17211D01*
X-56686Y-17008D01*
X-56268Y-14369D01*
X-56524Y-14329D01*
X-56679Y-14304D01*
X-56809Y-14293D01*
X-56920Y-14285D01*
X-57014Y-14289D01*
X-57088Y-14286D01*
X-57137Y-14297D01*
X-57166Y-14302D01*
X-57175Y-14301D01*
X-57254Y-14326D01*
X-57333Y-14351D01*
X-57404Y-14386D01*
X-57473Y-14412D01*
X-57526Y-14451D01*
X-57569Y-14482D01*
X-57590Y-14497D01*
X-57600Y-14505D01*
X-57644Y-14545D01*
X-57697Y-14583D01*
X-57819Y-14704D01*
X-57952Y-14833D01*
X-58097Y-14978D01*
X-58220Y-15109D01*
X-58278Y-15174D01*
X-58323Y-15223D01*
X-58366Y-15263D01*
X-58400Y-15295D01*
X-58413Y-15322D01*
X-58424Y-15329D01*
X-59554Y-16554D01*
X-61088Y-16311D01*
X-60116Y-15201D01*
X-60014Y-15087D01*
X-59912Y-14972D01*
X-59821Y-14874D01*
X-59732Y-14785D01*
X-59654Y-14704D01*
X-59585Y-14621D01*
X-59453Y-14501D01*
X-59354Y-14405D01*
X-59287Y-14340D01*
X-59234Y-14302D01*
X-59224Y-14294D01*
X-59106Y-14201D01*
X-58972Y-14119D01*
X-58849Y-14054D01*
X-58726Y-13989D01*
X-58625Y-13940D01*
X-58545Y-13906D01*
X-58484Y-13878D01*
X-58473Y-13870D01*
X-58464Y-13872D01*
X-58615Y-13820D01*
X-58746Y-13762D01*
X-58868Y-13705D01*
X-58989Y-13639D01*
X-59091Y-13576D01*
X-59185Y-13514D01*
X-59278Y-13453D01*
X-59351Y-13385D01*
X-59417Y-13328D01*
X-59474Y-13272D01*
X-59521Y-13218D01*
X-59552Y-13175D01*
X-59584Y-13142D01*
X-59607Y-13110D01*
X-59615Y-13100D01*
X-59623Y-13089D01*
X-59681Y-12986D01*
X-59731Y-12885D01*
X-59809Y-12667D01*
X-59851Y-12463D01*
X-59866Y-12264D01*
X-59877Y-12094D01*
X-59876Y-12029D01*
X-59866Y-11965D01*
X-59868Y-11918D01*
X-59861Y-11872D01*
X-59858Y-11854D01*
X-59856Y-11845D01*
X-59815Y-11645D01*
X-59748Y-11459D01*
X-59677Y-11302D01*
X-59608Y-11163D01*
X-59534Y-11053D01*
X-59474Y-10969D01*
X-59452Y-10945D01*
X-59429Y-10920D01*
X-59418Y-10912D01*
X-59417Y-10903D01*
X-59283Y-10765D01*
X-59144Y-10656D01*
X-59009Y-10575D01*
X-58876Y-10502D01*
X-58758Y-10465D01*
X-58668Y-10432D01*
X-58609Y-10413D01*
X-58599Y-10406D01*
X-58590Y-10407D01*
X-58494Y-10394D01*
X-58389Y-10383D01*
X-58154Y-10373D01*
X-57903Y-10385D01*
D02*
G37*
G36*
X-84180Y-122874D02*
X-87549Y-120929D01*
X-85604Y-117561D01*
X-84180Y-122874D01*
D02*
G37*
G36*
X-5600Y-103565D02*
X-11033Y-102704D01*
X-7886Y-100418D01*
X-5600Y-103565D01*
D02*
G37*
G36*
X97587Y-99823D02*
X94440Y-102109D01*
X95301Y-96676D01*
X97587Y-99823D01*
D02*
G37*
G36*
X-80931Y-134624D02*
X-84298Y-132679D01*
X-82354Y-129311D01*
X-80931Y-134624D01*
D02*
G37*
G36*
X-75054Y-7621D02*
X-75223Y-8690D01*
X-77095Y-8393D01*
X-77927Y-13644D01*
X-79205Y-13442D01*
X-78374Y-8191D01*
X-80237Y-7896D01*
X-80067Y-6827D01*
X-75054Y-7621D01*
D02*
G37*
G36*
X-22413Y-236823D02*
X-25559Y-239109D01*
X-24699Y-233676D01*
X-22413Y-236823D01*
D02*
G37*
G36*
X-105681Y-198874D02*
X-109049Y-196929D01*
X-107104Y-193561D01*
X-105681Y-198874D01*
D02*
G37*
%LPC*%
G36*
X-63479Y-10962D02*
X-64737Y-13168D01*
X-62993Y-13445D01*
X-63479Y-10962D01*
D02*
G37*
G36*
X-57739Y-11478D02*
X-57768Y-11483D01*
X-57777Y-11481D01*
X-57891Y-11491D01*
X-57997Y-11512D01*
X-58085Y-11536D01*
X-58156Y-11571D01*
X-58218Y-11608D01*
X-58268Y-11628D01*
X-58291Y-11653D01*
X-58301Y-11660D01*
X-58368Y-11725D01*
X-58428Y-11809D01*
X-58468Y-11887D01*
X-58509Y-11964D01*
X-58529Y-12036D01*
X-58547Y-12090D01*
X-58553Y-12126D01*
X-58556Y-12144D01*
X-58562Y-12246D01*
X-58568Y-12339D01*
X-58554Y-12425D01*
X-58547Y-12501D01*
X-58528Y-12560D01*
X-58506Y-12601D01*
X-58502Y-12630D01*
X-58494Y-12641D01*
X-58449Y-12713D01*
X-58403Y-12777D01*
X-58298Y-12878D01*
X-58256Y-12912D01*
X-58213Y-12938D01*
X-58189Y-12961D01*
X-58180Y-12962D01*
X-58136Y-12978D01*
X-58065Y-13008D01*
X-57994Y-13029D01*
X-57913Y-13051D01*
X-57723Y-13091D01*
X-57532Y-13130D01*
X-57351Y-13168D01*
X-57269Y-13181D01*
X-57196Y-13193D01*
X-57132Y-13203D01*
X-57086Y-13210D01*
X-57059Y-13214D01*
X-57050Y-13216D01*
X-56109Y-13365D01*
X-55855Y-11758D01*
X-56841Y-11601D01*
X-56978Y-11580D01*
X-57106Y-11559D01*
X-57215Y-11542D01*
X-57316Y-11526D01*
X-57400Y-11522D01*
X-57482Y-11509D01*
X-57546Y-11499D01*
X-57600Y-11490D01*
X-57684Y-11487D01*
X-57739Y-11478D01*
D02*
G37*
%LPD*%
D17*
X-18221Y24476D02*
G03*
X26691Y16258I18430J-26115D01*
G01*
X-12954Y9276D02*
G03*
X15079Y8229I13625J-10997D01*
G01*
X15079Y8229D02*
X26691Y16258D01*
X-12954Y9276D02*
X-5196Y8052D01*
X-7466Y-6303D02*
X-5196Y8052D01*
X-7466Y-6303D02*
X6734Y-8552D01*
X11181Y19875D01*
X-18222Y24476D02*
X11181Y19875D01*
X-143457Y117570D02*
X-65633Y105248D01*
X-146235Y100035D02*
X-143457Y117570D01*
X-68410Y87713D02*
X-65633Y105248D01*
X-146235Y100035D02*
X-68410Y87713D01*
X-74316Y25337D02*
X-72752Y35210D01*
X-82871Y-35069D02*
X-81307Y-25195D01*
X-87026Y-29350D02*
X-77152Y-30914D01*
X-74750Y93250D02*
X-73342Y102136D01*
X-77786Y102840D01*
X-79501Y101594D01*
X-79970Y98631D01*
X-78724Y96916D01*
X-74281Y96212D01*
X-77243Y96681D02*
X-80674Y94188D01*
X-88080Y95361D02*
X-85117Y94892D01*
X-83402Y96138D01*
X-82933Y99101D01*
X-84179Y100816D01*
X-87141Y101285D01*
X-88857Y100039D01*
X-89091Y98558D01*
X-83167Y97620D01*
X-91584Y101989D02*
X-95485Y96534D01*
X-97508Y102927D01*
X-101409Y97472D02*
X-101174Y98953D01*
X-102655Y99188D01*
X-102890Y97707D01*
X-101409Y97472D01*
X-117701Y100053D02*
X-120663Y100522D01*
X-119182Y100287D01*
X-117774Y109174D01*
X-116528Y107458D01*
X-125106Y101226D02*
X-124871Y102707D01*
X-126352Y102941D01*
X-126587Y101460D01*
X-125106Y101226D01*
X-137028Y112223D02*
X-131104Y111285D01*
X-131807Y106842D01*
X-134535Y108792D01*
X-136016Y109026D01*
X-137732Y107780D01*
X-138201Y104818D01*
X-136954Y103102D01*
X-133992Y102633D01*
X-132276Y103879D01*
D73*
X141694Y8815D02*
G03*
X141694Y8815I-2032J0D01*
G01*
X48207Y-35819D02*
G03*
X48207Y-35819I-2032J0D01*
G01*
X122145Y-184661D02*
G03*
X122145Y-184661I-2032J0D01*
G01*
X-8698Y54029D02*
G03*
X-8698Y54029I-2032J0D01*
G01*
X-447Y201671D02*
G03*
X-447Y201671I-2032J0D01*
G01*
X86Y-159255D02*
G03*
X86Y-159255I-2032J0D01*
G01*
X-31572Y184356D02*
G03*
X-31572Y184356I-2032J0D01*
G01*
X15129Y140002D02*
G03*
X15129Y140002I-2032J0D01*
G01*
X100141Y29999D02*
G03*
X100141Y29999I-2032J0D01*
G01*
X-123266Y-94900D02*
G03*
X-123266Y-94900I-2032J0D01*
G01*
X-25002Y-74223D02*
X2407Y-78565D01*
X-54463Y-95628D02*
X-25002Y-74223D01*
X-54776Y-97604D02*
X-54463Y-95628D01*
X-68777Y-186002D02*
X-47372Y-215463D01*
X43002Y-229777D02*
X72463Y-208372D01*
X65372Y-88537D02*
X86777Y-117998D01*
X64384Y-88381D02*
X65372Y-88537D01*
X37963Y-84196D02*
X64384Y-88381D01*
X-47372Y-215463D02*
X-19963Y-219804D01*
X72463Y-208372D02*
X86777Y-117998D01*
X-56223Y-106740D02*
X-54463Y-95628D01*
X-68777Y-186002D02*
X-58100Y-118592D01*
X-148256Y-51543D02*
X-129014Y69943D01*
X148773Y25945D01*
X-148256Y-51543D02*
X3108Y-75517D01*
X38911Y-81187D02*
X151014Y-98943D01*
X152618Y-88819D01*
X35078Y-140215D02*
X36799Y-129350D01*
X-14964Y146422D02*
X-4100Y144701D01*
X-21142Y50951D02*
X-10278Y49230D01*
X67701Y21350D02*
X69422Y32214D01*
X47788Y24555D02*
X49509Y35420D01*
X-34277Y-178055D02*
X-25851Y-170984D01*
X6311Y-144670D02*
X8032Y-133806D01*
X31850Y-186451D02*
X42714Y-188172D01*
X33637Y-175994D02*
X44501Y-177715D01*
X28578Y-180714D02*
X30299Y-169850D01*
X34970Y-165930D02*
X45834Y-167651D01*
X36895Y-155938D02*
X47759Y-157659D01*
X41417Y-125513D02*
X52281Y-127233D01*
X43156Y-115532D02*
X54021Y-117253D01*
X38362Y-145761D02*
X49226Y-147482D01*
X39805Y-135588D02*
X50669Y-137309D01*
X108536Y-89828D02*
X119400Y-91549D01*
X-46567Y135740D02*
X-44846Y146604D01*
X30766Y164313D02*
X41631Y162593D01*
X29201Y179350D02*
X30922Y190214D01*
X12850Y151799D02*
X23714Y150078D01*
X90600Y-24451D02*
X101464Y-26172D01*
X-40262Y53952D02*
X-29398Y52232D01*
X-23464Y97922D02*
X-12600Y96201D01*
X16758Y91516D02*
X18479Y102380D01*
X10078Y51286D02*
X11799Y62150D01*
X20578Y114536D02*
X22299Y125400D01*
X57788Y23056D02*
X59509Y33920D01*
X-138127Y-69932D02*
X-127454Y-67271D01*
X-131229Y-81204D02*
X-128568Y-91877D01*
X3091Y-163650D02*
X4812Y-152786D01*
X75350Y-211701D02*
X86214Y-213422D01*
X115536Y-170578D02*
X126400Y-172299D01*
X104351Y-163071D02*
X106072Y-152206D01*
X-39169Y-62335D02*
X-37449Y-51471D01*
X-49029Y-60701D02*
X-47308Y-49836D01*
X-58958Y-59081D02*
X-57237Y-48216D01*
X-69049Y-57400D02*
X-67328Y-46536D01*
X-78872Y-55850D02*
X-77151Y-44985D01*
X46701Y-30650D02*
X48422Y-19786D01*
X66701Y-33900D02*
X68422Y-23036D01*
X56800Y-32303D02*
X58520Y-21439D01*
X48124Y-61389D02*
X58988Y-63110D01*
X-37269Y130761D02*
X-34453Y148540D01*
X-42122Y-152172D02*
X-24344Y-154988D01*
X93962Y-161436D02*
X96778Y-143658D01*
X-31742Y-147224D02*
X-28927Y-129445D01*
X3574Y78439D02*
X15426Y76561D01*
X48822Y-43073D02*
X49448Y-39121D01*
X71043Y-46593D02*
X71669Y-42642D01*
X69400Y-56964D02*
X70026Y-53012D01*
X47180Y-53444D02*
X47806Y-49493D01*
X115150Y-180838D02*
X116206Y-174171D01*
X109539Y-173115D02*
X116206Y-174171D01*
X82131Y-168774D02*
X88798Y-169830D01*
X81075Y-175441D02*
X82131Y-168774D01*
X76734Y-202849D02*
X77790Y-196182D01*
X76734Y-202849D02*
X83401Y-203905D01*
X104142Y-207190D02*
X110809Y-208246D01*
X111865Y-201579D01*
X-4734Y64722D02*
X-2511Y64370D01*
X617Y84124D01*
X-1605Y84476D02*
X617Y84124D01*
X-34119Y69375D02*
X-31897Y69023D01*
X-34119Y69375D02*
X-30990Y89128D01*
X-28768Y88776D01*
X-10331Y196840D02*
X-6381Y196214D01*
X-10957Y192889D02*
X-10331Y196840D01*
X-15650Y163259D02*
X-15024Y167209D01*
X-15650Y163259D02*
X-11699Y162633D01*
X17931Y157940D02*
X18557Y161891D01*
X19299Y192147D02*
X23250Y191521D01*
X22624Y187571D02*
X23250Y191521D01*
X13981Y158566D02*
X17931Y157940D01*
X2567Y-153136D02*
X5539Y-134370D01*
X-29039Y-148130D02*
X-26067Y-129364D01*
X-84298Y-66987D02*
X-78372Y-67925D01*
X-89773Y-101556D02*
X-84298Y-66987D01*
X-89773Y-101556D02*
X-83847Y-102494D01*
X-57630Y-71210D02*
X-51704Y-72149D01*
X-57179Y-106718D02*
X-51704Y-72149D01*
X-63105Y-105779D02*
X-57179Y-106718D01*
X14794Y50484D02*
X31689Y157154D01*
X187744Y132438D01*
X170849Y25767D02*
X187744Y132438D01*
X14794Y50484D02*
X170849Y25767D01*
X-138933Y208125D02*
X-135882Y227385D01*
X-39089Y212055D01*
X-42139Y192795D02*
X-39089Y212055D01*
X-55358Y109335D02*
X-52307Y128595D01*
X-152151Y124665D02*
X-55358Y109335D01*
X-152151Y124665D02*
X-149101Y143925D01*
X-136599Y-103711D02*
X-134852Y-110231D01*
X-137311Y-101054D02*
X-136599Y-103711D01*
X-137311Y-101054D02*
X-96259Y-90055D01*
X-72189Y-179886D01*
X-113241Y-190886D02*
X-72189Y-179886D01*
X-134852Y-110231D02*
X-113241Y-190886D01*
X124181Y18814D02*
X130601Y17798D01*
X80259Y-18778D02*
X86679Y-19794D01*
X117298Y-24644D02*
X123718Y-25661D01*
X130601Y17798D01*
X80259Y-18778D02*
X87142Y24681D01*
X93562Y23664D01*
X93757Y-138453D02*
X138203Y-145493D01*
X93757Y-138453D02*
X100797Y-94007D01*
X145243Y-101047D01*
X138203Y-145493D02*
X145243Y-101047D01*
X-69772Y-185822D02*
X-43322Y-222228D01*
X-79728Y-248678D02*
X-43322Y-222228D01*
X-106178Y-212272D02*
X-79728Y-248678D01*
X-106178Y-212272D02*
X-69772Y-185822D01*
X-122022Y-92537D02*
X-92914Y-85280D01*
X-127586Y-70220D02*
X-98478Y-62963D01*
X-33007Y-120420D02*
X-32054Y-119728D01*
X-30408Y-119988D01*
X-29716Y-120942D01*
X-30237Y-124233D01*
X-31190Y-124925D01*
X-32836Y-124665D01*
X-33528Y-123712D01*
X-35174Y-123451D02*
X-36127Y-124143D01*
X-37773Y-123883D01*
X-38465Y-122930D01*
X-37944Y-119638D01*
X-36991Y-118946D01*
X-35345Y-119207D01*
X-34653Y-120160D01*
X-34783Y-120983D01*
X-35736Y-121675D01*
X-38204Y-121284D01*
X-56550Y-235515D02*
X-53611Y-239559D01*
X-56307Y-241517D01*
X-60351Y-244455D02*
X-57655Y-242496D01*
X-62310Y-241759D01*
X-62799Y-241085D01*
X-62615Y-239922D01*
X-61267Y-238942D01*
X-60104Y-239127D01*
X72500Y-68208D02*
X73453Y-67516D01*
X75099Y-67776D01*
X75791Y-68730D01*
X75270Y-72021D01*
X74317Y-72713D01*
X72671Y-72453D01*
X71979Y-71500D01*
X70203Y-72062D02*
X68557Y-71801D01*
X69380Y-71931D01*
X70162Y-66995D01*
X70855Y-67948D01*
X63621Y-71019D02*
X64402Y-66082D01*
X66480Y-68942D01*
X63189Y-68420D01*
X61521Y-17474D02*
X66458Y-18256D01*
X66849Y-15788D01*
X66156Y-14835D01*
X64510Y-14574D01*
X63557Y-15266D01*
X63166Y-17735D01*
X63427Y-16089D02*
X62042Y-14183D01*
X62303Y-12537D02*
X62563Y-10892D01*
X62433Y-11715D01*
X67370Y-12497D01*
X66417Y-13189D01*
X63777Y-8554D02*
X63085Y-7600D01*
X63345Y-5955D01*
X64298Y-5262D01*
X67590Y-5784D01*
X68282Y-6737D01*
X68021Y-8382D01*
X67068Y-9075D01*
X66246Y-8945D01*
X65553Y-7991D01*
X65944Y-5523D01*
X71500Y-19250D02*
X76437Y-20032D01*
X76828Y-17564D01*
X76135Y-16610D01*
X74490Y-16350D01*
X73537Y-17042D01*
X73146Y-19511D01*
X73406Y-17865D02*
X72021Y-15959D01*
X72803Y-11022D02*
X72282Y-14313D01*
X76094Y-11543D01*
X76917Y-11674D01*
X77610Y-12627D01*
X77349Y-14272D01*
X76396Y-14965D01*
X77178Y-10028D02*
X78131Y-9335D01*
X78392Y-7690D01*
X77699Y-6737D01*
X74408Y-6215D01*
X73455Y-6908D01*
X73194Y-8554D01*
X73887Y-9507D01*
X77178Y-10028D01*
X45264Y-40023D02*
X44612Y-44138D01*
X43659Y-44830D01*
X42014Y-44569D01*
X41321Y-43616D01*
X41973Y-39502D01*
X37036Y-38720D02*
X40327Y-39242D01*
X39936Y-41710D01*
X38421Y-40627D01*
X37598Y-40496D01*
X36645Y-41189D01*
X36384Y-42834D01*
X37077Y-43787D01*
X38722Y-44048D01*
X39676Y-43356D01*
X51500Y-15750D02*
X56437Y-16532D01*
X56828Y-14064D01*
X56135Y-13110D01*
X54490Y-12850D01*
X53537Y-13542D01*
X53146Y-16011D01*
X53406Y-14365D02*
X52021Y-12459D01*
X52803Y-7522D02*
X52282Y-10813D01*
X56094Y-8043D01*
X56917Y-8173D01*
X57610Y-9127D01*
X57349Y-10772D01*
X56396Y-11465D01*
X53064Y-5876D02*
X53324Y-4231D01*
X53194Y-5053D01*
X58131Y-5835D01*
X57178Y-6528D01*
X-73984Y-41089D02*
X-69047Y-41871D01*
X-68656Y-39402D01*
X-69348Y-38449D01*
X-70994Y-38189D01*
X-71947Y-38881D01*
X-72338Y-41349D01*
X-72077Y-39704D02*
X-73462Y-37798D01*
X-73202Y-36152D02*
X-72941Y-34506D01*
X-73071Y-35329D01*
X-68134Y-36111D01*
X-69088Y-36804D01*
X-68436Y-32689D02*
X-67483Y-31997D01*
X-67222Y-30352D01*
X-67915Y-29398D01*
X-68738Y-29268D01*
X-69691Y-29960D01*
X-69821Y-30783D01*
X-69691Y-29960D01*
X-70383Y-29007D01*
X-71206Y-28877D01*
X-72159Y-29569D01*
X-72420Y-31215D01*
X-71727Y-32168D01*
X-64000Y-42500D02*
X-59063Y-43282D01*
X-58672Y-40813D01*
X-59365Y-39860D01*
X-61010Y-39600D01*
X-61964Y-40292D01*
X-62354Y-42761D01*
X-62094Y-41115D02*
X-63479Y-39209D01*
X-63218Y-37563D02*
X-62958Y-35918D01*
X-63088Y-36740D01*
X-58151Y-37522D01*
X-59104Y-38215D01*
X-62175Y-30981D02*
X-57239Y-31763D01*
X-60098Y-33840D01*
X-59577Y-30549D01*
X-54165Y-44351D02*
X-49228Y-45133D01*
X-48837Y-42665D01*
X-49530Y-41712D01*
X-51176Y-41451D01*
X-52129Y-42144D01*
X-52520Y-44612D01*
X-52259Y-42966D02*
X-53644Y-41060D01*
X-53383Y-39415D02*
X-53123Y-37769D01*
X-53253Y-38592D01*
X-48316Y-39374D01*
X-49269Y-40066D01*
X-48618Y-35952D02*
X-47665Y-35260D01*
X-47404Y-33614D01*
X-48096Y-32661D01*
X-48919Y-32531D01*
X-49872Y-33223D01*
X-50565Y-32270D01*
X-51388Y-32140D01*
X-52341Y-32832D01*
X-52601Y-34478D01*
X-51909Y-35431D01*
X-51086Y-35561D01*
X-50133Y-34869D01*
X-49440Y-35822D01*
X-48618Y-35952D01*
X-50133Y-34869D02*
X-49872Y-33223D01*
X-44278Y-46058D02*
X-39341Y-46839D01*
X-38950Y-44371D01*
X-39642Y-43418D01*
X-41288Y-43157D01*
X-42241Y-43850D01*
X-42632Y-46318D01*
X-42371Y-44673D02*
X-43756Y-42766D01*
X-42974Y-37829D02*
X-43496Y-41121D01*
X-39683Y-38351D01*
X-38860Y-38481D01*
X-38168Y-39434D01*
X-38428Y-41080D01*
X-39382Y-41772D01*
X-42192Y-32893D02*
X-42714Y-36184D01*
X-38901Y-33414D01*
X-38078Y-33544D01*
X-37386Y-34497D01*
X-37647Y-36143D01*
X-38600Y-36835D01*
X-34340Y-47534D02*
X-29403Y-48316D01*
X-29012Y-45847D01*
X-29704Y-44894D01*
X-31350Y-44633D01*
X-32303Y-45326D01*
X-32694Y-47794D01*
X-32434Y-46149D02*
X-33819Y-44242D01*
X-33037Y-39306D02*
X-33558Y-42597D01*
X-29745Y-39827D01*
X-28923Y-39957D01*
X-28230Y-40910D01*
X-28491Y-42556D01*
X-29444Y-43248D01*
X-28662Y-38312D02*
X-27709Y-37619D01*
X-27448Y-35973D01*
X-28141Y-35020D01*
X-28963Y-34890D01*
X-29917Y-35582D01*
X-30047Y-36405D01*
X-29917Y-35582D01*
X-30609Y-34629D01*
X-31432Y-34499D01*
X-32385Y-35192D01*
X-32646Y-36837D01*
X-31953Y-37790D01*
X90845Y-135582D02*
X91537Y-136535D01*
X91277Y-138180D01*
X90324Y-138873D01*
X87032Y-138351D01*
X86340Y-137398D01*
X86601Y-135753D01*
X87554Y-135060D01*
X86992Y-133284D02*
X87252Y-131639D01*
X87122Y-132462D01*
X92059Y-133244D01*
X91106Y-133936D01*
X104004Y-143660D02*
X104957Y-142968D01*
X106602Y-143228D01*
X107295Y-144181D01*
X106774Y-147473D01*
X105820Y-148165D01*
X104175Y-147904D01*
X103482Y-146951D01*
X98415Y-146992D02*
X101706Y-147513D01*
X98936Y-143701D01*
X99067Y-142878D01*
X100020Y-142186D01*
X101665Y-142446D01*
X102358Y-143399D01*
X107907Y-165307D02*
X106954Y-166000D01*
X106693Y-167645D01*
X107386Y-168598D01*
X110677Y-169120D01*
X111630Y-168427D01*
X111891Y-166782D01*
X111199Y-165828D01*
X108168Y-163662D02*
X107475Y-162708D01*
X107736Y-161063D01*
X108689Y-160370D01*
X109512Y-160501D01*
X110204Y-161454D01*
X110074Y-162277D01*
X110204Y-161454D01*
X111158Y-160761D01*
X111980Y-160892D01*
X112673Y-161845D01*
X112412Y-163490D01*
X111459Y-164183D01*
X95077Y-213654D02*
X96030Y-212961D01*
X97676Y-213222D01*
X98368Y-214175D01*
X97847Y-217466D01*
X96894Y-218159D01*
X95248Y-217898D01*
X94556Y-216945D01*
X90311Y-217116D02*
X91093Y-212179D01*
X93171Y-215039D01*
X89880Y-214517D01*
X19193Y-161358D02*
X19885Y-162311D01*
X19625Y-163957D01*
X18671Y-164650D01*
X15380Y-164128D01*
X14688Y-163175D01*
X14949Y-161530D01*
X15902Y-160837D01*
X20798Y-156552D02*
X20276Y-159843D01*
X17808Y-159452D01*
X18891Y-157937D01*
X19022Y-157114D01*
X18329Y-156161D01*
X16683Y-155900D01*
X15730Y-156593D01*
X15470Y-158238D01*
X16162Y-159191D01*
X-137328Y-74071D02*
X-136721Y-73061D01*
X-135104Y-72658D01*
X-134094Y-73265D01*
X-133288Y-76498D01*
X-133895Y-77508D01*
X-135512Y-77911D01*
X-136521Y-77304D01*
X-142379Y-74472D02*
X-140561Y-74877D01*
X-138541Y-76091D01*
X-138138Y-77707D01*
X-138745Y-78717D01*
X-140361Y-79120D01*
X-141371Y-78513D01*
X-141573Y-77705D01*
X-140966Y-76695D01*
X-138541Y-76091D01*
X-51735Y-155520D02*
X-50782Y-154828D01*
X-49136Y-155088D01*
X-48444Y-156041D01*
X-48965Y-159333D01*
X-49918Y-160025D01*
X-51564Y-159764D01*
X-52256Y-158811D01*
X-53250Y-154437D02*
X-56542Y-153915D01*
X-56672Y-154738D01*
X-53902Y-158551D01*
X-54032Y-159374D01*
X-140976Y-59848D02*
X-139966Y-60455D01*
X-138349Y-60051D01*
X-137742Y-59042D01*
X-138548Y-55808D01*
X-139558Y-55202D01*
X-141175Y-55605D01*
X-141782Y-56614D01*
X-142592Y-60251D02*
X-143199Y-61261D01*
X-144816Y-61664D01*
X-145826Y-61057D01*
X-146027Y-60249D01*
X-145420Y-59239D01*
X-146430Y-58632D01*
X-146632Y-57824D01*
X-146025Y-56814D01*
X-144408Y-56411D01*
X-143398Y-57017D01*
X-143197Y-57826D01*
X-143804Y-58836D01*
X-142794Y-59443D01*
X-142592Y-60251D01*
X-143804Y-58836D02*
X-145420Y-59239D01*
X62267Y8628D02*
X62959Y7675D01*
X62699Y6029D01*
X61746Y5336D01*
X58454Y5858D01*
X57762Y6811D01*
X58022Y8457D01*
X58976Y9149D01*
X58414Y10925D02*
X58674Y12571D01*
X58544Y11748D01*
X63481Y10966D01*
X62527Y10273D01*
X63179Y14387D02*
X64132Y15080D01*
X64393Y16725D01*
X63700Y17679D01*
X60409Y18200D01*
X59456Y17507D01*
X59195Y15862D01*
X59888Y14909D01*
X63179Y14387D01*
X21110Y133885D02*
X22064Y134578D01*
X23709Y134317D01*
X24402Y133364D01*
X23880Y130073D01*
X22927Y129380D01*
X21282Y129641D01*
X20589Y130594D01*
X18813Y130032D02*
X17168Y130293D01*
X17990Y130162D01*
X18772Y135099D01*
X19465Y134146D01*
X14699Y130683D02*
X13053Y130944D01*
X13876Y130814D01*
X14658Y135751D01*
X15351Y134798D01*
X4135Y36890D02*
X4828Y35937D01*
X4567Y34291D01*
X3614Y33598D01*
X323Y34120D01*
X-370Y35073D01*
X-109Y36718D01*
X844Y37411D01*
X282Y39187D02*
X542Y40832D01*
X412Y40010D01*
X5349Y39228D01*
X4396Y38535D01*
X1455Y46592D02*
X934Y43301D01*
X4746Y46071D01*
X5569Y45940D01*
X6261Y44987D01*
X6001Y43342D01*
X5048Y42649D01*
X18146Y110241D02*
X19099Y110933D01*
X20744Y110673D01*
X21437Y109719D01*
X20916Y106428D01*
X19963Y105736D01*
X18317Y105996D01*
X17624Y106949D01*
X15848Y106387D02*
X14203Y106648D01*
X15026Y106518D01*
X15808Y111454D01*
X16500Y110501D01*
X12386Y111153D02*
X11694Y112106D01*
X10048Y112367D01*
X9095Y111674D01*
X8964Y110851D01*
X9657Y109898D01*
X10480Y109768D01*
X9657Y109898D01*
X8704Y109206D01*
X8574Y108383D01*
X9266Y107430D01*
X10912Y107169D01*
X11865Y107862D01*
X-30890Y106135D02*
X-29936Y106828D01*
X-28291Y106567D01*
X-27598Y105614D01*
X-28120Y102323D01*
X-29073Y101630D01*
X-30718Y101891D01*
X-31411Y102844D01*
X-33187Y102282D02*
X-34832Y102542D01*
X-34010Y102412D01*
X-33228Y107349D01*
X-32535Y106396D01*
X-39810Y108392D02*
X-38295Y107308D01*
X-36910Y105402D01*
X-37171Y103756D01*
X-38124Y103064D01*
X-39769Y103324D01*
X-40462Y104278D01*
X-40332Y105100D01*
X-39378Y105793D01*
X-36910Y105402D01*
X-49280Y51853D02*
X-48327Y52545D01*
X-46682Y52285D01*
X-45989Y51332D01*
X-46510Y48040D01*
X-47464Y47348D01*
X-49109Y47608D01*
X-49802Y48562D01*
X-51578Y48000D02*
X-53223Y48260D01*
X-52400Y48130D01*
X-51618Y53067D01*
X-50926Y52113D01*
X-54910Y53588D02*
X-58201Y54109D01*
X-58331Y53286D01*
X-55561Y49474D01*
X-55692Y48651D01*
X96860Y-36615D02*
X97814Y-35922D01*
X99459Y-36183D01*
X100152Y-37136D01*
X99630Y-40427D01*
X98677Y-41120D01*
X97032Y-40859D01*
X96339Y-39906D01*
X94563Y-40468D02*
X92918Y-40208D01*
X93740Y-40338D01*
X94522Y-35401D01*
X95215Y-36354D01*
X87940Y-34358D02*
X91231Y-34880D01*
X90840Y-37348D01*
X89325Y-36265D01*
X88502Y-36134D01*
X87549Y-36827D01*
X87288Y-38472D01*
X87981Y-39425D01*
X89626Y-39686D01*
X90579Y-38994D01*
X25885Y155390D02*
X26578Y154437D01*
X26317Y152791D01*
X25364Y152098D01*
X22073Y152620D01*
X21380Y153573D01*
X21641Y155218D01*
X22594Y155911D01*
X22032Y157687D02*
X22292Y159332D01*
X22162Y158510D01*
X27099Y157728D01*
X26146Y157035D01*
X23506Y161671D02*
X22814Y162624D01*
X23075Y164269D01*
X24028Y164962D01*
X27319Y164440D01*
X28011Y163487D01*
X27751Y161842D01*
X26798Y161149D01*
X25975Y161280D01*
X25282Y162233D01*
X25673Y164701D01*
X45135Y179140D02*
X45828Y178186D01*
X45567Y176541D01*
X44614Y175848D01*
X41323Y176370D01*
X40630Y177323D01*
X40891Y178968D01*
X41844Y179661D01*
X41803Y184728D02*
X41282Y181437D01*
X45094Y184207D01*
X45917Y184076D01*
X46610Y183123D01*
X46349Y181478D01*
X45396Y180785D01*
X46178Y185722D02*
X47131Y186415D01*
X47392Y188060D01*
X46699Y189013D01*
X43408Y189535D01*
X42455Y188842D01*
X42194Y187197D01*
X42887Y186243D01*
X46178Y185722D01*
X55610Y167385D02*
X56564Y168078D01*
X58209Y167817D01*
X58902Y166864D01*
X58380Y163573D01*
X57427Y162880D01*
X55782Y163141D01*
X55089Y164094D01*
X50022Y164053D02*
X53313Y163532D01*
X50543Y167344D01*
X50673Y168167D01*
X51627Y168860D01*
X53272Y168599D01*
X53965Y167646D01*
X48376Y164314D02*
X46731Y164575D01*
X47554Y164444D01*
X48335Y169381D01*
X49028Y168428D01*
X-25403Y155078D02*
X-24711Y154125D01*
X-24971Y152480D01*
X-25924Y151787D01*
X-29216Y152309D01*
X-29908Y153262D01*
X-29648Y154907D01*
X-28695Y155600D01*
X-28735Y160667D02*
X-29257Y157376D01*
X-25444Y160146D01*
X-24621Y160015D01*
X-23929Y159062D01*
X-24190Y157417D01*
X-25143Y156724D01*
X-27953Y165604D02*
X-28475Y162313D01*
X-24662Y165082D01*
X-23839Y164952D01*
X-23147Y163999D01*
X-23408Y162353D01*
X-24361Y161661D01*
X-37282Y153471D02*
X-36590Y152518D01*
X-36851Y150872D01*
X-37804Y150180D01*
X-41095Y150701D01*
X-41787Y151654D01*
X-41527Y153300D01*
X-40574Y153992D01*
X-40614Y159059D02*
X-41136Y155768D01*
X-37323Y158538D01*
X-36500Y158408D01*
X-35808Y157455D01*
X-36069Y155809D01*
X-37022Y155117D01*
X-36240Y160053D02*
X-35287Y160746D01*
X-35026Y162391D01*
X-35719Y163345D01*
X-36541Y163475D01*
X-37494Y162782D01*
X-37625Y161960D01*
X-37494Y162782D01*
X-38187Y163736D01*
X-39010Y163866D01*
X-39963Y163173D01*
X-40223Y161528D01*
X-39531Y160575D01*
X91797Y-106396D02*
X91015Y-111333D01*
X88547Y-110942D01*
X87854Y-109989D01*
X88376Y-106698D01*
X89329Y-106005D01*
X91797Y-106396D01*
X86079Y-110551D02*
X84433Y-110290D01*
X85256Y-110421D01*
X86038Y-105484D01*
X86730Y-106437D01*
X-111694Y5080D02*
X-110741Y5773D01*
X-109095Y5512D01*
X-108403Y4559D01*
X-108924Y1268D01*
X-109877Y575D01*
X-111523Y836D01*
X-112215Y1789D01*
X-111954Y3434D01*
X-110309Y3174D01*
X-113991Y1227D02*
X-115637Y1487D01*
X-114814Y1357D01*
X-114032Y6294D01*
X-113339Y5341D01*
X95597Y-115031D02*
X94815Y-119967D01*
X91523Y-119446D01*
X89878Y-119186D02*
X88232Y-118925D01*
X89055Y-119055D01*
X89837Y-114118D01*
X90529Y-115072D01*
X26613Y-90747D02*
X27395Y-85810D01*
X24927Y-85419D01*
X23974Y-86111D01*
X23713Y-87757D01*
X24405Y-88710D01*
X26874Y-89101D01*
X22458Y-85028D02*
X19167Y-84507D01*
X19037Y-85330D01*
X21807Y-89142D01*
X21676Y-89965D01*
X18385Y-89444D01*
X17521Y-84246D02*
X14230Y-83725D01*
X15876Y-83986D01*
X15094Y-88922D01*
X11803Y-88401D02*
X10157Y-88140D01*
X10980Y-88271D01*
X11762Y-83334D01*
X12454Y-84287D01*
X104000Y-87000D02*
X104782Y-82063D01*
X102313Y-81672D01*
X101360Y-82365D01*
X101100Y-84010D01*
X101792Y-84964D01*
X104261Y-85354D01*
X102615Y-85094D02*
X100709Y-86479D01*
X99063Y-86218D02*
X97418Y-85957D01*
X98240Y-86088D01*
X99022Y-81151D01*
X99715Y-82104D01*
X62951Y-146791D02*
X63733Y-141855D01*
X61265Y-141464D01*
X60312Y-142156D01*
X60051Y-143802D01*
X60744Y-144755D01*
X63212Y-145146D01*
X61566Y-144885D02*
X59660Y-146270D01*
X54723Y-145488D02*
X58014Y-146010D01*
X55245Y-142197D01*
X55375Y-141374D01*
X56328Y-140682D01*
X57974Y-140942D01*
X58666Y-141896D01*
X61541Y-157266D02*
X62323Y-152329D01*
X59854Y-151938D01*
X58901Y-152631D01*
X58640Y-154277D01*
X59333Y-155230D01*
X61801Y-155620D01*
X60156Y-155360D02*
X58249Y-156745D01*
X57255Y-152370D02*
X56563Y-151417D01*
X54917Y-151156D01*
X53964Y-151849D01*
X53834Y-152672D01*
X54526Y-153625D01*
X55349Y-153755D01*
X54526Y-153625D01*
X53573Y-154317D01*
X53443Y-155140D01*
X54135Y-156093D01*
X55781Y-156354D01*
X56734Y-155661D01*
X65706Y-126655D02*
X66488Y-121718D01*
X64020Y-121327D01*
X63067Y-122020D01*
X62806Y-123665D01*
X63499Y-124618D01*
X65967Y-125009D01*
X64321Y-124749D02*
X62415Y-126133D01*
X58301Y-125482D02*
X59083Y-120545D01*
X61160Y-123405D01*
X57869Y-122883D01*
X64270Y-136806D02*
X65052Y-131869D01*
X62584Y-131478D01*
X61631Y-132171D01*
X61370Y-133816D01*
X62063Y-134770D01*
X64531Y-135161D01*
X62885Y-134900D02*
X60979Y-136285D01*
X56824Y-130566D02*
X60115Y-131087D01*
X59724Y-133556D01*
X58209Y-132472D01*
X57386Y-132342D01*
X56433Y-133035D01*
X56173Y-134680D01*
X56865Y-135633D01*
X58511Y-135894D01*
X59464Y-135202D01*
X60412Y-167425D02*
X61194Y-162488D01*
X58726Y-162097D01*
X57772Y-162790D01*
X57512Y-164435D01*
X58204Y-165389D01*
X60673Y-165779D01*
X59027Y-165519D02*
X57121Y-166904D01*
X52966Y-161185D02*
X54481Y-162269D01*
X55866Y-164175D01*
X55606Y-165820D01*
X54653Y-166513D01*
X53007Y-166252D01*
X52314Y-165299D01*
X52445Y-164476D01*
X53398Y-163784D01*
X55866Y-164175D01*
X57944Y-177193D02*
X58726Y-172256D01*
X56258Y-171865D01*
X55305Y-172558D01*
X55044Y-174203D01*
X55737Y-175156D01*
X58205Y-175547D01*
X56560Y-175287D02*
X54653Y-176672D01*
X53659Y-172297D02*
X52967Y-171344D01*
X51321Y-171083D01*
X50368Y-171776D01*
X50238Y-172598D01*
X50930Y-173552D01*
X49977Y-174244D01*
X49847Y-175067D01*
X50539Y-176020D01*
X52185Y-176281D01*
X53138Y-175588D01*
X53268Y-174765D01*
X52576Y-173812D01*
X53529Y-173120D01*
X53659Y-172297D01*
X52576Y-173812D02*
X50930Y-173552D01*
X19000Y-192250D02*
X23937Y-193032D01*
X24328Y-190564D01*
X23635Y-189610D01*
X21990Y-189350D01*
X21037Y-190042D01*
X20646Y-192511D01*
X20906Y-190865D02*
X19521Y-188959D01*
X20605Y-187444D02*
X19912Y-186490D01*
X20173Y-184845D01*
X21126Y-184152D01*
X24417Y-184674D01*
X25110Y-185627D01*
X24849Y-187272D01*
X23896Y-187965D01*
X23073Y-187834D01*
X22381Y-186881D01*
X22772Y-184413D01*
X60406Y-188432D02*
X61187Y-183495D01*
X58719Y-183104D01*
X57766Y-183797D01*
X57505Y-185443D01*
X58198Y-186396D01*
X60666Y-186787D01*
X59021Y-186526D02*
X57114Y-187911D01*
X55469Y-187650D02*
X53823Y-187390D01*
X54646Y-187520D01*
X55428Y-182583D01*
X56120Y-183536D01*
X52006Y-182885D02*
X51314Y-181931D01*
X49668Y-181671D01*
X48715Y-182363D01*
X48194Y-185655D01*
X48886Y-186608D01*
X50532Y-186868D01*
X51485Y-186176D01*
X52006Y-182885D01*
X57000Y-198000D02*
X57782Y-193063D01*
X55314Y-192672D01*
X54360Y-193365D01*
X54100Y-195010D01*
X54792Y-195963D01*
X57261Y-196354D01*
X55615Y-196094D02*
X53709Y-197479D01*
X52063Y-197218D02*
X50418Y-196957D01*
X51240Y-197088D01*
X52022Y-192151D01*
X52715Y-193104D01*
X47949Y-196567D02*
X46304Y-196306D01*
X47126Y-196436D01*
X47908Y-191499D01*
X48601Y-192452D01*
X17561Y-147062D02*
X22498Y-147844D01*
X22889Y-145376D01*
X22196Y-144423D01*
X20551Y-144162D01*
X19598Y-144855D01*
X19207Y-147323D01*
X19467Y-145677D02*
X18082Y-143771D01*
X18343Y-142126D02*
X18604Y-140480D01*
X18473Y-141303D01*
X23410Y-142085D01*
X22457Y-142777D01*
X19516Y-134720D02*
X18995Y-138012D01*
X22807Y-135242D01*
X23630Y-135372D01*
X24322Y-136325D01*
X24062Y-137971D01*
X23109Y-138663D01*
X-33646Y-187138D02*
X-36859Y-183309D01*
X-38773Y-184915D01*
X-38876Y-186089D01*
X-37805Y-187365D01*
X-36631Y-187468D01*
X-34717Y-185861D01*
X-35993Y-186932D02*
X-36198Y-189279D01*
X-37475Y-190350D02*
X-38751Y-191421D01*
X-38113Y-190886D01*
X-41326Y-187057D01*
X-40152Y-187160D01*
X-46431Y-191341D02*
X-43878Y-189199D01*
X-42272Y-191113D01*
X-44084Y-191546D01*
X-44722Y-192082D01*
X-44825Y-193255D01*
X-43754Y-194532D01*
X-42580Y-194634D01*
X-41304Y-193563D01*
X-41201Y-192390D01*
X47376Y7325D02*
X52313Y6543D01*
X52704Y9011D01*
X52011Y9965D01*
X50366Y10225D01*
X49412Y9533D01*
X49021Y7064D01*
X49282Y8710D02*
X47897Y10616D01*
X48158Y12262D02*
X48418Y13907D01*
X48288Y13084D01*
X53225Y12303D01*
X52272Y11610D01*
X54268Y18885D02*
X53184Y17370D01*
X51278Y15985D01*
X49632Y16245D01*
X48940Y17198D01*
X49200Y18844D01*
X50153Y19537D01*
X50976Y19406D01*
X51669Y18453D01*
X51278Y15985D01*
X67500Y4750D02*
X72437Y3968D01*
X72828Y6436D01*
X72135Y7390D01*
X70490Y7650D01*
X69536Y6958D01*
X69146Y4489D01*
X69406Y6135D02*
X68021Y8041D01*
X68282Y9687D02*
X68542Y11332D01*
X68412Y10510D01*
X73349Y9728D01*
X72396Y9035D01*
X73870Y13019D02*
X74392Y16310D01*
X73569Y16441D01*
X69756Y13671D01*
X68934Y13801D01*
X-12072Y32533D02*
X-11290Y37469D01*
X-13758Y37860D01*
X-14712Y37168D01*
X-14972Y35522D01*
X-14280Y34569D01*
X-11811Y34178D01*
X-13457Y34439D02*
X-15363Y33054D01*
X-20300Y33836D02*
X-17009Y33314D01*
X-19779Y37127D01*
X-19648Y37950D01*
X-18695Y38642D01*
X-17050Y38382D01*
X-16357Y37429D01*
X-24414Y34487D02*
X-23632Y39424D01*
X-21555Y36565D01*
X-24846Y37086D01*
X-41107Y-75519D02*
X-40154Y-74827D01*
X-38509Y-75087D01*
X-37816Y-76041D01*
X-37947Y-76863D01*
X-38900Y-77556D01*
X-40545Y-77295D01*
X-41498Y-77988D01*
X-41629Y-78810D01*
X-40936Y-79764D01*
X-39291Y-80024D01*
X-38338Y-79332D01*
X-42623Y-74436D02*
X-43405Y-79373D01*
X-44790Y-77466D01*
X-46696Y-78851D01*
X-45914Y-73914D01*
X-48341Y-78591D02*
X-49987Y-78330D01*
X-49164Y-78460D01*
X-48382Y-73524D01*
X-47690Y-74477D01*
X126468Y-175365D02*
X125816Y-179479D01*
X124863Y-180172D01*
X123217Y-179911D01*
X122525Y-178958D01*
X123176Y-174844D01*
X120749Y-179520D02*
X119103Y-179259D01*
X119926Y-179390D01*
X120708Y-174453D01*
X121400Y-175406D01*
X6050Y-124499D02*
X5399Y-128612D01*
X4446Y-129305D01*
X2800Y-129044D01*
X2108Y-128091D01*
X2759Y-123977D01*
X-2960Y-128132D02*
X332Y-128653D01*
X-2438Y-124841D01*
X-2308Y-124018D01*
X-1355Y-123326D01*
X291Y-123586D01*
X983Y-124539D01*
X-112699Y-59062D02*
X-111692Y-63103D01*
X-112298Y-64113D01*
X-113915Y-64516D01*
X-114925Y-63909D01*
X-115933Y-59868D01*
X-117348Y-61079D02*
X-118357Y-60472D01*
X-119974Y-60875D01*
X-120581Y-61885D01*
X-120379Y-62694D01*
X-119369Y-63300D01*
X-118561Y-63099D01*
X-119369Y-63300D01*
X-119976Y-64310D01*
X-119775Y-65118D01*
X-118765Y-65725D01*
X-117148Y-65322D01*
X-116541Y-64312D01*
X109704Y153744D02*
X109052Y149630D01*
X108099Y148938D01*
X106453Y149198D01*
X105761Y150152D01*
X106412Y154265D01*
X101516Y149980D02*
X102298Y154917D01*
X104376Y152058D01*
X101084Y152579D01*
X-36115Y89072D02*
X-36767Y84958D01*
X-37720Y84265D01*
X-39365Y84526D01*
X-40058Y85479D01*
X-39406Y89593D01*
X-41052Y89853D02*
X-44343Y90375D01*
X-44473Y89552D01*
X-41703Y85739D01*
X-41834Y84917D01*
X-14468Y197187D02*
X-15120Y193073D01*
X-16073Y192380D01*
X-17718Y192641D01*
X-18411Y193594D01*
X-17759Y197708D01*
X-19535Y197146D02*
X-20228Y198099D01*
X-21873Y198360D01*
X-22826Y197667D01*
X-22957Y196844D01*
X-22264Y195891D01*
X-23217Y195199D01*
X-23348Y194376D01*
X-22655Y193423D01*
X-21010Y193162D01*
X-20057Y193855D01*
X-19926Y194678D01*
X-20619Y195631D01*
X-19665Y196323D01*
X-19535Y197146D01*
X-20619Y195631D02*
X-22264Y195891D01*
X-27896Y120166D02*
X-28547Y116052D01*
X-29500Y115360D01*
X-31146Y115620D01*
X-31839Y116573D01*
X-31187Y120688D01*
X-33484Y116834D02*
X-34437Y116142D01*
X-36083Y116402D01*
X-36775Y117355D01*
X-36254Y120647D01*
X-35301Y121339D01*
X-33655Y121078D01*
X-32963Y120125D01*
X-33093Y119303D01*
X-34046Y118610D01*
X-36515Y119001D01*
X-32313Y197468D02*
X-36427Y198120D01*
X-37120Y199073D01*
X-36859Y200718D01*
X-35906Y201411D01*
X-31792Y200759D01*
X-36468Y203187D02*
X-36207Y204832D01*
X-36338Y204010D01*
X-31401Y203228D01*
X-32354Y202535D01*
X-31702Y206649D02*
X-30749Y207342D01*
X-30489Y208987D01*
X-31181Y209940D01*
X-34472Y210462D01*
X-35426Y209769D01*
X-35686Y208124D01*
X-34994Y207171D01*
X-31702Y206649D01*
X-74044Y-182422D02*
X-73181Y-185641D01*
X-74359Y-187681D01*
X-76400Y-186503D01*
X-77262Y-183284D01*
X-78872Y-183716D02*
X-77578Y-188544D01*
X-79992Y-189191D01*
X-81012Y-188601D01*
X-81875Y-185383D01*
X-81286Y-184362D01*
X-78872Y-183716D01*
X-83484Y-185814D02*
X-84504Y-185225D01*
X-86114Y-185656D01*
X-86703Y-186676D01*
X-86487Y-187481D01*
X-85467Y-188070D01*
X-84662Y-187854D01*
X-85467Y-188070D01*
X-86056Y-189090D01*
X-85840Y-189895D01*
X-84820Y-190484D01*
X-83211Y-190053D01*
X-82622Y-189033D01*
X-63901Y-134072D02*
X-63038Y-137290D01*
X-64216Y-139331D01*
X-66257Y-138153D01*
X-67119Y-134934D01*
X-68729Y-135365D02*
X-67435Y-140193D01*
X-69849Y-140840D01*
X-70869Y-140251D01*
X-71732Y-137032D01*
X-71143Y-136012D01*
X-68729Y-135365D01*
X-74677Y-142134D02*
X-75971Y-137306D01*
X-72910Y-139073D01*
X-76129Y-139935D01*
X-50389Y-108302D02*
X-49527Y-111521D01*
X-50705Y-113561D01*
X-52746Y-112383D01*
X-53608Y-109164D01*
X-55217Y-109595D02*
X-53924Y-114424D01*
X-56338Y-115070D01*
X-57358Y-114481D01*
X-58221Y-111263D01*
X-57631Y-110242D01*
X-55217Y-109595D01*
X-63264Y-111752D02*
X-60045Y-110889D01*
X-59399Y-113303D01*
X-61224Y-112930D01*
X-62028Y-113145D01*
X-62617Y-114166D01*
X-62186Y-115775D01*
X-61166Y-116364D01*
X-59556Y-115933D01*
X-58967Y-114913D01*
X-27122Y-223507D02*
X-27643Y-226798D01*
X-29550Y-228183D01*
X-30935Y-226277D01*
X-30413Y-222986D01*
X-32059Y-222725D02*
X-32841Y-227662D01*
X-35309Y-227271D01*
X-36002Y-226318D01*
X-35480Y-223027D01*
X-34527Y-222334D01*
X-32059Y-222725D01*
X-37778Y-226880D02*
X-39423Y-226619D01*
X-38600Y-226750D01*
X-37819Y-221813D01*
X-37126Y-222766D01*
X-17286Y-110254D02*
X-17807Y-113545D01*
X-19713Y-114930D01*
X-21098Y-113024D01*
X-20577Y-109733D01*
X-22223Y-109472D02*
X-23005Y-114409D01*
X-25473Y-114018D01*
X-26165Y-113065D01*
X-25644Y-109774D01*
X-24691Y-109081D01*
X-22223Y-109472D01*
X-31233Y-113106D02*
X-27941Y-113627D01*
X-30711Y-109815D01*
X-30581Y-108992D01*
X-29628Y-108299D01*
X-27982Y-108560D01*
X-27290Y-109513D01*
X4885Y144890D02*
X5578Y143937D01*
X5317Y142291D01*
X4364Y141598D01*
X1073Y142120D01*
X380Y143073D01*
X641Y144718D01*
X1594Y145411D01*
X1032Y147187D02*
X1293Y148832D01*
X1162Y148010D01*
X6099Y147228D01*
X5146Y146535D01*
X5798Y150649D02*
X6751Y151342D01*
X7011Y152987D01*
X6319Y153940D01*
X5496Y154071D01*
X4543Y153378D01*
X3850Y154332D01*
X3028Y154462D01*
X2075Y153769D01*
X1814Y152124D01*
X2506Y151171D01*
X3329Y151040D01*
X4282Y151733D01*
X4975Y150780D01*
X5798Y150649D01*
X4282Y151733D02*
X4543Y153378D01*
X-81427Y-178834D02*
X-76599Y-177541D01*
X-77245Y-175127D01*
X-78266Y-174538D01*
X-79875Y-174969D01*
X-80464Y-175989D01*
X-79817Y-178403D01*
X-83583Y-170788D02*
X-82720Y-174007D01*
X-80364Y-169925D01*
X-79559Y-169710D01*
X-78539Y-170299D01*
X-78108Y-171908D01*
X-78697Y-172928D01*
X116346Y-28995D02*
X115694Y-33108D01*
X114741Y-33801D01*
X113096Y-33540D01*
X112403Y-32587D01*
X113055Y-28473D01*
X108118Y-27691D02*
X109633Y-28775D01*
X111018Y-30681D01*
X110757Y-32327D01*
X109804Y-33019D01*
X108159Y-32759D01*
X107466Y-31805D01*
X107597Y-30983D01*
X108550Y-30290D01*
X111018Y-30681D01*
X30250Y-123750D02*
X35187Y-124532D01*
X35578Y-122064D01*
X34885Y-121110D01*
X33240Y-120850D01*
X32287Y-121542D01*
X31896Y-124011D01*
X32156Y-122365D02*
X30771Y-120459D01*
X35969Y-119595D02*
X36490Y-116304D01*
X35667Y-116173D01*
X31855Y-118944D01*
X31032Y-118813D01*
X145000Y20000D02*
X140104Y21005D01*
X139601Y18557D01*
X140250Y17573D01*
X141882Y17238D01*
X142865Y17887D01*
X143368Y20335D01*
X143995Y15104D02*
X143660Y13472D01*
X143827Y14288D01*
X138931Y15293D01*
X139915Y15941D01*
D122*
X-9646Y-111530D02*
D03*
D123*
X-33525Y-235063D02*
D03*
X86475Y-98063D02*
D03*
D124*
X-76681Y-118017D02*
D03*
X-73431Y-129768D02*
D03*
X-98181Y-194017D02*
D03*
M02*
