M48
;Layer_Color=9474304
;FILE_FORMAT=4:4
METRIC,LZ
;TYPE=PLATED
T1F00S00C0.3000
T3F00S00C0.6000
%
T01
X-00044159Y-00241766
X-00036741Y-00186449
X-00055391Y-00185592
X-00082154Y-00181647
X-00081882Y-00189939
X-0005266Y-00157063
X-00049753Y-00141752
X-00047954Y-00128575
X-00046565Y-00117533
X-00049918Y-00099546
X-0004005Y-00101917
X-00021128Y-00121078
X-00016864Y-0014044
X-0001175Y-0014125
X-00006767Y-00142039
X-00018637Y-00162732
X00006727Y-00171878
X00018659Y-00150631
X00014273Y-00127142
X00017578Y-00101896
X00026092Y-00103061
X00057351Y-00143863
X0007813Y-00145033
X00076239Y-00157031
X00074535Y-00169795
X00072534Y-00182088
X00079606Y-00200138
X00094429Y-00190811
X00095316Y-00185639
X00099508Y-00189085
X00118579Y-00194337
X00115932Y-00174704
X00117975Y-00151951
X00127519Y-00087741
X001335Y-000795
X00143055Y-00090144
X0005348Y-00213319
X00039004Y-00202925
X-00070437Y-00134987
X-00089281Y-00112792
X-00091076Y-00092857
X-00128428Y-00053906
X-00128513Y00013145
X-00120544Y0001192
X-00112514Y00010645
X-00143984Y00086218
X-0015136Y00084913
X-00139176Y0012802
X-00129484Y0012715
X-00136713Y00140431
X-00146378Y00135746
X-00124634Y00157768
X-00119941Y00187399
X-00126673Y00208627
X-00115092Y00218017
X-00087436Y00213637
X-00061756Y0020957
X-00047207Y00195662
X-00021756Y00204166
X-00016046Y00199476
X-00009932Y00195273
X-00015958Y00160994
X-00024253Y00155196
X-00038421Y00162958
X-00066606Y00178952
X-00093273Y00183175
X-00097967Y00153545
X-00071299Y00149321
X-00076148Y00118703
X-00102816Y00122926
X-00029832Y00120361
X-00031031Y00112478
X-00032457Y00104817
X-0000462Y00099898
X00004079Y0009899
X00021742Y00100474
X00051072Y00098089
X00058377Y00096974
X0005722Y00089663
X00051961Y00082974
X00044489Y00080599
X00046159Y00088047
X000445Y0006475
X00052849Y00069294
X00033153Y00061761
X00022083Y00047912
X00014046Y00049117
X00044763Y00047326
X00045237Y00037153
X00063149Y00006038
X00071115Y00013071
X00092379Y0003312
X00118572Y00026209
X001165Y0000625
X00117672Y-00001028
X00127009Y-00011413
X00148177Y-00004154
X00136Y00013
X00133253Y00060085
X00111227Y00063225
X00102435Y00081113
X00103687Y00089014
X0011554Y00117482
X00120653Y0014501
X00133531Y00142944
X00146019Y00141106
X00114326Y00158041
X00107821Y00154572
X00102992Y00159984
X00096699Y00156189
X00092315Y00162022
X00086071Y00158117
X0008171Y0016409
X0007545Y0016027
X000676Y00165219
X00049238Y00165046
X00042059Y00129145
X00024632Y00132913
X00015978Y00134067
X00002561Y00143465
X-0001725Y0007375
X-0004825Y00031
X-0005425Y0002525
X-00079892Y0002195
X-00078728Y000299
X-00080994Y00013865
X-00076662Y-00026264
X-00060659Y-00036962
X-00050637Y-00038539
X-00040729Y-00040179
X-00030869Y-00041813
X0Y0
X0004554Y-00020764
X00081011Y-0001871
X0010028Y-00007383
X00097511Y-00044412
X00089103Y-00046242
X00142466Y-00040605
X0003364Y-00058699
T03
X-00104573Y-00153881
X-00096596Y-00145014
X-00099961Y-00132457
X-00111302Y-00128767
X-00107938Y-00141324
M30
