G04 Layer_Color=16711935*
%FSLAX44Y44*%
%MOMM*%
G71*
G01*
G75*
%ADD76C,2.0000*%
G04:AMPARAMS|DCode=79|XSize=1.4062mm|YSize=1mm|CornerRadius=0mm|HoleSize=0mm|Usage=FLASHONLY|Rotation=351.000|XOffset=0mm|YOffset=0mm|HoleType=Round|Shape=Rectangle|*
%AMROTATEDRECTD79*
4,1,4,-0.7727,-0.3839,-0.6162,0.6038,0.7727,0.3839,0.6162,-0.6038,-0.7727,-0.3839,0.0*
%
%ADD79ROTATEDRECTD79*%

G04:AMPARAMS|DCode=80|XSize=1.35mm|YSize=3.6mm|CornerRadius=0mm|HoleSize=0mm|Usage=FLASHONLY|Rotation=261.000|XOffset=0mm|YOffset=0mm|HoleType=Round|Shape=Round|*
%AMOVALD80*
21,1,2.2500,1.3500,0.0000,0.0000,351.0*
1,1,1.3500,-1.1112,0.1760*
1,1,1.3500,1.1112,-0.1760*
%
%ADD80OVALD80*%

G04:AMPARAMS|DCode=81|XSize=1.4mm|YSize=1.4mm|CornerRadius=0.375mm|HoleSize=0mm|Usage=FLASHONLY|Rotation=258.400|XOffset=0mm|YOffset=0mm|HoleType=Round|Shape=RoundedRectangle|*
%AMROUNDEDRECTD81*
21,1,1.4000,0.6500,0,0,258.4*
21,1,0.6500,1.4000,0,0,258.4*
1,1,0.7500,-0.3837,-0.2530*
1,1,0.7500,-0.2530,0.3837*
1,1,0.7500,0.3837,0.2530*
1,1,0.7500,0.2530,-0.3837*
%
%ADD81ROUNDEDRECTD81*%
G04:AMPARAMS|DCode=82|XSize=1.4mm|YSize=1.4mm|CornerRadius=0.375mm|HoleSize=0mm|Usage=FLASHONLY|Rotation=168.400|XOffset=0mm|YOffset=0mm|HoleType=Round|Shape=RoundedRectangle|*
%AMROUNDEDRECTD82*
21,1,1.4000,0.6500,0,0,168.4*
21,1,0.6500,1.4000,0,0,168.4*
1,1,0.7500,-0.2530,0.3837*
1,1,0.7500,0.3837,0.2530*
1,1,0.7500,0.2530,-0.3837*
1,1,0.7500,-0.3837,-0.2530*
%
%ADD82ROUNDEDRECTD82*%
G04:AMPARAMS|DCode=83|XSize=3.6mm|YSize=4.1mm|CornerRadius=0mm|HoleSize=0mm|Usage=FLASHONLY|Rotation=261.000|XOffset=0mm|YOffset=0mm|HoleType=Round|Shape=Rectangle|*
%AMROTATEDRECTD83*
4,1,4,-1.7432,2.0985,2.3064,1.4571,1.7432,-2.0985,-2.3064,-1.4571,-1.7432,2.0985,0.0*
%
%ADD83ROTATEDRECTD83*%

G04:AMPARAMS|DCode=84|XSize=1.4mm|YSize=1.4mm|CornerRadius=0.375mm|HoleSize=0mm|Usage=FLASHONLY|Rotation=0.000|XOffset=0mm|YOffset=0mm|HoleType=Round|Shape=RoundedRectangle|*
%AMROUNDEDRECTD84*
21,1,1.4000,0.6500,0,0,0.0*
21,1,0.6500,1.4000,0,0,0.0*
1,1,0.7500,0.3250,-0.3250*
1,1,0.7500,-0.3250,-0.3250*
1,1,0.7500,-0.3250,0.3250*
1,1,0.7500,0.3250,0.3250*
%
%ADD84ROUNDEDRECTD84*%
%ADD85P,0.9899X4X396.0*%
%ADD86P,0.9899X4X306.0*%
%ADD87P,0.9899X4X175.0*%
%ADD88P,0.9899X4X329.0*%
%ADD89P,0.9899X4X59.0*%
G04:AMPARAMS|DCode=90|XSize=1mm|YSize=0.95mm|CornerRadius=0mm|HoleSize=0mm|Usage=FLASHONLY|Rotation=171.000|XOffset=0mm|YOffset=0mm|HoleType=Round|Shape=Rectangle|*
%AMROTATEDRECTD90*
4,1,4,0.5682,0.3909,0.4195,-0.5474,-0.5682,-0.3909,-0.4195,0.5474,0.5682,0.3909,0.0*
%
%ADD90ROTATEDRECTD90*%

G04:AMPARAMS|DCode=91|XSize=1mm|YSize=0.95mm|CornerRadius=0mm|HoleSize=0mm|Usage=FLASHONLY|Rotation=81.000|XOffset=0mm|YOffset=0mm|HoleType=Round|Shape=Rectangle|*
%AMROTATEDRECTD91*
4,1,4,0.3909,-0.5682,-0.5474,-0.4195,-0.3909,0.5682,0.5474,0.4195,0.3909,-0.5682,0.0*
%
%ADD91ROTATEDRECTD91*%

G04:AMPARAMS|DCode=92|XSize=0.75mm|YSize=1.2mm|CornerRadius=0mm|HoleSize=0mm|Usage=FLASHONLY|Rotation=81.000|XOffset=0mm|YOffset=0mm|HoleType=Round|Shape=Rectangle|*
%AMROTATEDRECTD92*
4,1,4,0.5340,-0.4642,-0.6513,-0.2765,-0.5340,0.4642,0.6513,0.2765,0.5340,-0.4642,0.0*
%
%ADD92ROTATEDRECTD92*%

G04:AMPARAMS|DCode=93|XSize=0.4mm|YSize=0.68mm|CornerRadius=0mm|HoleSize=0mm|Usage=FLASHONLY|Rotation=351.000|XOffset=0mm|YOffset=0mm|HoleType=Round|Shape=Rectangle|*
%AMROTATEDRECTD93*
4,1,4,-0.2507,-0.3045,-0.1444,0.3671,0.2507,0.3045,0.1444,-0.3671,-0.2507,-0.3045,0.0*
%
%ADD93ROTATEDRECTD93*%

G04:AMPARAMS|DCode=94|XSize=0.35mm|YSize=0.68mm|CornerRadius=0mm|HoleSize=0mm|Usage=FLASHONLY|Rotation=351.000|XOffset=0mm|YOffset=0mm|HoleType=Round|Shape=Rectangle|*
%AMROTATEDRECTD94*
4,1,4,-0.2260,-0.3084,-0.1197,0.3632,0.2260,0.3084,0.1197,-0.3632,-0.2260,-0.3084,0.0*
%
%ADD94ROTATEDRECTD94*%

G04:AMPARAMS|DCode=95|XSize=0.73mm|YSize=0.45mm|CornerRadius=0mm|HoleSize=0mm|Usage=FLASHONLY|Rotation=351.000|XOffset=0mm|YOffset=0mm|HoleType=Round|Shape=Rectangle|*
%AMROTATEDRECTD95*
4,1,4,-0.3957,-0.1651,-0.3253,0.2793,0.3957,0.1651,0.3253,-0.2793,-0.3957,-0.1651,0.0*
%
%ADD95ROTATEDRECTD95*%

%ADD96P,2.1920X4X216.0*%
G04:AMPARAMS|DCode=97|XSize=0.38mm|YSize=1mm|CornerRadius=0mm|HoleSize=0mm|Usage=FLASHONLY|Rotation=81.000|XOffset=0mm|YOffset=0mm|HoleType=Round|Shape=Round|*
%AMOVALD97*
21,1,0.6200,0.3800,0.0000,0.0000,171.0*
1,1,0.3800,0.3062,-0.0485*
1,1,0.3800,-0.3062,0.0485*
%
%ADD97OVALD97*%

G04:AMPARAMS|DCode=98|XSize=0.38mm|YSize=1mm|CornerRadius=0mm|HoleSize=0mm|Usage=FLASHONLY|Rotation=171.000|XOffset=0mm|YOffset=0mm|HoleType=Round|Shape=Round|*
%AMOVALD98*
21,1,0.6200,0.3800,0.0000,0.0000,261.0*
1,1,0.3800,0.0485,0.3062*
1,1,0.3800,-0.0485,-0.3062*
%
%ADD98OVALD98*%

G04:AMPARAMS|DCode=99|XSize=0.7mm|YSize=0.6mm|CornerRadius=0mm|HoleSize=0mm|Usage=FLASHONLY|Rotation=351.000|XOffset=0mm|YOffset=0mm|HoleType=Round|Shape=Rectangle|*
%AMROTATEDRECTD99*
4,1,4,-0.3926,-0.2415,-0.2988,0.3511,0.3926,0.2415,0.2988,-0.3511,-0.3926,-0.2415,0.0*
%
%ADD99ROTATEDRECTD99*%

G04:AMPARAMS|DCode=100|XSize=0.7mm|YSize=0.6mm|CornerRadius=0mm|HoleSize=0mm|Usage=FLASHONLY|Rotation=261.000|XOffset=0mm|YOffset=0mm|HoleType=Round|Shape=Rectangle|*
%AMROTATEDRECTD100*
4,1,4,-0.2415,0.3926,0.3511,0.2988,0.2415,-0.3926,-0.3511,-0.2988,-0.2415,0.3926,0.0*
%
%ADD100ROTATEDRECTD100*%

G04:AMPARAMS|DCode=101|XSize=0.7mm|YSize=0.6mm|CornerRadius=0mm|HoleSize=0mm|Usage=FLASHONLY|Rotation=105.000|XOffset=0mm|YOffset=0mm|HoleType=Round|Shape=Rectangle|*
%AMROTATEDRECTD101*
4,1,4,0.3804,-0.2604,-0.1992,-0.4157,-0.3804,0.2604,0.1992,0.4157,0.3804,-0.2604,0.0*
%
%ADD101ROTATEDRECTD101*%

G04:AMPARAMS|DCode=102|XSize=0.6mm|YSize=0.85mm|CornerRadius=0mm|HoleSize=0mm|Usage=FLASHONLY|Rotation=351.000|XOffset=0mm|YOffset=0mm|HoleType=Round|Shape=Rectangle|*
%AMROTATEDRECTD102*
4,1,4,-0.3628,-0.3728,-0.2298,0.4667,0.3628,0.3728,0.2298,-0.4667,-0.3628,-0.3728,0.0*
%
%ADD102ROTATEDRECTD102*%

G04:AMPARAMS|DCode=103|XSize=0.3mm|YSize=0.8mm|CornerRadius=0mm|HoleSize=0mm|Usage=FLASHONLY|Rotation=171.000|XOffset=0mm|YOffset=0mm|HoleType=Round|Shape=Round|*
%AMOVALD103*
21,1,0.5000,0.3000,0.0000,0.0000,261.0*
1,1,0.3000,0.0391,0.2469*
1,1,0.3000,-0.0391,-0.2469*
%
%ADD103OVALD103*%

G04:AMPARAMS|DCode=104|XSize=0.3mm|YSize=0.8mm|CornerRadius=0mm|HoleSize=0mm|Usage=FLASHONLY|Rotation=261.000|XOffset=0mm|YOffset=0mm|HoleType=Round|Shape=Round|*
%AMOVALD104*
21,1,0.5000,0.3000,0.0000,0.0000,351.0*
1,1,0.3000,-0.2469,0.0391*
1,1,0.3000,0.2469,-0.0391*
%
%ADD104OVALD104*%

G04:AMPARAMS|DCode=105|XSize=2.1mm|YSize=1mm|CornerRadius=0mm|HoleSize=0mm|Usage=FLASHONLY|Rotation=351.000|XOffset=0mm|YOffset=0mm|HoleType=Round|Shape=Rectangle|*
%AMROTATEDRECTD105*
4,1,4,-1.1153,-0.3296,-0.9589,0.6581,1.1153,0.3296,0.9589,-0.6581,-1.1153,-0.3296,0.0*
%
%ADD105ROTATEDRECTD105*%

G04:AMPARAMS|DCode=106|XSize=0.35mm|YSize=0.6mm|CornerRadius=0mm|HoleSize=0mm|Usage=FLASHONLY|Rotation=351.000|XOffset=0mm|YOffset=0mm|HoleType=Round|Shape=Rectangle|*
%AMROTATEDRECTD106*
4,1,4,-0.2198,-0.2689,-0.1259,0.3237,0.2198,0.2689,0.1259,-0.3237,-0.2198,-0.2689,0.0*
%
%ADD106ROTATEDRECTD106*%

G04:AMPARAMS|DCode=107|XSize=1.8mm|YSize=0.9mm|CornerRadius=0mm|HoleSize=0mm|Usage=FLASHONLY|Rotation=171.000|XOffset=0mm|YOffset=0mm|HoleType=Round|Shape=Rectangle|*
%AMROTATEDRECTD107*
4,1,4,0.9593,0.3037,0.8185,-0.5853,-0.9593,-0.3037,-0.8185,0.5853,0.9593,0.3037,0.0*
%
%ADD107ROTATEDRECTD107*%

G04:AMPARAMS|DCode=108|XSize=0.7mm|YSize=0.5mm|CornerRadius=0mm|HoleSize=0mm|Usage=FLASHONLY|Rotation=351.000|XOffset=0mm|YOffset=0mm|HoleType=Round|Shape=Rectangle|*
%AMROTATEDRECTD108*
4,1,4,-0.3848,-0.1922,-0.3066,0.3017,0.3848,0.1922,0.3066,-0.3017,-0.3848,-0.1922,0.0*
%
%ADD108ROTATEDRECTD108*%

G04:AMPARAMS|DCode=109|XSize=0.7mm|YSize=0.5mm|CornerRadius=0mm|HoleSize=0mm|Usage=FLASHONLY|Rotation=81.000|XOffset=0mm|YOffset=0mm|HoleType=Round|Shape=Rectangle|*
%AMROTATEDRECTD109*
4,1,4,0.1922,-0.3848,-0.3017,-0.3066,-0.1922,0.3848,0.3017,0.3066,0.1922,-0.3848,0.0*
%
%ADD109ROTATEDRECTD109*%

G04:AMPARAMS|DCode=110|XSize=0.964mm|YSize=1.776mm|CornerRadius=0mm|HoleSize=0mm|Usage=FLASHONLY|Rotation=261.000|XOffset=0mm|YOffset=0mm|HoleType=Round|Shape=Rectangle|*
%AMROTATEDRECTD110*
4,1,4,-0.8017,0.6150,0.9525,0.3372,0.8017,-0.6150,-0.9525,-0.3372,-0.8017,0.6150,0.0*
%
%ADD110ROTATEDRECTD110*%

G04:AMPARAMS|DCode=111|XSize=0.964mm|YSize=1.522mm|CornerRadius=0mm|HoleSize=0mm|Usage=FLASHONLY|Rotation=261.000|XOffset=0mm|YOffset=0mm|HoleType=Round|Shape=Rectangle|*
%AMROTATEDRECTD111*
4,1,4,-0.6762,0.5951,0.8270,0.3570,0.6762,-0.5951,-0.8270,-0.3570,-0.6762,0.5951,0.0*
%
%ADD111ROTATEDRECTD111*%

G04:AMPARAMS|DCode=112|XSize=0.8mm|YSize=1mm|CornerRadius=0.225mm|HoleSize=0mm|Usage=FLASHONLY|Rotation=351.000|XOffset=0mm|YOffset=0mm|HoleType=Round|Shape=RoundedRectangle|*
%AMROUNDEDRECTD112*
21,1,0.8000,0.5500,0,0,351.0*
21,1,0.3500,1.0000,0,0,351.0*
1,1,0.4500,0.1298,-0.2990*
1,1,0.4500,-0.2159,-0.2442*
1,1,0.4500,-0.1298,0.2990*
1,1,0.4500,0.2159,0.2442*
%
%ADD112ROUNDEDRECTD112*%
%ADD113P,1.6263X4X126.0*%
G04:AMPARAMS|DCode=114|XSize=0.425mm|YSize=1mm|CornerRadius=0mm|HoleSize=0mm|Usage=FLASHONLY|Rotation=171.000|XOffset=0mm|YOffset=0mm|HoleType=Round|Shape=Rectangle|*
%AMROTATEDRECTD114*
4,1,4,0.2881,0.4606,0.1317,-0.5271,-0.2881,-0.4606,-0.1317,0.5271,0.2881,0.4606,0.0*
%
%ADD114ROTATEDRECTD114*%

G04:AMPARAMS|DCode=115|XSize=1.2mm|YSize=3.7mm|CornerRadius=0mm|HoleSize=0mm|Usage=FLASHONLY|Rotation=171.000|XOffset=0mm|YOffset=0mm|HoleType=Round|Shape=Rectangle|*
%AMROTATEDRECTD115*
4,1,4,0.8820,1.7334,0.3032,-1.9211,-0.8820,-1.7334,-0.3032,1.9211,0.8820,1.7334,0.0*
%
%ADD115ROTATEDRECTD115*%

G04:AMPARAMS|DCode=116|XSize=1.2mm|YSize=3.7mm|CornerRadius=0mm|HoleSize=0mm|Usage=FLASHONLY|Rotation=306.000|XOffset=0mm|YOffset=0mm|HoleType=Round|Shape=Rectangle|*
%AMROTATEDRECTD116*
4,1,4,-1.8494,-0.6020,1.1440,1.5728,1.8494,0.6020,-1.1440,-1.5728,-1.8494,-0.6020,0.0*
%
%ADD116ROTATEDRECTD116*%

G04:AMPARAMS|DCode=117|XSize=0.4mm|YSize=0.85mm|CornerRadius=0mm|HoleSize=0mm|Usage=FLASHONLY|Rotation=284.000|XOffset=0mm|YOffset=0mm|HoleType=Round|Shape=Rectangle|*
%AMROTATEDRECTD117*
4,1,4,-0.4608,0.0912,0.3640,0.2969,0.4608,-0.0912,-0.3640,-0.2969,-0.4608,0.0912,0.0*
%
%ADD117ROTATEDRECTD117*%

G04:AMPARAMS|DCode=118|XSize=1.55mm|YSize=1.85mm|CornerRadius=0mm|HoleSize=0mm|Usage=FLASHONLY|Rotation=284.000|XOffset=0mm|YOffset=0mm|HoleType=Round|Shape=Rectangle|*
%AMROTATEDRECTD118*
4,1,4,-1.0850,0.5282,0.7100,0.9758,1.0850,-0.5282,-0.7100,-0.9758,-1.0850,0.5282,0.0*
%
%ADD118ROTATEDRECTD118*%

G04:AMPARAMS|DCode=119|XSize=1.4mm|YSize=1.4mm|CornerRadius=0.375mm|HoleSize=0mm|Usage=FLASHONLY|Rotation=81.000|XOffset=0mm|YOffset=0mm|HoleType=Round|Shape=RoundedRectangle|*
%AMROUNDEDRECTD119*
21,1,1.4000,0.6500,0,0,81.0*
21,1,0.6500,1.4000,0,0,81.0*
1,1,0.7500,0.3718,0.2702*
1,1,0.7500,0.2702,-0.3718*
1,1,0.7500,-0.3718,-0.2702*
1,1,0.7500,-0.2702,0.3718*
%
%ADD119ROUNDEDRECTD119*%
%ADD120C,1.1000*%
G04:AMPARAMS|DCode=121|XSize=1.75mm|YSize=1mm|CornerRadius=0mm|HoleSize=0mm|Usage=FLASHONLY|Rotation=555.000|XOffset=0mm|YOffset=0mm|HoleType=Round|Shape=Round|*
%AMOVALD121*
21,1,0.7500,1.0000,0.0000,0.0000,555.0*
1,1,1.0000,0.3622,0.0971*
1,1,1.0000,-0.3622,-0.0971*
%
%ADD121OVALD121*%

D76*
X30000Y-224000D02*
D03*
X-143000Y71000D02*
D03*
X159000Y14000D02*
D03*
D79*
X123927Y-152988D02*
D03*
D80*
X21202Y-74960D02*
D03*
X-3202Y-229040D02*
D03*
D81*
X132826Y-24490D02*
D03*
X150530Y-52625D02*
D03*
D82*
X155356Y-29115D02*
D03*
X128000Y-48000D02*
D03*
X123375Y-70530D02*
D03*
X145905Y-75155D02*
D03*
X137451Y-1960D02*
D03*
X159981Y-6585D02*
D03*
D83*
X-115179Y-24889D02*
D03*
X-105793Y34372D02*
D03*
D84*
X-71500Y-149750D02*
D03*
D85*
X31673Y-129753D02*
D03*
X30327Y-138247D02*
D03*
X72827Y21753D02*
D03*
X74173Y30247D02*
D03*
X54259Y33453D02*
D03*
X52914Y24959D02*
D03*
X12783Y-135773D02*
D03*
X11437Y-144267D02*
D03*
X25173Y-170253D02*
D03*
X23827Y-178747D02*
D03*
X-40095Y144637D02*
D03*
X-41440Y136143D02*
D03*
X34327Y179753D02*
D03*
X35673Y188247D02*
D03*
X12007Y93483D02*
D03*
X13353Y101977D02*
D03*
X6673Y61747D02*
D03*
X5327Y53253D02*
D03*
X17173Y124997D02*
D03*
X15827Y116503D02*
D03*
X64259Y31953D02*
D03*
X62914Y23459D02*
D03*
X9563Y-154753D02*
D03*
X8217Y-163247D02*
D03*
X99601Y-161103D02*
D03*
X100946Y-152609D02*
D03*
X-32698Y-53438D02*
D03*
X-34043Y-61932D02*
D03*
X-42558Y-51804D02*
D03*
X-43903Y-60298D02*
D03*
X-52486Y-50184D02*
D03*
X-53831Y-58678D02*
D03*
X-63923Y-56997D02*
D03*
X-62577Y-48503D02*
D03*
X-72400Y-46953D02*
D03*
X-73746Y-55447D02*
D03*
X51827Y-30247D02*
D03*
X53173Y-21753D02*
D03*
X71827Y-33497D02*
D03*
X73173Y-25003D02*
D03*
X63271Y-23406D02*
D03*
X61926Y-31900D02*
D03*
D86*
X-4503Y149827D02*
D03*
X-12997Y151173D02*
D03*
X-12245Y44479D02*
D03*
X-20739Y45825D02*
D03*
X32253Y-191577D02*
D03*
X40747Y-192923D02*
D03*
X42534Y-182465D02*
D03*
X34040Y-181120D02*
D03*
X43867Y-172402D02*
D03*
X35373Y-171056D02*
D03*
X45792Y-162409D02*
D03*
X37298Y-161064D02*
D03*
X50314Y-131984D02*
D03*
X41820Y-130639D02*
D03*
X52053Y-122004D02*
D03*
X43559Y-120659D02*
D03*
X47259Y-152233D02*
D03*
X38765Y-150888D02*
D03*
X48702Y-142059D02*
D03*
X40208Y-140714D02*
D03*
X118997Y-86423D02*
D03*
X110503Y-85077D02*
D03*
X32734Y169064D02*
D03*
X41228Y167719D02*
D03*
X13253Y146673D02*
D03*
X21747Y145327D02*
D03*
X91003Y-29577D02*
D03*
X99497Y-30923D02*
D03*
X-31365Y47481D02*
D03*
X-39859Y48826D02*
D03*
X-13003Y101327D02*
D03*
X-21497Y102673D02*
D03*
X84247Y-218173D02*
D03*
X75753Y-216827D02*
D03*
X125997Y-167173D02*
D03*
X117503Y-165827D02*
D03*
X57021Y-67861D02*
D03*
X48527Y-66516D02*
D03*
D87*
X-23556Y-175586D02*
D03*
X-30144Y-181114D02*
D03*
D88*
X-129828Y-62710D02*
D03*
X-138172Y-64790D02*
D03*
D89*
X-133710Y-91922D02*
D03*
X-135790Y-83578D02*
D03*
D90*
X-28425Y145053D02*
D03*
X-30459Y132213D02*
D03*
X87934Y-157949D02*
D03*
X89968Y-145109D02*
D03*
X-37771Y-143737D02*
D03*
X-35737Y-130897D02*
D03*
D91*
X-27831Y-161016D02*
D03*
X-40671Y-158982D02*
D03*
D92*
X8405Y70586D02*
D03*
X10595Y84414D02*
D03*
D93*
X53019Y-40548D02*
D03*
X67835Y-42895D02*
D03*
X51017Y-53191D02*
D03*
X65832Y-55537D02*
D03*
D94*
X57958Y-41330D02*
D03*
X62896Y-42113D02*
D03*
X55955Y-53973D02*
D03*
X60894Y-54755D02*
D03*
D95*
X67920Y-49389D02*
D03*
X50931Y-46698D02*
D03*
D96*
X96470Y-188510D02*
D03*
D97*
X111718Y-183332D02*
D03*
X110936Y-188270D02*
D03*
X110154Y-193208D02*
D03*
X109371Y-198147D02*
D03*
X81222Y-193689D02*
D03*
X82004Y-188750D02*
D03*
X82787Y-183812D02*
D03*
X83569Y-178873D02*
D03*
D98*
X101649Y-203758D02*
D03*
X96710Y-202976D02*
D03*
X91772Y-202194D02*
D03*
X86833Y-201411D02*
D03*
X91292Y-173262D02*
D03*
X96230Y-174044D02*
D03*
X101168Y-174827D02*
D03*
X106107Y-175609D02*
D03*
D99*
X-8864Y-106591D02*
D03*
X-11054Y-120419D02*
D03*
D100*
X-28586Y-235845D02*
D03*
X-42414Y-233655D02*
D03*
X91414Y-98845D02*
D03*
X77586Y-96655D02*
D03*
D101*
X-81511Y-119312D02*
D03*
X-67989Y-115688D02*
D03*
X-78261Y-131062D02*
D03*
X-64738Y-127438D02*
D03*
X-103012Y-195312D02*
D03*
X-89488Y-191688D02*
D03*
D102*
X-9401Y62424D02*
D03*
X-18784Y63910D02*
D03*
X-28167Y65396D02*
D03*
X-5333Y88104D02*
D03*
X-14716Y89590D02*
D03*
X-24099Y91076D02*
D03*
D103*
X-3730Y193770D02*
D03*
X220Y193144D02*
D03*
X4171Y192518D02*
D03*
X8122Y191893D02*
D03*
X12073Y191267D02*
D03*
X16023Y190641D02*
D03*
X11330Y161010D02*
D03*
X7380Y161636D02*
D03*
X3429Y162262D02*
D03*
X-522Y162888D02*
D03*
X-4473Y163513D02*
D03*
X-8423Y164139D02*
D03*
D104*
X20180Y184920D02*
D03*
X19554Y180970D02*
D03*
X18928Y177019D02*
D03*
X18303Y173068D02*
D03*
X17677Y169117D02*
D03*
X17051Y165167D02*
D03*
X-12580Y169860D02*
D03*
X-11954Y173810D02*
D03*
X-11328Y177761D02*
D03*
X-10702Y181712D02*
D03*
X-10077Y185663D02*
D03*
X-9451Y189613D02*
D03*
D105*
X-11750Y-141250D02*
D03*
D106*
X-22610Y-129912D02*
D03*
X-17672Y-130694D02*
D03*
X-12733Y-131476D02*
D03*
X-7795Y-132258D02*
D03*
X-2856Y-133040D02*
D03*
X2082Y-133822D02*
D03*
X-25582Y-148678D02*
D03*
X-20644Y-149460D02*
D03*
X-15705Y-150242D02*
D03*
X-10767Y-151024D02*
D03*
X-5828Y-151806D02*
D03*
X-890Y-152589D02*
D03*
D107*
X-73398Y-103643D02*
D03*
X-68079Y-70062D02*
D03*
D108*
X98965Y112075D02*
D03*
X97714Y104173D02*
D03*
X96462Y96272D02*
D03*
X95211Y88370D02*
D03*
X93959Y80469D02*
D03*
X92708Y72567D02*
D03*
X38158Y150055D02*
D03*
X36907Y142153D02*
D03*
X35655Y134252D02*
D03*
X34404Y126350D02*
D03*
X42667Y120992D02*
D03*
X33152Y118449D02*
D03*
X41416Y113090D02*
D03*
X31901Y110547D02*
D03*
X40164Y105189D02*
D03*
X30649Y102646D02*
D03*
X38913Y97287D02*
D03*
X29398Y94744D02*
D03*
X37661Y89386D02*
D03*
X28146Y86843D02*
D03*
X36410Y81484D02*
D03*
X26895Y78941D02*
D03*
X25643Y71040D02*
D03*
X24392Y63138D02*
D03*
X23140Y55237D02*
D03*
D109*
X145581Y131522D02*
D03*
X137260Y123728D02*
D03*
X134717Y133243D02*
D03*
X129358Y124979D02*
D03*
X126815Y134494D02*
D03*
X121457Y126231D02*
D03*
X113555Y127482D02*
D03*
X111012Y136997D02*
D03*
X105654Y128734D02*
D03*
X103111Y138249D02*
D03*
X97752Y129985D02*
D03*
X95209Y139500D02*
D03*
X89851Y131237D02*
D03*
X81949Y132488D02*
D03*
X79406Y142003D02*
D03*
X74048Y133740D02*
D03*
X71505Y143255D02*
D03*
X66146Y134991D02*
D03*
X63603Y144506D02*
D03*
X58245Y136243D02*
D03*
X55702Y145758D02*
D03*
X47800Y147009D02*
D03*
X131033Y39667D02*
D03*
X120168Y41388D02*
D03*
X112267Y42639D02*
D03*
X96464Y45142D02*
D03*
X93921Y54657D02*
D03*
X88562Y46394D02*
D03*
X86020Y55909D02*
D03*
X80661Y47645D02*
D03*
X78118Y57160D02*
D03*
X72759Y48897D02*
D03*
X70217Y58411D02*
D03*
X64858Y50148D02*
D03*
X62315Y59663D02*
D03*
X56956Y51400D02*
D03*
D110*
X-48593Y186628D02*
D03*
D111*
X-49326Y173886D02*
D03*
X-51312Y161342D02*
D03*
X-53299Y148799D02*
D03*
X-55286Y136255D02*
D03*
X-135954Y200465D02*
D03*
X-137941Y187921D02*
D03*
X-139928Y175378D02*
D03*
X-141914Y162834D02*
D03*
X-143901Y150290D02*
D03*
D112*
X116982Y-151889D02*
D03*
X130871Y-154093D02*
D03*
D113*
X-15562Y136441D02*
D03*
X-18691Y116687D02*
D03*
X4191Y133313D02*
D03*
X1063Y113559D02*
D03*
D114*
X96550Y20153D02*
D03*
X104452Y18902D02*
D03*
X112353Y17650D02*
D03*
X120254Y16399D02*
D03*
X90605Y-17379D02*
D03*
X98507Y-18630D02*
D03*
X106409Y-19882D02*
D03*
X114310Y-21133D02*
D03*
D115*
X134809Y-122175D02*
D03*
X104191Y-117325D02*
D03*
D116*
X-83861Y-204710D02*
D03*
X-65639Y-229790D02*
D03*
D117*
X-122505Y-88535D02*
D03*
X-123715Y-83684D02*
D03*
X-124924Y-78832D02*
D03*
X-126134Y-73981D02*
D03*
X-94366Y-81519D02*
D03*
X-95576Y-76668D02*
D03*
X-96785Y-71816D02*
D03*
X-97995Y-66965D02*
D03*
D118*
X-110250Y-77750D02*
D03*
D119*
X-52533Y72902D02*
D03*
X-75250Y76500D02*
D03*
X-97967Y80098D02*
D03*
D120*
X-107938Y-141324D02*
D03*
X-104573Y-153881D02*
D03*
X-111302Y-128767D02*
D03*
X-99961Y-132457D02*
D03*
X-96596Y-145014D02*
D03*
D121*
X-95497Y-175002D02*
D03*
X-114003Y-105938D02*
D03*
M02*
