G04 Layer_Physical_Order=1*
G04 Layer_Color=255*
%FSLAX44Y44*%
%MOMM*%
G71*
G01*
G75*
%ADD10C,0.9000*%
%ADD11C,0.3000*%
%ADD12C,6.0000*%
G04:AMPARAMS|DCode=13|XSize=0.9mm|YSize=0.85mm|CornerRadius=0mm|HoleSize=0mm|Usage=FLASHONLY|Rotation=307.000|XOffset=0mm|YOffset=0mm|HoleType=Round|Shape=Rectangle|*
%AMROTATEDRECTD13*
4,1,4,-0.6102,0.1036,0.0686,0.6152,0.6102,-0.1036,-0.0686,-0.6152,-0.6102,0.1036,0.0*
%
%ADD13ROTATEDRECTD13*%

%ADD14C,1.0000*%
%ADD15C,1.5000*%
%ADD16C,0.1250*%
%ADD17C,0.2000*%
%ADD18C,0.1500*%
%ADD19C,0.4000*%
G04:AMPARAMS|DCode=20|XSize=0.9mm|YSize=1.65mm|CornerRadius=0mm|HoleSize=0mm|Usage=FLASHONLY|Rotation=285.000|XOffset=0mm|YOffset=0mm|HoleType=Round|Shape=Round|*
%AMOVALD20*
21,1,0.7500,0.9000,0.0000,0.0000,15.0*
1,1,0.9000,-0.3622,-0.0971*
1,1,0.9000,0.3622,0.0971*
%
%ADD20OVALD20*%

%ADD21C,0.6000*%
G36*
X31637Y167769D02*
X39823Y156510D01*
X39823Y156510D01*
X39824Y156510D01*
X39892Y156416D01*
X40659Y155707D01*
X41639Y155346D01*
X42062Y155363D01*
X85700Y148467D01*
X85984Y148478D01*
X86264Y148438D01*
X86500Y148499D01*
X86744Y148508D01*
X87001Y148627D01*
X87276Y148698D01*
X94047Y151947D01*
X94748Y151479D01*
X96699Y151091D01*
X98650Y151479D01*
X100304Y152584D01*
X101409Y154238D01*
X101593Y155164D01*
X102794Y154925D01*
X102723Y154572D01*
X103111Y152621D01*
X104216Y150967D01*
X105870Y149862D01*
X107821Y149474D01*
X109772Y149862D01*
X111426Y150967D01*
X112531Y152621D01*
X112661Y153274D01*
X114326Y152943D01*
X116277Y153331D01*
X117931Y154436D01*
X119036Y156090D01*
X119424Y158041D01*
X119036Y159992D01*
X117931Y161646D01*
X116277Y162751D01*
X114903Y163024D01*
X111557Y169997D01*
X111520Y170046D01*
X111502Y170105D01*
X111392Y170238D01*
X111986Y171086D01*
X111989Y171088D01*
X138897Y161550D01*
X175930Y147355D01*
X181092Y144611D01*
X185437Y140890D01*
X188868Y136312D01*
X191219Y131097D01*
X192378Y125495D01*
X192287Y119647D01*
X187010Y80712D01*
X180980Y41739D01*
X173826Y743D01*
X164927Y-44644D01*
X163558Y-50896D01*
X162548Y-50833D01*
X162344Y-48629D01*
X161477Y-46282D01*
X160032Y-44241D01*
X158107Y-42643D01*
X155835Y-41597D01*
X153369Y-41175D01*
X150878Y-41406D01*
X148136Y-42028D01*
X147420Y-41331D01*
X147564Y-40605D01*
X147176Y-38654D01*
X146071Y-37001D01*
X144417Y-35896D01*
X142466Y-35507D01*
X140515Y-35896D01*
X138861Y-37001D01*
X137756Y-38654D01*
X137368Y-40605D01*
X137756Y-42556D01*
X138327Y-43411D01*
X137957Y-44339D01*
X6629Y-74156D01*
X4282Y-75023D01*
X2241Y-76469D01*
X643Y-78393D01*
X-403Y-80665D01*
X-825Y-83131D01*
X-594Y-85621D01*
X273Y-87968D01*
X1718Y-90009D01*
X3643Y-91607D01*
X5915Y-92653D01*
X8381Y-93075D01*
X10871Y-92844D01*
X91415Y-74558D01*
X111623Y-153575D01*
X112260Y-155164D01*
X113286Y-156534D01*
X114632Y-157591D01*
X116206Y-158264D01*
X117900Y-158507D01*
X119599Y-158303D01*
X121188Y-157666D01*
X122557Y-156640D01*
X123615Y-155294D01*
X124288Y-153720D01*
X124530Y-152026D01*
X124326Y-150327D01*
X104384Y-72348D01*
X104906Y-71495D01*
X155121Y-60094D01*
X157468Y-59227D01*
X159509Y-57782D01*
X161107Y-55857D01*
X161758Y-54443D01*
X162712Y-54763D01*
X155040Y-89801D01*
X144194Y-134611D01*
X132390Y-179084D01*
X129597Y-187157D01*
X125845Y-194758D01*
X121171Y-201829D01*
X115649Y-208261D01*
X109367Y-213951D01*
X102422Y-218811D01*
X94923Y-222764D01*
X86927Y-225770D01*
X74991Y-229283D01*
X62915Y-232557D01*
X41448Y-237706D01*
X19734Y-242069D01*
X-2162Y-245630D01*
X-26619Y-248635D01*
X-51013Y-250622D01*
X-75313Y-251599D01*
X-80707Y-251154D01*
X-85799Y-249657D01*
X-90483Y-247162D01*
X-94566Y-243770D01*
X-97879Y-239623D01*
X-100338Y-234786D01*
X-106099Y-219456D01*
X-111621Y-203914D01*
X-120948Y-175359D01*
X-128453Y-149606D01*
X-135142Y-123718D01*
X-141606Y-94866D01*
X-147059Y-65907D01*
X-151505Y-36830D01*
X-154647Y-10557D01*
X-156976Y15840D01*
X-158490Y42359D01*
X-159187Y69006D01*
X-159064Y95776D01*
X-157964Y125596D01*
X-157915Y126300D01*
X-156916Y126328D01*
X-152293Y89826D01*
X-153311Y89623D01*
X-154965Y88518D01*
X-156070Y86864D01*
X-156458Y84913D01*
X-156070Y82962D01*
X-154965Y81308D01*
X-153968Y80643D01*
X-153821Y79363D01*
X-154670Y78493D01*
X-155895Y76312D01*
X-156514Y73889D01*
X-156485Y71387D01*
X-155809Y68979D01*
X-154533Y66828D01*
X-152743Y65080D01*
X-150562Y63855D01*
X-148139Y63236D01*
X-145637Y63265D01*
X-13387Y82265D01*
X-10979Y82941D01*
X-8828Y84218D01*
X-7080Y86007D01*
X-5855Y88188D01*
X-5236Y90611D01*
X-5265Y93113D01*
X-5547Y94115D01*
X-4867Y94849D01*
X-4620Y94800D01*
X-2670Y95188D01*
X-1016Y96293D01*
X-132D01*
X474Y95385D01*
X2128Y94280D01*
X4079Y93892D01*
X6030Y94280D01*
X7684Y95385D01*
X8789Y97039D01*
X9177Y98990D01*
X8789Y100941D01*
X7684Y102594D01*
X6030Y103700D01*
X4079Y104088D01*
X2128Y103700D01*
X695Y102742D01*
X-493Y102720D01*
X-1016Y103502D01*
X-2670Y104607D01*
X-4620Y104996D01*
X-6571Y104607D01*
X-6766Y104477D01*
X-7610Y105014D01*
X-1796Y143251D01*
X-1620Y144200D01*
D01*
X-1349Y145135D01*
X-556Y146322D01*
X812Y147235D01*
X2424Y147556D01*
X4037Y147235D01*
X5404Y146322D01*
X5646Y145960D01*
X5801Y145314D01*
X6992Y143115D01*
X8713Y141299D01*
X10844Y139990D01*
X13059Y139332D01*
X13249Y138814D01*
X13258Y138263D01*
X12374Y137672D01*
X11269Y136018D01*
X10880Y134067D01*
X11269Y132116D01*
X12374Y130462D01*
X14028Y129357D01*
X15978Y128969D01*
X17929Y129357D01*
X19280Y130260D01*
X19583Y130462D01*
X20521Y130066D01*
X21027Y129308D01*
X22681Y128203D01*
X24632Y127815D01*
X26583Y128203D01*
X28237Y129308D01*
X29342Y130962D01*
X29730Y132913D01*
X29342Y134864D01*
X28716Y135801D01*
X29304Y136720D01*
X40457Y134944D01*
X40476Y133928D01*
X40108Y133855D01*
X38454Y132750D01*
X37349Y131096D01*
X36961Y129145D01*
X37349Y127194D01*
X38454Y125540D01*
X40108Y124435D01*
X42059Y124047D01*
X44010Y124435D01*
X45589Y125490D01*
X111092Y115139D01*
X111936Y113877D01*
X113589Y112772D01*
X115540Y112384D01*
X117491Y112772D01*
X119145Y113877D01*
X120250Y115531D01*
X120638Y117482D01*
X120250Y119433D01*
X119145Y121087D01*
X118531Y121497D01*
X118904Y122450D01*
X169458Y114399D01*
X171958Y114332D01*
X174391Y114914D01*
X176590Y116105D01*
X178406Y117825D01*
X179715Y119957D01*
X180427Y122355D01*
X180495Y124855D01*
X179913Y127288D01*
X178722Y129487D01*
X177001Y131303D01*
X174870Y132612D01*
X172472Y133325D01*
X150317Y136853D01*
X149911Y137930D01*
X150729Y139155D01*
X151117Y141106D01*
X150729Y143056D01*
X149624Y144710D01*
X147970Y145815D01*
X146019Y146204D01*
X144068Y145815D01*
X142414Y144710D01*
X141309Y143056D01*
X140921Y141106D01*
X141279Y139305D01*
X140714Y138382D01*
X137989Y138816D01*
X137514Y139904D01*
X138241Y140993D01*
X138629Y142944D01*
X138241Y144895D01*
X137136Y146548D01*
X135482Y147654D01*
X133531Y148041D01*
X131580Y147654D01*
X129926Y146548D01*
X128821Y144895D01*
X128433Y142944D01*
X128760Y141299D01*
X128113Y140389D01*
X16256Y158203D01*
X13756Y158271D01*
X11888Y157824D01*
X9051Y159340D01*
X5803Y160326D01*
X2424Y160658D01*
X-954Y160326D01*
X-4203Y159340D01*
X-7196Y157740D01*
X-9821Y155586D01*
X-11974Y152962D01*
X-13574Y149968D01*
X-14496Y146932D01*
X-14496Y146932D01*
X-14557Y146555D01*
X-14647Y145964D01*
X-21567Y100451D01*
X-29660Y99288D01*
X-29755Y99406D01*
X-29552Y100744D01*
X-28852Y101212D01*
X-27747Y102866D01*
X-27359Y104817D01*
X-27747Y106768D01*
X-28620Y108075D01*
X-27426Y108873D01*
X-26321Y110527D01*
X-25933Y112478D01*
X-26321Y114428D01*
X-27367Y115994D01*
X-26227Y116756D01*
X-25122Y118410D01*
X-24734Y120361D01*
X-25122Y122312D01*
X-26227Y123966D01*
X-27881Y125071D01*
X-29832Y125459D01*
X-31782Y125071D01*
X-33436Y123966D01*
X-34541Y122312D01*
X-34929Y120361D01*
X-34541Y118410D01*
X-33495Y116844D01*
X-34636Y116082D01*
X-35741Y114428D01*
X-36129Y112478D01*
X-35741Y110527D01*
X-34867Y109220D01*
X-36062Y108422D01*
X-37167Y106768D01*
X-37555Y104817D01*
X-37167Y102866D01*
X-36062Y101212D01*
X-34408Y100107D01*
X-32975Y99822D01*
X-33002Y98808D01*
X-138582Y83640D01*
X-139216Y84559D01*
X-138886Y86218D01*
X-139274Y88169D01*
X-140379Y89823D01*
X-142033Y90928D01*
X-143984Y91316D01*
X-144379Y91600D01*
X-149318Y130603D01*
X-148468Y131129D01*
X-148329Y131036D01*
X-146378Y130648D01*
X-144427Y131036D01*
X-144337Y131097D01*
X-143616Y130376D01*
X-143886Y129971D01*
X-144274Y128020D01*
X-143886Y126069D01*
X-142781Y124416D01*
X-141127Y123310D01*
X-139176Y122922D01*
X-138829Y122991D01*
X-136865Y120291D01*
X-136865Y120291D01*
X-136098Y119582D01*
X-135118Y119221D01*
X-135118D01*
X-74556Y109650D01*
X-74556Y109650D01*
X-73513Y109692D01*
X-72564Y110129D01*
X-65237Y115457D01*
X-64529Y116224D01*
X-64168Y117204D01*
Y117204D01*
X-62211Y129587D01*
X-27336Y154943D01*
X-27336Y154943D01*
X-26628Y155710D01*
X-26267Y156690D01*
Y156690D01*
X-24074Y170567D01*
X-17289Y175500D01*
X31637Y167769D01*
D02*
G37*
%LPC*%
G36*
X-52660Y-151965D02*
X-54611Y-152353D01*
X-56265Y-153458D01*
X-57370Y-155112D01*
X-57758Y-157063D01*
X-57370Y-159014D01*
X-56265Y-160668D01*
X-54611Y-161773D01*
X-52660Y-162161D01*
X-50709Y-161773D01*
X-49055Y-160668D01*
X-47950Y-159014D01*
X-47562Y-157063D01*
X-47950Y-155112D01*
X-49055Y-153458D01*
X-50709Y-152353D01*
X-52660Y-151965D01*
D02*
G37*
G36*
X-111302Y-121707D02*
X-113130Y-121947D01*
X-114832Y-122653D01*
X-116295Y-123775D01*
X-117417Y-125237D01*
X-118122Y-126940D01*
X-118363Y-128767D01*
X-118122Y-130595D01*
X-117417Y-132297D01*
X-116295Y-133759D01*
X-114832Y-134882D01*
X-113436Y-135460D01*
X-113274Y-135739D01*
X-113131Y-136272D01*
X-113132Y-136595D01*
X-114052Y-137794D01*
X-114757Y-139497D01*
X-114998Y-141324D01*
X-114757Y-143152D01*
X-114052Y-144854D01*
X-112930Y-146316D01*
X-111468Y-147439D01*
X-110072Y-148017D01*
X-109910Y-148296D01*
X-109767Y-148829D01*
X-109768Y-149152D01*
X-110687Y-150351D01*
X-111393Y-152054D01*
X-111633Y-153881D01*
X-111393Y-155709D01*
X-110687Y-157411D01*
X-109565Y-158874D01*
X-108103Y-159996D01*
X-106400Y-160701D01*
X-104573Y-160942D01*
X-102746Y-160701D01*
X-101043Y-159996D01*
X-99580Y-158874D01*
X-98458Y-157411D01*
X-97753Y-155709D01*
X-97513Y-153881D01*
X-97636Y-152947D01*
X-96744Y-152055D01*
X-96596Y-152075D01*
X-94769Y-151834D01*
X-93066Y-151129D01*
X-91603Y-150007D01*
X-90482Y-148545D01*
X-89776Y-146842D01*
X-89536Y-145014D01*
X-89776Y-143187D01*
X-90482Y-141484D01*
X-91603Y-140022D01*
X-93066Y-138900D01*
X-94462Y-138322D01*
X-94624Y-138042D01*
X-94767Y-137509D01*
X-94766Y-137186D01*
X-93846Y-135988D01*
X-93141Y-134285D01*
X-92900Y-132457D01*
X-93141Y-130630D01*
X-93846Y-128927D01*
X-94968Y-127465D01*
X-96430Y-126343D01*
X-98133Y-125638D01*
X-99961Y-125397D01*
X-101788Y-125638D01*
X-103491Y-126343D01*
X-103610Y-126434D01*
X-104827Y-126108D01*
X-105188Y-125237D01*
X-106310Y-123775D01*
X-107772Y-122653D01*
X-109475Y-121947D01*
X-111302Y-121707D01*
D02*
G37*
G36*
X74535Y-164697D02*
X72584Y-165086D01*
X70931Y-166191D01*
X69825Y-167845D01*
X69437Y-169795D01*
X69825Y-171746D01*
X70931Y-173400D01*
X72584Y-174505D01*
X74535Y-174893D01*
X76486Y-174505D01*
X78140Y-173400D01*
X79245Y-171746D01*
X79633Y-169795D01*
X79245Y-167845D01*
X78140Y-166191D01*
X76486Y-165086D01*
X74535Y-164697D01*
D02*
G37*
G36*
X-18637Y-157634D02*
X-20588Y-158022D01*
X-22242Y-159127D01*
X-23347Y-160781D01*
X-23735Y-162732D01*
X-23347Y-164683D01*
X-22242Y-166337D01*
X-20588Y-167442D01*
X-18637Y-167830D01*
X-16686Y-167442D01*
X-15032Y-166337D01*
X-13927Y-164683D01*
X-13539Y-162732D01*
X-13927Y-160781D01*
X-15032Y-159127D01*
X-16686Y-158022D01*
X-18637Y-157634D01*
D02*
G37*
G36*
X-21128Y-115980D02*
X-23079Y-116368D01*
X-24733Y-117473D01*
X-25838Y-119127D01*
X-26226Y-121078D01*
X-25838Y-123029D01*
X-24733Y-124683D01*
X-23079Y-125788D01*
X-21128Y-126176D01*
X-19177Y-125788D01*
X-17523Y-124683D01*
X-16418Y-123029D01*
X-16030Y-121078D01*
X-16418Y-119127D01*
X-17523Y-117473D01*
X-19177Y-116368D01*
X-21128Y-115980D01*
D02*
G37*
G36*
X-89281Y-107694D02*
X-91231Y-108082D01*
X-92885Y-109187D01*
X-93990Y-110841D01*
X-94378Y-112792D01*
X-93990Y-114743D01*
X-92885Y-116397D01*
X-91231Y-117502D01*
X-89281Y-117890D01*
X-87330Y-117502D01*
X-85676Y-116397D01*
X-84571Y-114743D01*
X-84183Y-112792D01*
X-84571Y-110841D01*
X-85676Y-109187D01*
X-87330Y-108082D01*
X-89281Y-107694D01*
D02*
G37*
G36*
X-16864Y-135342D02*
X-18815Y-135730D01*
X-20469Y-136835D01*
X-21574Y-138489D01*
X-21962Y-140440D01*
X-21574Y-142391D01*
X-20469Y-144045D01*
X-18815Y-145150D01*
X-16864Y-145538D01*
X-14913Y-145150D01*
X-14913Y-145150D01*
X-13701Y-145960D01*
X-11750Y-146348D01*
X-9876Y-145975D01*
X-8718Y-146749D01*
X-6767Y-147137D01*
X-4816Y-146749D01*
X-3162Y-145644D01*
X-2057Y-143990D01*
X-1669Y-142039D01*
X-2057Y-140088D01*
X-3162Y-138434D01*
X-4816Y-137329D01*
X-6767Y-136941D01*
X-8641Y-137314D01*
X-9799Y-136540D01*
X-11750Y-136152D01*
X-13701Y-136540D01*
X-13701Y-136540D01*
X-14913Y-135730D01*
X-16864Y-135342D01*
D02*
G37*
G36*
X-47954Y-123478D02*
X-49905Y-123866D01*
X-51559Y-124971D01*
X-52664Y-126625D01*
X-53052Y-128575D01*
X-52664Y-130526D01*
X-51559Y-132180D01*
X-49905Y-133285D01*
X-47954Y-133673D01*
X-46003Y-133285D01*
X-44350Y-132180D01*
X-43245Y-130526D01*
X-42856Y-128575D01*
X-43245Y-126625D01*
X-44350Y-124971D01*
X-46003Y-123866D01*
X-47954Y-123478D01*
D02*
G37*
G36*
X6727Y-166780D02*
X4777Y-167168D01*
X3123Y-168273D01*
X2018Y-169927D01*
X1630Y-171878D01*
X2018Y-173829D01*
X3123Y-175483D01*
X4777Y-176588D01*
X6727Y-176976D01*
X8678Y-176588D01*
X10332Y-175483D01*
X11437Y-173829D01*
X11825Y-171878D01*
X11437Y-169927D01*
X10332Y-168273D01*
X8678Y-167168D01*
X6727Y-166780D01*
D02*
G37*
G36*
X53480Y-208221D02*
X51529Y-208609D01*
X49875Y-209714D01*
X48770Y-211368D01*
X48382Y-213319D01*
X48770Y-215270D01*
X49875Y-216924D01*
X51529Y-218029D01*
X53480Y-218417D01*
X55431Y-218029D01*
X57085Y-216924D01*
X58190Y-215270D01*
X58578Y-213319D01*
X58190Y-211368D01*
X57085Y-209714D01*
X55431Y-208609D01*
X53480Y-208221D01*
D02*
G37*
G36*
X79606Y-195040D02*
X77655Y-195428D01*
X76001Y-196534D01*
X75271Y-197625D01*
X42958Y-199843D01*
X42608Y-199320D01*
X40955Y-198215D01*
X39004Y-197827D01*
X37053Y-198215D01*
X35399Y-199320D01*
X34294Y-200974D01*
X33906Y-202925D01*
X34294Y-204876D01*
X35399Y-206530D01*
X37053Y-207635D01*
X39004Y-208023D01*
X40955Y-207635D01*
X42608Y-206530D01*
X43338Y-205438D01*
X75651Y-203220D01*
X76001Y-203743D01*
X77655Y-204848D01*
X79606Y-205236D01*
X81557Y-204848D01*
X83210Y-203743D01*
X84316Y-202089D01*
X84704Y-200138D01*
X84316Y-198187D01*
X83210Y-196534D01*
X81557Y-195428D01*
X79606Y-195040D01*
D02*
G37*
G36*
X-44159Y-236668D02*
X-46110Y-237056D01*
X-47764Y-238162D01*
X-48869Y-239815D01*
X-49257Y-241766D01*
X-48869Y-243717D01*
X-47764Y-245371D01*
X-46110Y-246476D01*
X-44159Y-246864D01*
X-42208Y-246476D01*
X-40554Y-245371D01*
X-39449Y-243717D01*
X-39061Y-241766D01*
X-39449Y-239815D01*
X-40554Y-238162D01*
X-42208Y-237056D01*
X-44159Y-236668D01*
D02*
G37*
G36*
X-77000Y-215863D02*
X-79624Y-216209D01*
X-82068Y-217221D01*
X-84168Y-218832D01*
X-85779Y-220932D01*
X-86791Y-223376D01*
X-87137Y-226000D01*
X-86791Y-228624D01*
X-85779Y-231068D01*
X-84168Y-233168D01*
X-82068Y-234779D01*
X-79624Y-235791D01*
X-77000Y-236137D01*
X-74376Y-235791D01*
X-71932Y-234779D01*
X-69832Y-233168D01*
X-68221Y-231068D01*
X-67209Y-228624D01*
X-66863Y-226000D01*
X-67209Y-223376D01*
X-68221Y-220932D01*
X-69832Y-218832D01*
X-71932Y-217221D01*
X-74376Y-216209D01*
X-77000Y-215863D01*
D02*
G37*
G36*
X-55391Y-180494D02*
X-57342Y-180882D01*
X-58996Y-181987D01*
X-60101Y-183641D01*
X-60489Y-185592D01*
X-60101Y-187543D01*
X-58996Y-189197D01*
X-57342Y-190302D01*
X-55391Y-190690D01*
X-53440Y-190302D01*
X-51786Y-189197D01*
X-50681Y-187543D01*
X-50293Y-185592D01*
X-50681Y-183641D01*
X-51786Y-181987D01*
X-53440Y-180882D01*
X-55391Y-180494D01*
D02*
G37*
G36*
X14273Y-122044D02*
X12322Y-122432D01*
X10668Y-123537D01*
X9563Y-125191D01*
X9175Y-127142D01*
X9563Y-129093D01*
X10668Y-130747D01*
X10805Y-130838D01*
X6526Y-156180D01*
X6533Y-156430D01*
X6487Y-156676D01*
X6549Y-156971D01*
X6558Y-157274D01*
X6660Y-157502D01*
X6712Y-157746D01*
X6882Y-157996D01*
X7006Y-158272D01*
X7188Y-158443D01*
X7329Y-158650D01*
X7582Y-158815D01*
X7802Y-159023D01*
X8035Y-159111D01*
X8245Y-159248D01*
X67646Y-183144D01*
X67824Y-184039D01*
X68929Y-185693D01*
X70583Y-186798D01*
X72534Y-187186D01*
X74485Y-186798D01*
X76139Y-185693D01*
X77244Y-184039D01*
X77632Y-182088D01*
X77244Y-180137D01*
X76139Y-178483D01*
X74485Y-177378D01*
X72534Y-176990D01*
X70583Y-177378D01*
X69739Y-177942D01*
X21515Y-158542D01*
X21759Y-157572D01*
X75515Y-163547D01*
X77226Y-163512D01*
X78870Y-163036D01*
X80334Y-162150D01*
X81520Y-160916D01*
X82345Y-159417D01*
X82755Y-157755D01*
X82720Y-156044D01*
X82244Y-154400D01*
X81358Y-152935D01*
X80124Y-151750D01*
X78795Y-151018D01*
X78766Y-150433D01*
X78898Y-149978D01*
X80081Y-149742D01*
X81735Y-148637D01*
X82840Y-146983D01*
X82866Y-146852D01*
X83848Y-146660D01*
X113904Y-192334D01*
X113869Y-192386D01*
X113481Y-194337D01*
X113869Y-196288D01*
X114974Y-197942D01*
X116628Y-199047D01*
X118579Y-199435D01*
X120530Y-199047D01*
X122184Y-197942D01*
X123289Y-196288D01*
X123677Y-194337D01*
X123289Y-192386D01*
X122184Y-190732D01*
X120530Y-189627D01*
X118581Y-189240D01*
X112063Y-179335D01*
X112787Y-178616D01*
X113981Y-179414D01*
X115932Y-179802D01*
X117883Y-179414D01*
X119537Y-178309D01*
X120642Y-176655D01*
X121030Y-174704D01*
X120642Y-172753D01*
X119537Y-171099D01*
X117883Y-169994D01*
X115932Y-169606D01*
X113981Y-169994D01*
X112327Y-171099D01*
X111222Y-172753D01*
X110834Y-174704D01*
X111103Y-176057D01*
X110160Y-176444D01*
X83160Y-135414D01*
X83064Y-135316D01*
X83000Y-135195D01*
X82682Y-134930D01*
X82392Y-134635D01*
X82265Y-134582D01*
X82160Y-134494D01*
X81765Y-134370D01*
X81384Y-134209D01*
X81247Y-134208D01*
X81116Y-134167D01*
X80704Y-134205D01*
X80290Y-134202D01*
X80163Y-134253D01*
X80026Y-134266D01*
X60562Y-139995D01*
X59302Y-139153D01*
X57351Y-138765D01*
X55400Y-139153D01*
X53746Y-140258D01*
X52641Y-141912D01*
X52253Y-143863D01*
X52641Y-145814D01*
X53357Y-146885D01*
X52784Y-147827D01*
X19383Y-144115D01*
X17672Y-144150D01*
X16028Y-144626D01*
X15081Y-145199D01*
X14172Y-144580D01*
X16333Y-131778D01*
X17877Y-130747D01*
X18982Y-129093D01*
X19370Y-127142D01*
X18982Y-125191D01*
X17877Y-123537D01*
X16223Y-122432D01*
X14273Y-122044D01*
D02*
G37*
G36*
X95316Y-180541D02*
X93365Y-180929D01*
X91711Y-182034D01*
X90606Y-183688D01*
X90218Y-185639D01*
X90597Y-187546D01*
X89719Y-188860D01*
X89331Y-190811D01*
X89719Y-192761D01*
X90824Y-194415D01*
X92478Y-195520D01*
X94429Y-195909D01*
X96380Y-195520D01*
X98034Y-194415D01*
X98344Y-193952D01*
X99508Y-194183D01*
X101459Y-193795D01*
X103113Y-192690D01*
X104218Y-191036D01*
X104606Y-189085D01*
X104218Y-187134D01*
X103113Y-185481D01*
X101459Y-184375D01*
X100109Y-184107D01*
X100025Y-183688D01*
X98920Y-182034D01*
X97266Y-180929D01*
X95316Y-180541D01*
D02*
G37*
G36*
X-36741Y-181351D02*
X-38691Y-181739D01*
X-40345Y-182844D01*
X-41451Y-184498D01*
X-41838Y-186449D01*
X-41451Y-188400D01*
X-40345Y-190054D01*
X-38691Y-191159D01*
X-36741Y-191547D01*
X-34790Y-191159D01*
X-33136Y-190054D01*
X-32031Y-188400D01*
X-31643Y-186449D01*
X-32031Y-184498D01*
X-33136Y-182844D01*
X-34790Y-181739D01*
X-36741Y-181351D01*
D02*
G37*
G36*
X17578Y-96798D02*
X15627Y-97186D01*
X13973Y-98291D01*
X12868Y-99945D01*
X12480Y-101896D01*
X12868Y-103847D01*
X13973Y-105501D01*
X15627Y-106606D01*
X17578Y-106994D01*
X19529Y-106606D01*
X21183Y-105501D01*
X21709D01*
X22487Y-106666D01*
X24141Y-107771D01*
X26092Y-108159D01*
X28043Y-107771D01*
X29697Y-106666D01*
X30802Y-105012D01*
X31190Y-103061D01*
X30802Y-101110D01*
X29697Y-99457D01*
X28043Y-98351D01*
X26092Y-97963D01*
X24141Y-98351D01*
X22487Y-99457D01*
X21962D01*
X21183Y-98291D01*
X19529Y-97186D01*
X17578Y-96798D01*
D02*
G37*
G36*
X133253Y65183D02*
X131302Y64795D01*
X129648Y63690D01*
X128543Y62036D01*
X128155Y60085D01*
X128543Y58134D01*
X129648Y56480D01*
X131302Y55375D01*
X133253Y54987D01*
X135204Y55375D01*
X136858Y56480D01*
X137963Y58134D01*
X138351Y60085D01*
X137963Y62036D01*
X136858Y63690D01*
X135204Y64795D01*
X133253Y65183D01*
D02*
G37*
G36*
X-17250Y78848D02*
X-19201Y78460D01*
X-20855Y77355D01*
X-21960Y75701D01*
X-22348Y73750D01*
X-21960Y71799D01*
X-20855Y70145D01*
X-20817Y70120D01*
X-21037Y69144D01*
X-142380Y51482D01*
X-144787Y50802D01*
X-146936Y49522D01*
X-148681Y47729D01*
X-149902Y45546D01*
X-150229Y44256D01*
X-150285Y44120D01*
X-150309Y43940D01*
X-150516Y43121D01*
X-150507Y42435D01*
X-150508Y42423D01*
Y-32302D01*
X-150580Y-32950D01*
X-150202Y-35422D01*
X-149197Y-37713D01*
X-147633Y-39665D01*
X-145617Y-41146D01*
X-143287Y-42055D01*
X-11037Y-74555D01*
X-8551Y-74830D01*
X-6078Y-74452D01*
X-3787Y-73447D01*
X-1835Y-71883D01*
X-354Y-69867D01*
X555Y-67537D01*
X830Y-65051D01*
X452Y-62578D01*
X-553Y-60287D01*
X-2117Y-58335D01*
X-4133Y-56854D01*
X-6463Y-55945D01*
X-59639Y-42877D01*
X-59616Y-41853D01*
X-58708Y-41672D01*
X-57054Y-40567D01*
X-56513Y-39757D01*
X-55451Y-39968D01*
X-55347Y-40490D01*
X-54242Y-42143D01*
X-52588Y-43249D01*
X-50637Y-43636D01*
X-48686Y-43249D01*
X-47033Y-42143D01*
X-46588Y-41478D01*
X-45526Y-41689D01*
X-45439Y-42130D01*
X-44334Y-43784D01*
X-42680Y-44889D01*
X-40729Y-45277D01*
X-38778Y-44889D01*
X-37124Y-43784D01*
X-36716Y-43173D01*
X-35655Y-43384D01*
X-35579Y-43764D01*
X-34474Y-45418D01*
X-32820Y-46523D01*
X-30869Y-46911D01*
X-28918Y-46523D01*
X-27264Y-45418D01*
X-26159Y-43764D01*
X-25771Y-41813D01*
X-26159Y-39862D01*
X-27264Y-38209D01*
X-28918Y-37104D01*
X-30869Y-36715D01*
X-32820Y-37104D01*
X-34474Y-38209D01*
X-34882Y-38819D01*
X-35943Y-38608D01*
X-36019Y-38228D01*
X-37124Y-36574D01*
X-38778Y-35469D01*
X-40729Y-35081D01*
X-42680Y-35469D01*
X-44334Y-36574D01*
X-44778Y-37239D01*
X-45840Y-37028D01*
X-45928Y-36588D01*
X-47033Y-34934D01*
X-48686Y-33829D01*
X-50637Y-33441D01*
X-52588Y-33829D01*
X-54242Y-34934D01*
X-54784Y-35744D01*
X-55845Y-35533D01*
X-55949Y-35012D01*
X-57054Y-33358D01*
X-58708Y-32253D01*
X-60659Y-31865D01*
X-62610Y-32253D01*
X-64264Y-33358D01*
X-65369Y-35012D01*
X-65757Y-36962D01*
X-65369Y-38913D01*
X-64264Y-40567D01*
X-63924Y-40794D01*
X-64333Y-41724D01*
X-137396Y-23769D01*
Y32842D01*
X-69338Y42748D01*
X-68741Y42031D01*
X-68666Y41835D01*
X-68818Y41509D01*
X-68822Y41393D01*
X-68863Y41284D01*
X-78776Y-21663D01*
X-80267Y-22659D01*
X-81372Y-24313D01*
X-81760Y-26264D01*
X-81372Y-28215D01*
X-80267Y-29869D01*
X-78613Y-30974D01*
X-76662Y-31362D01*
X-74711Y-30974D01*
X-73057Y-29869D01*
X-71952Y-28215D01*
X-71564Y-26264D01*
X-71952Y-24313D01*
X-73057Y-22659D01*
X-73237Y-22539D01*
X-63641Y38392D01*
X-404Y48233D01*
X623Y48609D01*
X1428Y49350D01*
X1428Y49350D01*
X3716Y52481D01*
X3717Y52482D01*
X5250Y54581D01*
X29423Y58343D01*
X29548Y58156D01*
X31202Y57051D01*
X33153Y56663D01*
X35104Y57051D01*
X36758Y58156D01*
X37863Y59810D01*
X38251Y61761D01*
X37863Y63712D01*
X36758Y65366D01*
X35104Y66471D01*
X33153Y66859D01*
X31202Y66471D01*
X29548Y65366D01*
X28558Y63884D01*
X3240Y59943D01*
X2213Y59567D01*
X2156Y59515D01*
X793Y59600D01*
X669Y59745D01*
X766Y60129D01*
X732Y62630D01*
X52Y65037D01*
X-1228Y67186D01*
X-3021Y68931D01*
X-5204Y70152D01*
X-7629Y70766D01*
X-10130Y70732D01*
X-12372Y70406D01*
X-12906Y71251D01*
X-12540Y71799D01*
X-12152Y73750D01*
X-12540Y75701D01*
X-13645Y77355D01*
X-15299Y78460D01*
X-17250Y78848D01*
D02*
G37*
G36*
X-48250Y36098D02*
X-50201Y35710D01*
X-51855Y34605D01*
X-52960Y32951D01*
X-53312Y31181D01*
X-53662Y30686D01*
X-54042Y30306D01*
X-54250Y30348D01*
X-56201Y29960D01*
X-57855Y28855D01*
X-58960Y27201D01*
X-59348Y25250D01*
X-58960Y23299D01*
X-57855Y21645D01*
X-56201Y20540D01*
X-54947Y20291D01*
X-54917Y20277D01*
X-54865Y20274D01*
X-54250Y20152D01*
X-53857Y20230D01*
X-53824Y20229D01*
X-53486Y20281D01*
X-53345Y20332D01*
X-52299Y20540D01*
X-50645Y21645D01*
X-49540Y23299D01*
X-49188Y25069D01*
X-48838Y25564D01*
X-48458Y25944D01*
X-48250Y25902D01*
X-46299Y26290D01*
X-44645Y27395D01*
X-43540Y29049D01*
X-43152Y31000D01*
X-43540Y32951D01*
X-44645Y34605D01*
X-46299Y35710D01*
X-48250Y36098D01*
D02*
G37*
G36*
X14046Y54214D02*
X12095Y53826D01*
X10441Y52721D01*
X9336Y51067D01*
X8948Y49117D01*
X9336Y47166D01*
X10441Y45512D01*
X12095Y44407D01*
X14046Y44019D01*
X15997Y44407D01*
X16839Y44969D01*
X18218Y44697D01*
X18478Y44307D01*
X20132Y43202D01*
X22083Y42814D01*
X24034Y43202D01*
X25688Y44307D01*
X26793Y45961D01*
X27181Y47912D01*
X26793Y49862D01*
X25688Y51516D01*
X24034Y52621D01*
X22083Y53010D01*
X20132Y52621D01*
X19290Y52059D01*
X17911Y52331D01*
X17651Y52721D01*
X15997Y53826D01*
X14046Y54214D01*
D02*
G37*
G36*
X52849Y74392D02*
X50898Y74004D01*
X49244Y72899D01*
X48139Y71245D01*
X47839Y69735D01*
X46826Y69209D01*
X46451Y69460D01*
X44500Y69848D01*
X42549Y69460D01*
X40895Y68355D01*
X39790Y66701D01*
X39402Y64750D01*
X39790Y62799D01*
X40895Y61145D01*
X42549Y60040D01*
X44500Y59652D01*
X46451Y60040D01*
X48105Y61145D01*
X49210Y62799D01*
X49510Y64309D01*
X50523Y64835D01*
X50898Y64584D01*
X52849Y64196D01*
X54800Y64584D01*
X56454Y65690D01*
X57559Y67343D01*
X57947Y69294D01*
X57559Y71245D01*
X56454Y72899D01*
X54800Y74004D01*
X52849Y74392D01*
D02*
G37*
G36*
X-15958Y166092D02*
X-17909Y165704D01*
X-19563Y164598D01*
X-20668Y162945D01*
X-21056Y160994D01*
X-20668Y159043D01*
X-19563Y157389D01*
X-17909Y156284D01*
X-15958Y155896D01*
X-14007Y156284D01*
X-12353Y157389D01*
X-11248Y159043D01*
X-10860Y160994D01*
X-11248Y162945D01*
X-12353Y164598D01*
X-14007Y165704D01*
X-15958Y166092D01*
D02*
G37*
G36*
X111227Y68323D02*
X109276Y67935D01*
X107622Y66830D01*
X106517Y65176D01*
X106129Y63225D01*
X106517Y61274D01*
X107622Y59620D01*
X109276Y58515D01*
X111227Y58127D01*
X113178Y58515D01*
X114832Y59620D01*
X115937Y61274D01*
X116325Y63225D01*
X115937Y65176D01*
X114832Y66830D01*
X113178Y67935D01*
X111227Y68323D01*
D02*
G37*
G36*
X155000Y81137D02*
X152376Y80791D01*
X149932Y79779D01*
X147832Y78168D01*
X146221Y76068D01*
X145209Y73624D01*
X144863Y71000D01*
X145209Y68376D01*
X146221Y65932D01*
X147832Y63832D01*
X149932Y62221D01*
X152376Y61209D01*
X155000Y60863D01*
X157624Y61209D01*
X160068Y62221D01*
X162168Y63832D01*
X163779Y65932D01*
X164791Y68376D01*
X165137Y71000D01*
X164791Y73624D01*
X163779Y76068D01*
X162168Y78168D01*
X160068Y79779D01*
X157624Y80791D01*
X155000Y81137D01*
D02*
G37*
G36*
X44763Y52424D02*
X42813Y52036D01*
X41159Y50931D01*
X40054Y49277D01*
X39666Y47326D01*
X40054Y45375D01*
X41159Y43721D01*
X42713Y42682D01*
X42838Y42156D01*
X42870Y41585D01*
X41632Y40758D01*
X40527Y39104D01*
X40139Y37153D01*
X40527Y35202D01*
X41632Y33548D01*
X43286Y32443D01*
X45237Y32055D01*
X47188Y32443D01*
X48842Y33548D01*
X48852Y33564D01*
X65877Y30966D01*
X88114Y721D01*
X88922Y-17D01*
X89950Y-390D01*
X98287Y-1662D01*
X98328Y-2642D01*
X98321Y-2679D01*
X96675Y-3778D01*
X95570Y-5432D01*
X95182Y-7383D01*
X95570Y-9334D01*
X96675Y-10988D01*
X98329Y-12093D01*
X100280Y-12481D01*
X102231Y-12093D01*
X103885Y-10988D01*
X104990Y-9334D01*
X105378Y-7383D01*
X104990Y-5432D01*
X103885Y-3778D01*
X103399Y-3454D01*
X103770Y-2499D01*
X113648Y-4006D01*
X114067Y-4633D01*
X115721Y-5738D01*
X117672Y-6126D01*
X119623Y-5738D01*
X121277Y-4633D01*
X122382Y-2979D01*
X122770Y-1028D01*
X122382Y923D01*
X121277Y2577D01*
X120435Y3139D01*
X121210Y4299D01*
X121598Y6250D01*
X121210Y8201D01*
X120105Y9855D01*
X118451Y10960D01*
X116500Y11348D01*
X114549Y10960D01*
X112895Y9855D01*
X111790Y8201D01*
X111402Y6250D01*
X111790Y4299D01*
X112785Y2810D01*
X112545Y2190D01*
X112301Y1872D01*
X91944Y4978D01*
X69707Y35223D01*
X68899Y35961D01*
X67871Y36334D01*
X49954Y39068D01*
X49947Y39104D01*
X48842Y40758D01*
X47287Y41796D01*
X47162Y42323D01*
X47130Y42894D01*
X48368Y43721D01*
X48379Y43737D01*
X88454Y37622D01*
X88675Y36577D01*
X87669Y35071D01*
X87281Y33120D01*
X87669Y31169D01*
X88774Y29515D01*
X90428Y28410D01*
X92379Y28022D01*
X94330Y28410D01*
X95984Y29515D01*
X97089Y31169D01*
X97477Y33120D01*
X97089Y35071D01*
X96859Y35414D01*
X97396Y36258D01*
X99923Y35872D01*
X114338Y14966D01*
X115122Y14203D01*
X116139Y13800D01*
X131316Y11010D01*
X132395Y9395D01*
X134049Y8290D01*
X136000Y7902D01*
X137951Y8290D01*
X139605Y9395D01*
X140710Y11049D01*
X141098Y13000D01*
X140710Y14951D01*
X139605Y16605D01*
X137951Y17710D01*
X136000Y18098D01*
X134049Y17710D01*
X132395Y16605D01*
X132341Y16523D01*
X118295Y19105D01*
X117403Y20399D01*
X117952Y21235D01*
X118572Y21111D01*
X120523Y21499D01*
X122177Y22604D01*
X123282Y24258D01*
X123670Y26209D01*
X123282Y28160D01*
X122177Y29814D01*
X120523Y30919D01*
X118572Y31307D01*
X116621Y30919D01*
X114967Y29814D01*
X113862Y28160D01*
X113729Y27490D01*
X112665Y27270D01*
X103852Y40052D01*
X103821Y40083D01*
X103803Y40122D01*
X103430Y40463D01*
X103068Y40815D01*
X103027Y40831D01*
X102995Y40860D01*
X102520Y41032D01*
X102051Y41219D01*
X102008Y41218D01*
X101967Y41233D01*
X49480Y49241D01*
X49473Y49277D01*
X48368Y50931D01*
X46714Y52036D01*
X44763Y52424D01*
D02*
G37*
G36*
X0Y43874D02*
X-1366Y43602D01*
X-2523Y42828D01*
X-3297Y41671D01*
X-3569Y40305D01*
X-3665Y40170D01*
X-7880Y39615D01*
X-12983Y38248D01*
X-17865Y36226D01*
X-22440Y33584D01*
X-26632Y30368D01*
X-28500Y28500D01*
X-30368Y26632D01*
X-33584Y22440D01*
X-36226Y17865D01*
X-38248Y12983D01*
X-39615Y7880D01*
X-39994Y5002D01*
X-40250Y4819D01*
X-41616Y4547D01*
X-42773Y3773D01*
X-43547Y2616D01*
X-43819Y1250D01*
X-43547Y-116D01*
X-42773Y-1273D01*
X-41616Y-2047D01*
X-40305Y-2308D01*
Y-2642D01*
X-39615Y-7880D01*
X-38248Y-12983D01*
X-36226Y-17865D01*
X-33584Y-22440D01*
X-30368Y-26632D01*
X-28500Y-28500D01*
X-26632Y-30368D01*
X-22440Y-33584D01*
X-17865Y-36226D01*
X-12983Y-38248D01*
X-7880Y-39615D01*
X-3665Y-40170D01*
X-3569Y-40305D01*
X-3297Y-41671D01*
X-2523Y-42828D01*
X-1366Y-43602D01*
X0Y-43874D01*
X1366Y-43602D01*
X2523Y-42828D01*
X3297Y-41671D01*
X3569Y-40305D01*
X3665Y-40170D01*
X7880Y-39615D01*
X12983Y-38248D01*
X17865Y-36226D01*
X22440Y-33584D01*
X26632Y-30368D01*
X28500Y-28500D01*
X30368Y-26632D01*
X33584Y-22440D01*
X36226Y-17865D01*
X38248Y-12983D01*
X39615Y-7880D01*
X39994Y-5002D01*
X40250Y-4819D01*
X41616Y-4547D01*
X42773Y-3773D01*
X43547Y-2616D01*
X43819Y-1250D01*
X43547Y116D01*
X42773Y1273D01*
X41616Y2047D01*
X40305Y2308D01*
Y2642D01*
X39615Y7880D01*
X38248Y12983D01*
X36226Y17865D01*
X33584Y22440D01*
X30368Y26632D01*
X28500Y28500D01*
X26632Y30368D01*
X22440Y33584D01*
X17865Y36226D01*
X12983Y38248D01*
X7880Y39615D01*
X3665Y40170D01*
X3569Y40305D01*
X3297Y41671D01*
X2523Y42828D01*
X1366Y43602D01*
X0Y43874D01*
D02*
G37*
G36*
X45540Y-15666D02*
X43589Y-16054D01*
X41935Y-17159D01*
X40830Y-18813D01*
X40442Y-20764D01*
X40830Y-22715D01*
X41935Y-24369D01*
X43589Y-25474D01*
X45540Y-25862D01*
X47491Y-25474D01*
X49145Y-24369D01*
X50250Y-22715D01*
X50638Y-20764D01*
X50250Y-18813D01*
X49145Y-17159D01*
X47491Y-16054D01*
X45540Y-15666D01*
D02*
G37*
G36*
X133500Y-74402D02*
X131549Y-74790D01*
X129895Y-75895D01*
X128790Y-77549D01*
X128402Y-79500D01*
X128790Y-81451D01*
X129118Y-81941D01*
X128517Y-82841D01*
X127519Y-82643D01*
X125568Y-83031D01*
X123914Y-84136D01*
X122809Y-85790D01*
X122421Y-87741D01*
X122809Y-89692D01*
X123914Y-91346D01*
X125568Y-92451D01*
X127519Y-92839D01*
X129470Y-92451D01*
X131065Y-91385D01*
X138655Y-92559D01*
X139450Y-93749D01*
X141104Y-94854D01*
X143055Y-95242D01*
X145006Y-94854D01*
X146660Y-93749D01*
X147765Y-92095D01*
X148153Y-90144D01*
X147765Y-88193D01*
X146660Y-86539D01*
X145006Y-85434D01*
X143055Y-85046D01*
X141104Y-85434D01*
X139509Y-86500D01*
X133413Y-85557D01*
X133500Y-84598D01*
X135451Y-84210D01*
X137105Y-83105D01*
X138210Y-81451D01*
X138598Y-79500D01*
X138210Y-77549D01*
X137105Y-75895D01*
X135451Y-74790D01*
X133500Y-74402D01*
D02*
G37*
G36*
X-128428Y-48808D02*
X-130379Y-49196D01*
X-132033Y-50302D01*
X-133138Y-51955D01*
X-133526Y-53906D01*
X-133138Y-55857D01*
X-132935Y-56162D01*
X-133506Y-57106D01*
X-135222Y-56921D01*
X-137694Y-57305D01*
X-139982Y-58315D01*
X-141931Y-59883D01*
X-143407Y-61903D01*
X-144311Y-64235D01*
X-144579Y-66722D01*
X-144195Y-69194D01*
X-143185Y-71482D01*
X-141616Y-73431D01*
X-139597Y-74907D01*
X-137265Y-75810D01*
X-115331Y-81146D01*
X-114813Y-82001D01*
X-119441Y-100625D01*
X-120903Y-101231D01*
X-122261Y-102273D01*
X-123303Y-103631D01*
X-123958Y-105212D01*
X-124181Y-106909D01*
X-123958Y-108606D01*
X-123303Y-110187D01*
X-122261Y-111545D01*
X-120903Y-112586D01*
X-119322Y-113241D01*
X-117625Y-113465D01*
X-115928Y-113241D01*
X-108684Y-111300D01*
X-107102Y-110645D01*
X-105745Y-109603D01*
X-104703Y-108246D01*
X-104048Y-106664D01*
X-103825Y-104968D01*
X-104048Y-103271D01*
X-104703Y-101690D01*
X-105745Y-100332D01*
X-105839Y-100259D01*
X-101902Y-84412D01*
X-91770Y-86877D01*
X-91791Y-87901D01*
X-93027Y-88147D01*
X-94681Y-89252D01*
X-95786Y-90906D01*
X-96174Y-92857D01*
X-95786Y-94808D01*
X-94681Y-96461D01*
X-93027Y-97566D01*
X-91076Y-97955D01*
X-89126Y-97566D01*
X-87472Y-96461D01*
X-86367Y-94808D01*
X-85979Y-92857D01*
X-86367Y-90906D01*
X-87472Y-89252D01*
X-88179Y-88779D01*
X-87770Y-87850D01*
X-54509Y-95940D01*
X-54145Y-96872D01*
X-54628Y-97595D01*
X-55016Y-99546D01*
X-54787Y-100700D01*
X-86120Y-134801D01*
X-86689Y-135735D01*
X-86857Y-136816D01*
X-85450Y-170085D01*
X-86435Y-170443D01*
X-87239Y-169395D01*
X-88597Y-168354D01*
X-90178Y-167699D01*
X-91875Y-167475D01*
X-93572Y-167699D01*
X-100816Y-169640D01*
X-102397Y-170295D01*
X-103755Y-171337D01*
X-104797Y-172694D01*
X-105452Y-174275D01*
X-105675Y-175972D01*
X-105452Y-177669D01*
X-104797Y-179250D01*
X-103755Y-180608D01*
X-102397Y-181650D01*
X-100816Y-182305D01*
X-99120Y-182528D01*
X-97423Y-182305D01*
X-90178Y-180364D01*
X-88597Y-179709D01*
X-87527Y-178888D01*
X-86788Y-179581D01*
X-86864Y-179696D01*
X-87252Y-181647D01*
X-86864Y-183598D01*
X-85759Y-185251D01*
X-85575Y-185374D01*
X-85626Y-186543D01*
X-86592Y-187988D01*
X-86980Y-189939D01*
X-86592Y-191890D01*
X-85487Y-193543D01*
X-83833Y-194649D01*
X-81882Y-195037D01*
X-79931Y-194649D01*
X-78277Y-193543D01*
X-77172Y-191890D01*
X-76784Y-189939D01*
X-77172Y-187988D01*
X-78277Y-186334D01*
X-78549Y-186152D01*
Y-185251D01*
X-77444Y-183598D01*
X-77056Y-181647D01*
X-77444Y-179696D01*
X-78549Y-178042D01*
X-79528Y-177388D01*
X-81205Y-137740D01*
X-75186Y-131189D01*
X-74489Y-131251D01*
X-74248Y-131440D01*
X-74542Y-132131D01*
X-75147Y-133036D01*
X-75535Y-134987D01*
X-75147Y-136938D01*
X-74042Y-138592D01*
X-72388Y-139697D01*
X-70437Y-140085D01*
X-68486Y-139697D01*
X-66832Y-138592D01*
X-65727Y-136938D01*
X-65339Y-134987D01*
X-65569Y-133833D01*
X-52246Y-119334D01*
X-51170Y-119641D01*
X-50170Y-121138D01*
X-48516Y-122243D01*
X-46565Y-122631D01*
X-44614Y-122243D01*
X-42960Y-121138D01*
X-41855Y-119484D01*
X-41467Y-117533D01*
X-41855Y-115582D01*
X-42960Y-113928D01*
X-44614Y-112823D01*
X-45008Y-112745D01*
X-45319Y-111794D01*
X-40791Y-106867D01*
X-40050Y-107014D01*
X-38099Y-106626D01*
X-36445Y-105521D01*
X-35340Y-103867D01*
X-34952Y-101917D01*
X-35026Y-101547D01*
X-34304Y-100855D01*
X-17015Y-105061D01*
X-14528Y-105329D01*
X-12056Y-104945D01*
X-9768Y-103935D01*
X-7819Y-102367D01*
X-6343Y-100347D01*
X-5440Y-98015D01*
X-5171Y-95528D01*
X-5555Y-93056D01*
X-6565Y-90768D01*
X-8134Y-88819D01*
X-10153Y-87343D01*
X-12485Y-86440D01*
X-125263Y-59007D01*
X-125453Y-57932D01*
X-124824Y-57511D01*
X-123719Y-55857D01*
X-123330Y-53906D01*
X-123719Y-51955D01*
X-124824Y-50302D01*
X-126477Y-49196D01*
X-128428Y-48808D01*
D02*
G37*
G36*
X-78728Y34998D02*
X-80679Y34610D01*
X-82333Y33505D01*
X-83438Y31851D01*
X-83827Y29900D01*
X-83438Y27949D01*
X-82350Y26321D01*
X-83496Y25555D01*
X-84601Y23901D01*
X-84990Y21950D01*
X-84601Y20000D01*
X-83987Y19080D01*
X-84223Y17720D01*
X-84599Y17469D01*
X-85704Y15816D01*
X-86092Y13865D01*
X-85704Y11914D01*
X-84599Y10260D01*
X-82945Y9155D01*
X-80994Y8767D01*
X-79043Y9155D01*
X-77389Y10260D01*
X-76284Y11914D01*
X-75896Y13865D01*
X-76284Y15816D01*
X-76898Y16735D01*
X-76662Y18095D01*
X-76287Y18346D01*
X-75182Y20000D01*
X-74794Y21950D01*
X-75182Y23901D01*
X-76270Y25530D01*
X-75124Y26295D01*
X-74019Y27949D01*
X-73631Y29900D01*
X-74019Y31851D01*
X-75124Y33505D01*
X-76778Y34610D01*
X-78728Y34998D01*
D02*
G37*
G36*
X71115Y18169D02*
X69164Y17781D01*
X67510Y16676D01*
X66405Y15022D01*
X66017Y13071D01*
X66405Y11120D01*
X66455Y11046D01*
X65734Y10325D01*
X65100Y10748D01*
X63149Y11136D01*
X61199Y10748D01*
X59545Y9643D01*
X58440Y7989D01*
X58052Y6038D01*
X58440Y4087D01*
X59545Y2433D01*
X61199Y1328D01*
X63149Y940D01*
X65100Y1328D01*
X66754Y2433D01*
X67859Y4087D01*
X68247Y6038D01*
X67859Y7989D01*
X67810Y8064D01*
X68531Y8785D01*
X69164Y8361D01*
X71115Y7973D01*
X73066Y8361D01*
X74720Y9466D01*
X75825Y11120D01*
X76213Y13071D01*
X75825Y15022D01*
X74720Y16676D01*
X73066Y17781D01*
X71115Y18169D01*
D02*
G37*
G36*
X7454Y127187D02*
X5021Y126605D01*
X2822Y125414D01*
X1006Y123693D01*
X-303Y121562D01*
X-1015Y119164D01*
X-1083Y116663D01*
X-501Y114231D01*
X691Y112031D01*
X2411Y110215D01*
X4543Y108907D01*
X6941Y108194D01*
X19636Y106172D01*
X19760Y105378D01*
X19732Y105144D01*
X18137Y104079D01*
X17032Y102425D01*
X16644Y100474D01*
X17032Y98523D01*
X18137Y96869D01*
X19791Y95764D01*
X21742Y95376D01*
X23693Y95764D01*
X25347Y96869D01*
X26452Y98523D01*
X26840Y100474D01*
X26452Y102425D01*
X25347Y104079D01*
X25009Y104304D01*
X25383Y105257D01*
X46408Y101909D01*
X46884Y100820D01*
X46362Y100040D01*
X45974Y98089D01*
X46362Y96138D01*
X47467Y94484D01*
X49121Y93379D01*
X51072Y92991D01*
X52404Y93256D01*
X53005Y92356D01*
X52510Y91614D01*
X52122Y89663D01*
X52210Y89221D01*
X52060Y89139D01*
X50936Y89665D01*
X50869Y89998D01*
X49764Y91652D01*
X48110Y92757D01*
X46159Y93145D01*
X44208Y92757D01*
X42554Y91652D01*
X41449Y89998D01*
X41061Y88047D01*
X41449Y86096D01*
X42149Y85050D01*
X40884Y84204D01*
X39779Y82550D01*
X39390Y80599D01*
X39779Y78649D01*
X40884Y76995D01*
X42538Y75890D01*
X44489Y75501D01*
X46439Y75890D01*
X48093Y76995D01*
X48716Y77926D01*
X48788Y78021D01*
X49071Y78372D01*
X49938Y78307D01*
X50010Y78264D01*
X50878Y78091D01*
X51961Y77876D01*
X53911Y78264D01*
X55565Y79369D01*
X56670Y81023D01*
X57059Y82974D01*
X56917Y83684D01*
X57741Y84669D01*
X59170Y84954D01*
X60824Y86059D01*
X61929Y87713D01*
X62318Y89663D01*
X61929Y91614D01*
X61135Y92803D01*
X61981Y93369D01*
X63087Y95023D01*
X63474Y96974D01*
X63227Y98218D01*
X64072Y99096D01*
X99635Y93432D01*
X99918Y92374D01*
X98977Y90965D01*
X98589Y89014D01*
X98977Y87063D01*
X100015Y85509D01*
X98831Y84718D01*
X97725Y83064D01*
X97337Y81113D01*
X97725Y79162D01*
X98831Y77508D01*
X100485Y76403D01*
X102435Y76015D01*
X104386Y76403D01*
X106040Y77508D01*
X107145Y79162D01*
X107533Y81113D01*
X107145Y83064D01*
X106107Y84618D01*
X107292Y85409D01*
X108397Y87063D01*
X108785Y89014D01*
X108397Y90965D01*
X108289Y91126D01*
X108829Y91968D01*
X171105Y82050D01*
X171689Y81239D01*
X156904Y-8153D01*
X156879Y-8156D01*
X150985Y-9494D01*
X150583Y-8560D01*
X151782Y-7759D01*
X152887Y-6105D01*
X153275Y-4154D01*
X152887Y-2203D01*
X151782Y-549D01*
X150128Y556D01*
X148177Y944D01*
X146226Y556D01*
X144572Y-549D01*
X143467Y-2203D01*
X143079Y-4154D01*
X143467Y-6105D01*
X144572Y-7759D01*
X146226Y-8864D01*
X147834Y-9184D01*
X147847Y-10206D01*
X132632Y-13661D01*
X131828Y-12818D01*
X132107Y-11413D01*
X131719Y-9462D01*
X130614Y-7808D01*
X128960Y-6703D01*
X127009Y-6314D01*
X125058Y-6703D01*
X123405Y-7808D01*
X122299Y-9462D01*
X121911Y-11413D01*
X122299Y-13363D01*
X123238Y-14768D01*
X122988Y-15850D01*
X12629Y-40906D01*
X10282Y-41773D01*
X8241Y-43218D01*
X6643Y-45143D01*
X5597Y-47415D01*
X5175Y-49881D01*
X5406Y-52371D01*
X6273Y-54718D01*
X7718Y-56759D01*
X9643Y-58357D01*
X11915Y-59403D01*
X14381Y-59825D01*
X16872Y-59594D01*
X28012Y-57065D01*
X28728Y-57762D01*
X28542Y-58699D01*
X28930Y-60650D01*
X30035Y-62304D01*
X31689Y-63409D01*
X33640Y-63797D01*
X35591Y-63409D01*
X37245Y-62304D01*
X38350Y-60650D01*
X38378Y-60509D01*
X85587Y-49905D01*
X87153Y-50952D01*
X89103Y-51340D01*
X91054Y-50952D01*
X92708Y-49847D01*
X93410Y-48796D01*
X93813Y-48193D01*
X94691Y-48541D01*
X95560Y-49122D01*
X97511Y-49510D01*
X99462Y-49122D01*
X101116Y-48017D01*
X102221Y-46363D01*
X102609Y-44412D01*
X102221Y-42461D01*
X101514Y-41403D01*
X101963Y-40275D01*
X161122Y-26844D01*
X163468Y-25977D01*
X165509Y-24532D01*
X167107Y-22607D01*
X168153Y-20335D01*
X168415Y-18803D01*
X168455Y-18670D01*
X186237Y88842D01*
X186379Y89320D01*
X186447Y91821D01*
X185865Y94253D01*
X184673Y96453D01*
X182953Y98268D01*
X180821Y99577D01*
X178423Y100290D01*
X9955Y127120D01*
X7454Y127187D01*
D02*
G37*
G36*
X-128513Y18243D02*
X-130463Y17855D01*
X-132117Y16750D01*
X-133223Y15096D01*
X-133610Y13145D01*
X-133223Y11194D01*
X-132117Y9540D01*
X-130463Y8435D01*
X-128513Y8047D01*
X-126562Y8435D01*
X-124949Y9513D01*
X-124149Y8316D01*
X-122495Y7211D01*
X-120544Y6823D01*
X-118593Y7211D01*
X-116961Y8301D01*
X-116119Y7040D01*
X-114465Y5935D01*
X-112514Y5547D01*
X-110563Y5935D01*
X-108909Y7040D01*
X-107804Y8694D01*
X-107416Y10645D01*
X-107804Y12596D01*
X-108909Y14250D01*
X-110563Y15355D01*
X-112514Y15743D01*
X-114465Y15355D01*
X-116097Y14265D01*
X-116939Y15525D01*
X-118593Y16630D01*
X-120544Y17018D01*
X-122495Y16630D01*
X-124108Y15553D01*
X-124908Y16750D01*
X-126562Y17855D01*
X-128513Y18243D01*
D02*
G37*
%LPD*%
D10*
X11517Y149045D02*
G03*
X-8075Y145569I-9092J-5704D01*
G01*
X-143952Y-32327D02*
Y42423D01*
X-113420Y-103582D02*
X-105961Y-73563D01*
X-16011Y93381D02*
X-8076Y145569D01*
X95436Y-63819D02*
X117975Y-151951D01*
X18659Y-150631D02*
X76239Y-157031D01*
X161987Y-17600D02*
X179904Y90727D01*
D11*
X40250Y-1250D02*
D03*
X0Y-40305D02*
D03*
X-40250Y1250D02*
D03*
X0Y40305D02*
D03*
D12*
Y0D02*
D03*
D13*
X-137572Y215547D02*
D03*
X-127189Y223371D02*
D03*
D14*
X-129158Y173483D02*
D03*
X155000Y71000D02*
D03*
X-77000Y-226000D02*
D03*
X-107938Y-141324D02*
D03*
X-104573Y-153881D02*
D03*
X-111302Y-128767D02*
D03*
X-99961Y-132457D02*
D03*
X-96596Y-145014D02*
D03*
D15*
X-135000Y-66500D02*
X-14750Y-95750D01*
X8750Y-83500D02*
X153000Y-50750D01*
X-141000Y-32750D02*
X-8750Y-65250D01*
X-141000Y42000D02*
X-8750Y61250D01*
X-147000Y72750D02*
X-14750Y91750D01*
X14749Y148740D02*
X170965Y123862D01*
X8448Y117657D02*
X176916Y90827D01*
X14750Y-50250D02*
X159000Y-17500D01*
D16*
X-17966Y178317D02*
X33150Y170240D01*
X-26544Y172080D02*
X-17966Y178317D01*
X-28910Y157108D02*
X-26544Y172080D01*
X41988Y158084D02*
X86118Y151111D01*
X33150Y170240D02*
X41988Y158084D01*
X42057Y157990D01*
X34573Y172554D02*
X43416Y160391D01*
X-18906Y181005D02*
X34573Y172554D01*
X-29040Y173637D02*
X-18906Y181005D01*
X-31435Y158482D02*
X-29040Y173637D01*
X-152611Y135298D02*
X-146357Y85918D01*
X-155352Y135287D02*
X-149010Y85211D01*
X43416Y160391D02*
X79069Y154757D01*
X-15398Y200164D02*
X-11090Y202477D01*
X90047Y166748D02*
X92315Y162022D01*
X65499Y164162D02*
X65528Y164108D01*
X65528Y164108D01*
X64442Y169050D02*
X65927Y166282D01*
X65528Y164108D02*
X65528Y164107D01*
X65528Y164107D01*
X65624Y163928D01*
X37521Y177168D02*
X64442Y169050D01*
X-152611Y135298D02*
X-136605Y207546D01*
X-66811Y117621D02*
X-64684Y131085D01*
X-74138Y112294D02*
X-66811Y117621D01*
X-134701Y121865D02*
X-74138Y112294D01*
X-64690Y131094D02*
X-28910Y157108D01*
X-139176Y128020D02*
X-134701Y121865D01*
X-136713Y140431D02*
X-74419Y130587D01*
X60477Y167525D02*
X64725Y159608D01*
X74932Y157995D01*
X74778Y158042D02*
X74871Y158014D01*
X74778Y158042D02*
X74778Y158042D01*
X82400Y166379D02*
X82414Y166375D01*
X82387Y166383D02*
X82400Y166379D01*
X1458Y190789D02*
X82387Y166383D01*
X82414Y166375D02*
X82502Y166349D01*
X74871Y158014D02*
X74932Y157995D01*
X-77644Y124884D02*
X-31435Y158482D01*
X-146378Y135746D02*
X-77644Y124884D01*
X-126673Y208627D02*
X-123124Y202015D01*
X-36551Y174463D02*
X-20235Y186295D01*
X109144Y168839D02*
X114326Y158041D01*
X108864Y161119D02*
X108875Y161095D01*
X105955Y167180D02*
X108864Y161119D01*
X-16887Y206845D02*
X109144Y168839D01*
X-4872Y197989D02*
X99919Y166387D01*
X971Y193610D02*
X90047Y166748D01*
X-11090Y202477D02*
X105955Y167180D01*
X-21764Y204228D02*
X-21021Y204627D01*
X-16887Y206845D01*
X-9932Y195273D02*
X-4872Y197989D01*
X74871Y158014D02*
X74871Y158014D01*
X74871Y158014D01*
X-31467Y175058D02*
X-19615Y183653D01*
X-33865Y159999D02*
X-31467Y175058D01*
X1767Y187922D02*
X1964Y187891D01*
X1801Y187940D02*
X1964Y187891D01*
X1767Y187922D02*
X1801Y187940D01*
X-7036Y189313D02*
X971Y193610D01*
X-47207Y195662D02*
X-7036Y189313D01*
X-6301Y186625D02*
X1458Y190789D01*
X-21059Y188958D02*
X-6301Y186625D01*
X1964Y187891D02*
X37521Y177168D01*
X-20235Y186295D02*
X-5580Y183980D01*
X1767Y187922D01*
X2176Y185106D02*
X36291Y174818D01*
X60477Y167525D01*
X-19615Y183653D02*
X-4873Y181323D01*
X2176Y185106D01*
X-123124Y202015D02*
X-24474Y186426D01*
X-74419Y130587D02*
X-33865Y159999D01*
X79069Y154757D02*
X86071Y158117D01*
X-24474Y186426D02*
X-21059Y188958D01*
X-155352Y135287D02*
X-137572Y215547D01*
X-38384Y162952D02*
X-36551Y174463D01*
X99919Y166387D02*
X102992Y159984D01*
X107821Y154572D02*
X108864Y161119D01*
X86118Y151111D02*
X96699Y156189D01*
D17*
X42059Y129145D02*
X115548Y117532D01*
X125366Y-57024D02*
X125367Y-57024D01*
X121934Y-57940D02*
X125366Y-57024D01*
X125367Y-57024D02*
X125367Y-57024D01*
X125367Y-57024D01*
X144906Y-51809D01*
X127519Y-87741D02*
X143055Y-90144D01*
X142718Y-53084D02*
X142867Y-53767D01*
D18*
X1452Y54136D02*
X3672Y57173D01*
X-836Y51004D02*
X1452Y54136D01*
X101544Y38461D02*
X116646Y16557D01*
X3672Y57173D02*
X33153Y61761D01*
X-84055Y-136698D02*
X-49918Y-99546D01*
X-70437Y-134987D02*
X-40050Y-101917D01*
X33640Y-58699D02*
X89103Y-46242D01*
X-84055Y-136698D02*
X-82154Y-181647D01*
X9291Y-156647D02*
X72534Y-182088D01*
X80818Y-136955D02*
X118579Y-194337D01*
X39004Y-202925D02*
X79606Y-200138D01*
X-127937Y213988D02*
X-127189Y223371D01*
X-136605Y207546D02*
X-127937Y213988D01*
X57351Y-143863D02*
X80818Y-136955D01*
X9291Y-156647D02*
X14273Y-127142D01*
X67448Y33563D02*
X90373Y2382D01*
X-66093Y40848D02*
X-836Y51004D01*
X-76662Y-26264D02*
X-66093Y40848D01*
X116646Y16557D02*
X136000Y13000D01*
X44110Y47224D02*
X44734Y47129D01*
X101544Y38461D01*
X-54250Y23000D02*
X-53912Y23052D01*
X90373Y2382D02*
X117559Y-1767D01*
X44584Y37051D02*
X45207Y36956D01*
X67448Y33563D01*
D19*
X142466Y-40605D02*
X144906Y-51809D01*
D20*
X-95497Y-175002D02*
D03*
X-114003Y-105938D02*
D03*
D21*
X-38421Y162958D02*
D03*
X-24253Y155196D02*
D03*
X143055Y-90144D02*
D03*
X127519Y-87741D02*
D03*
X-143984Y86218D02*
D03*
X-151360Y84913D02*
D03*
X-120544Y11920D02*
D03*
X-128513Y13145D02*
D03*
X-79892Y21950D02*
D03*
X-80994Y13865D02*
D03*
X33153Y61761D02*
D03*
X-48250Y31000D02*
D03*
X-49918Y-99546D02*
D03*
X-46565Y-117533D02*
D03*
X-40050Y-101917D02*
D03*
X-128428Y-53906D02*
D03*
X-54250Y25250D02*
D03*
X-21128Y-121078D02*
D03*
X-91076Y-92857D02*
D03*
X97511Y-44412D02*
D03*
X89103Y-46242D02*
D03*
X-15958Y160994D02*
D03*
X-81882Y-189939D02*
D03*
X81011Y-18710D02*
D03*
X133531Y142944D02*
D03*
X15978Y134067D02*
D03*
X120653Y145010D02*
D03*
X2561Y143465D02*
D03*
X146019Y141106D02*
D03*
X-4620Y99898D02*
D03*
X-55391Y-185592D02*
D03*
X17578Y-101896D02*
D03*
X-16046Y199476D02*
D03*
X-21756Y204166D02*
D03*
X92315Y162022D02*
D03*
X67600Y165219D02*
D03*
X-30869Y-41813D02*
D03*
X-40729Y-40179D02*
D03*
X-50637Y-38539D02*
D03*
X63149Y6038D02*
D03*
X26092Y-103061D02*
D03*
X45540Y-20764D02*
D03*
X-139176Y128020D02*
D03*
X-136713Y140431D02*
D03*
X-70437Y-134987D02*
D03*
X-89281Y-112792D02*
D03*
X-82154Y-181647D02*
D03*
X81710Y164090D02*
D03*
X51072Y98089D02*
D03*
X-126673Y208627D02*
D03*
X-146378Y135746D02*
D03*
X33640Y-58699D02*
D03*
X92379Y33120D02*
D03*
X4079Y98990D02*
D03*
X21742Y100474D02*
D03*
X24632Y132913D02*
D03*
X-52660Y-157063D02*
D03*
X-18637Y-162732D02*
D03*
X-36741Y-186449D02*
D03*
X-47954Y-128575D02*
D03*
X-49753Y-141752D02*
D03*
X6727Y-171878D02*
D03*
X118579Y-194337D02*
D03*
X76239Y-157031D02*
D03*
X74535Y-169795D02*
D03*
X39004Y-202925D02*
D03*
X79606Y-200138D02*
D03*
X72534Y-182088D02*
D03*
X53480Y-213319D02*
D03*
X-29832Y120361D02*
D03*
X-31031Y112478D02*
D03*
X-32457Y104817D02*
D03*
X103687Y89014D02*
D03*
X102435Y81113D02*
D03*
X-9932Y195273D02*
D03*
X75450Y160270D02*
D03*
X86071Y158117D02*
D03*
X114326Y158041D02*
D03*
X49238Y165046D02*
D03*
X-47207Y195662D02*
D03*
X-112514Y10645D02*
D03*
X-78728Y29900D02*
D03*
X71115Y13071D02*
D03*
X-44159Y-241766D02*
D03*
X-60659Y-36962D02*
D03*
X0Y0D02*
D03*
X99508Y-189085D02*
D03*
X94429Y-190811D02*
D03*
X95316Y-185639D02*
D03*
X-16864Y-140440D02*
D03*
X-11750Y-141250D02*
D03*
X-6767Y-142039D02*
D03*
X-76148Y118703D02*
D03*
X-124634Y157768D02*
D03*
X-119941Y187399D02*
D03*
X-93273Y183175D02*
D03*
X-97967Y153545D02*
D03*
X-66606Y178952D02*
D03*
X-71299Y149321D02*
D03*
X-115092Y218017D02*
D03*
X-87436Y213637D02*
D03*
X-61756Y209570D02*
D03*
X-102816Y122926D02*
D03*
X-129484Y127150D02*
D03*
X100280Y-7383D02*
D03*
X115932Y-174704D02*
D03*
X117975Y-151951D02*
D03*
X78130Y-145033D02*
D03*
X57351Y-143863D02*
D03*
X18659Y-150631D02*
D03*
X14273Y-127142D02*
D03*
X102992Y159984D02*
D03*
X107821Y154572D02*
D03*
X96699Y156189D02*
D03*
X14046Y49117D02*
D03*
X22083Y47912D02*
D03*
X45237Y37153D02*
D03*
X44763Y47326D02*
D03*
X52849Y69294D02*
D03*
X46159Y88047D02*
D03*
X44489Y80599D02*
D03*
X57220Y89663D02*
D03*
X51961Y82974D02*
D03*
X42059Y129145D02*
D03*
X58377Y96974D02*
D03*
X-17250Y73750D02*
D03*
X-76662Y-26264D02*
D03*
X44500Y64750D02*
D03*
X115540Y117482D02*
D03*
X111227Y63225D02*
D03*
X133500Y-79500D02*
D03*
X142466Y-40605D02*
D03*
X116500Y6250D02*
D03*
X133253Y60085D02*
D03*
X118572Y26209D02*
D03*
X136000Y13000D02*
D03*
X148177Y-4154D02*
D03*
X127009Y-11413D02*
D03*
X117672Y-1028D02*
D03*
M02*
